{
.appVersion = "3260";
.formatVersion = 3;
DisplayStrings = (
"æ",
"ẞ",
"/bowl-r rŕř",
"/bowl-r r",
"/bowl-r rŕř"
);
axes = (
{
name = Weight;
tag = wght;
}
);
customParameters = (
{
name = vendorID;
value = dmol;
},
{
name = panose;
value = (
0,
0,
0,
0,
0,
0,
0,
0,
0,
0
);
},
{
name = unicodeRanges;
value = (
0,
1,
2,
3,
5,
6,
7,
29,
31,
32,
33,
35,
38,
45,
62
);
},
{
name = fsType;
value = (
);
},
{
name = blueScale;
value = 0.0396;
},
{
name = glyphOrder;
value = (
.notdef,
A,
Aacute,
Abreve,
uni01CD,
Acircumflex,
uni0200,
Adieresis,
uni0226,
Agrave,
uni0202,
Amacron,
Aogonek,
Aring,
Aringacute,
Atilde,
AE,
AEacute,
uni01E2,
B,
uni1E02,
C,
Cacute,
Ccaron,
Ccedilla,
Ccircumflex,
Cdotaccent,
D,
uni01F1,
uni01C4,
Dcaron,
Dcroat,
uni1E0A,
Dtail,
uni01F2,
uni01C5,
Eth,
E,
Eacute,
Ebreve,
Ecaron,
uni0228,
Ecircumflex,
uni0204,
Edieresis,
Edotaccent,
Egrave,
uni0206,
Emacron,
Eogonek,
uni1EBC,
F,
uni1E1E,
G,
uni01F4,
Gbreve,
Gcaron,
Gcircumflex,
uni0122,
Gdotaccent,
H,
Hbar,
uni021E,
Hcircumflex,
I,
IJ,
Iacute,
Ibreve,
uni01CF,
Icircumflex,
uni0208,
Idieresis,
Idotaccent,
Igrave,
uni020A,
Imacron,
Iogonek,
Itilde,
J,
Jcircumflex,
K,
uni01E8,
uni0136,
L,
uni01C7,
Lacute,
Lcaron,
uni013B,
Ldot,
uni01C8,
Lslash,
M,
uni1E40,
N,
uni01CA,
Nacute,
Ncaron,
uni0145,
uni01F8,
uni01CB,
Ntilde,
Eng,
O,
Oacute,
Obreve,
uni01D1,
Ocircumflex,
uni020C,
Odieresis,
uni022E,
Ograve,
Ohungarumlaut,
uni020E,
Omacron,
uni01EA,
Oslash,
Oslashacute,
Otilde,
OE,
P,
uni1E56,
Thorn,
Q,
R,
Racute,
Rcaron,
uni0156,
uni0210,
uni0212,
S,
Sacute,
Scaron,
Scedilla,
Scircumflex,
uni0218,
uni1E60,
uni1E9E,
T,
Tbar,
Tcaron,
uni021A,
uni1E6A,
U,
Uacute,
Ubreve,
uni01D3,
Ucircumflex,
uni0214,
Udieresis,
Ugrave,
Uhungarumlaut,
uni0216,
Umacron,
Uogonek,
Uring,
Utilde,
V,
W,
Wacute,
Wcircumflex,
Wdieresis,
Wgrave,
X,
Y,
Yacute,
Ycircumflex,
Ydieresis,
Ygrave,
uni0232,
uni1EF8,
Z,
Zacute,
Zcaron,
Zdotaccent,
R.ss02,
a,
aacute,
abreve,
uni01CE,
acircumflex,
uni0201,
adieresis,
uni0227,
agrave,
uni0203,

glyphs = (
{
glyphname = .notdef;
lastChange = "2024-10-13 19:01:07 +0000";
layers = (
{
layerId = m01;
shapes = (
{
closed = 1;
nodes = (
(192,44,ls),
(192,-8,o),
(220,-36,o),
(272,-36,cs),
(1520,-36,ls),
(1572,-36,o),
(1600,-8,o),
(1600,44,cs),
(1600,1488,ls),
(1600,1540,o),
(1572,1568,o),
(1520,1568,cs),
(272,1568,ls),
(220,1568,o),
(192,1540,o),
(192,1488,cs)
);
},
{
closed = 1;
nodes = (
(464,124,ls),
(412,124,o),
(384,152,o),
(384,204,cs),
(384,1328,ls),
(384,1380,o),
(412,1408,o),
(464,1408,cs),
(1328,1408,ls),
(1380,1408,o),
(1408,1380,o),
(1408,1328,cs),
(1408,204,ls),
(1408,152,o),
(1380,124,o),
(1328,124,cs)
);
}
);
width = 1792;
},
{
layerId = m002;
shapes = (
{
closed = 1;
nodes = (
(192,44,ls),
(192,-8,o),
(220,-36,o),
(272,-36,cs),
(1760,-36,ls),
(1812,-36,o),
(1840,-8,o),
(1840,44,cs),
(1840,1488,ls),
(1840,1540,o),
(1812,1568,o),
(1760,1568,cs),
(272,1568,ls),
(220,1568,o),
(192,1540,o),
(192,1488,cs)
);
},
{
closed = 1;
nodes = (
(704,264,ls),
(652,264,o),
(624,292,o),
(624,344,cs),
(624,1188,ls),
(624,1240,o),
(652,1268,o),
(704,1268,cs),
(1328,1268,ls),
(1380,1268,o),
(1408,1240,o),
(1408,1188,cs),
(1408,344,ls),
(1408,292,o),
(1380,264,o),
(1328,264,cs)
);
}
);
width = 2032;
}
);
note = .notdef;
},
{
glyphname = A;
lastChange = "2024-10-22 04:14:03 +0000";
layers = (
{
anchors = (
{
name = bottom;
pos = (1047,0);
},
{
name = ogonek;
pos = (1904,42);
},
{
name = top;
pos = (1047,1536);
}
);
layerId = m01;
shapes = (
{
closed = 1;
nodes = (
(183,0,ls),
(227,0,o),
(257,17,o),
(278,56,cs),
(439,352,l),
(1655,352,l),
(1816,56,ls),
(1837,17,o),
(1867,0,o),
(1911,0,cs),
(1960,0,ls),
(2024,0,o),
(2047,40,o),
(2015,96,cs),
(1207,1481,ls),
(1185,1519,o),
(1156,1536,o),
(1112,1536,cs),
(981,1536,ls),
(937,1536,o),
(908,1519,o),
(886,1481,cs),
(79,96,ls),
(46,40,o),
(70,0,o),
(134,0,cs)
);
},
{
closed = 1;
nodes = (
(1047,1408,l),
(1559,512,l),
(535,512,l)
);
}
);
width = 2093;
},
{
anchors = (
{
name = bottom;
pos = (1074,0);
},
{
name = ogonek;
pos = (1793,42);
},
{
name = top;
pos = (1074,1536);
}
);
layerId = m002;
shapes = (
{
closed = 1;
nodes = (
(424,0,ls),
(468,0,o),
(500,16,o),
(519,56,cs),
(645,324,l),
(1503,324,l),
(1629,56,ls),
(1648,15,o),
(1680,0,o),
(1724,0,cs),
(2017,0,ls),
(2081,0,o),
(2099,40,o),
(2072,96,cs),
(1407,1481,ls),
(1389,1519,o),
(1356,1536,o),
(1312,1536,cs),
(836,1536,ls),
(792,1536,o),
(759,1519,o),
(741,1481,cs),
(76,96,ls),
(49,40,o),
(67,0,o),
(131,0,cs)
);
},
{
closed = 1;
nodes = (
(1074,1230,l),
(1379,584,l),
(769,584,l)
);
}
);
width = 2148;
}
);
note = A;
unicode = 65;
},
{
glyphname = AE;
lastChange = "2024-10-13 23:07:31 +0000";
layers = (
{
anchors = (
{
name = bottom;
pos = (2171,0);
},
{
name = top;
pos = (2344,1536);
}
);
layerId = m01;
shapes = (
{
pos = (1158,0);
ref = E;
},
{
closed = 1;
nodes = (
(104,96,ls),
(74,44,o),
(118,0,o),
(170,0,cs),
(212,0,ls),
(264,0,o),
(274,3,o),
(303,56,cs),
(464,352,l),
(1399,352,ls),
(1453,352,o),
(1479,380,o),
(1479,432,cs),
(1479,432,ls),
(1479,484,o),
(1453,512,o),
(1399,512,cs),
(560,512,l),
(1054,1376,l),
(1458,1376,ls),
(1510,1376,o),
(1538,1404,o),
(1538,1456,cs),
(1538,1456,ls),
(1538,1508,o),
(1510,1536,o),
(1458,1536,cs),
(1006,1536,ls),
(954,1536,o),
(941,1533,o),
(911,1481,cs)
);
}
);
width = 2950;
},
{
anchors = (
{
name = bottom;
pos = (2587,0);
},
{
name = top;
pos = (2760,1536);
}
);
layerId = m002;
shapes = (
{
pos = (1370,0);
ref = E;
},
{
closed = 1;
nodes = (
(294,96,ls),
(264,44,o),
(308,0,o),
(360,0,cs),
(652,0,ls),
(704,0,o),
(721,0,o),
(747,56,cs),
(873,324,l),
(1853,324,ls),
(1907,324,o),
(1933,352,o),
(1933,404,cs),
(1933,504,ls),
(1933,556,o),
(1907,584,o),
(1853,584,cs),
(997,584,l),
(1293,1212,l),
(1912,1212,ls),
(1964,1212,o),
(1992,1240,o),
(1992,1292,cs),
(1992,1456,ls),
(1992,1508,o),
(1964,1536,o),
(1912,1536,cs),
(1196,1536,ls),
(1144,1536,o),
(1131,1533,o),
(1101,1481,cs)
);
}
);
width = 3162;
}
);
unicode = 198;
},
{
glyphname = B;
lastChange = "2024-10-20 19:41:08 +0000";
layers = (
{
anchors = (
{
name = bottom;
pos = (1056,0);
},
{
name = center;
pos = (1056,768);
},
{
name = top;
pos = (1086,1536);
}
);
layerId = m01;
shapes = (
{
closed = 1;
nodes = (
(192,80,ls),
(192,28,o),
(220,0,o),
(272,0,cs),
(1331,0,ls),
(1836,0,o),
(1984,82,o),
(1984,448,cs),
(1984,658,o),
(1891,809,o),
(1664,832,c),
(1837,844,o),
(1920,973,o),
(1920,1155,cs),
(1920,1456,o),
(1764,1536,o),
(1416,1536,cs),
(272,1536,ls),
(220,1536,o),
(192,1508,o),
(192,1456,cs)
);
},
{
closed = 1;
nodes = (
(384,896,l),
(384,1376,l),
(1416,1376,ls),
(1654,1376,o),
(1728,1357,o),
(1728,1155,cs),
(1728,897,o),
(1588,896,o),
(1279,896,cs)
);
},
{
closed = 1;
nodes = (
(384,160,l),
(384,736,l),
(1279,736,ls),
(1564,736,o),
(1792,730,o),
(1792,448,cs),
(1792,174,o),
(1696,160,o),
(1331,160,cs)
);
}
);
width = 2112;
},
{
anchors = (
{
name = bottom;
pos = (976,0);
},
{
name = center;
pos = (976,768);
},
{
name = top;
pos = (1006,1536);
}
);
layerId = m002;
shapes = (
{
closed = 1;
nodes = (
(192,80,ls),
(192,28,o),
(220,0,o),
(272,0,cs),
(1291,0,ls),
(1796,0,o),
(1984,82,o),
(1984,448,cs),
(1984,658,o),
(1921,809,o),
(1724,832,c),
(1877,844,o),
(1920,973,o),
(1920,1155,cs),
(1920,1456,o),
(1724,1536,o),
(1376,1536,cs),
(272,1536,ls),
(220,1536,o),
(192,1508,o),
(192,1456,cs)
);
},
{
closed = 1;
nodes = (
(624,924,l),
(624,1212,l),
(1246,1212,ls),
(1374,1212,o),
(1438,1190,o),
(1438,1098,cs),
(1438,948,o),
(1428,924,o),
(1209,924,cs)
);
},
{
closed = 1;
nodes = (
(624,324,l),
(624,628,l),
(1213,628,ls),
(1478,628,o),
(1502,581,o),
(1502,495,cs),
(1502,353,o),
(1444,324,o),
(1189,324,cs)
);
}
);
width = 2112;
}
);
note = B;
unicode = 66;
},
{
glyphname = C;
lastChange = "2024-10-06 23:22:41 +0000";
layers = (
{
anchors = (
{
name = bottom;
pos = (1042,0);
},
{
name = top;
pos = (1063,1536);
}
);
layerId = m01;
shapes = (
{
closed = 1;
nodes = (
(128,748,ls),
(128,89,o),
(271,-32,o),
(871,-32,cs),
(1274,-32,ls),
(1790,-32,o),
(1990,22,o),
(2012,436,cs),
(2015,490,o),
(1985,519,o),
(1933,519,cs),
(1901,519,ls),
(1850,519,o),
(1823,491,o),
(1820,438,cs),
(1802,134,o),
(1670,134,o),
(1274,134,cs),
(871,134,ls),
(394,134,o),
(320,182,o),
(320,748,cs),
(320,788,ls),
(320,1374,o),
(394,1402,o),
(871,1402,cs),
(1274,1402,ls),
(1670,1402,o),
(1802,1394,o),
(1820,1088,cs),
(1823,1035,o),
(1850,1007,o),
(1901,1007,cs),
(1933,1007,ls),
(1985,1007,o),
(2015,1036,o),
(2012,1090,cs),
(1990,1505,o),
(1790,1568,o),
(1274,1568,cs),
(871,1568,ls),
(271,1568,o),
(128,1467,o),
(128,788,cs)
);
}
);
width = 2145;
},
{
anchors = (
{
name = bottom;
pos = (1073,0);
},
{
name = top;
pos = (1073,1536);
}
);
layerId = m002;
shapes = (
{
closed = 1;
nodes = (
(128,748,ls),
(128,89,o),
(471,-32,o),
(871,-32,cs),
(1274,-32,ls),
(1670,-32,o),
(1990,22,o),
(2012,436,cs),
(2015,490,o),
(1985,519,o),
(1933,519,cs),
(1661,519,ls),
(1610,519,o),
(1589,491,o),
(1580,438,cs),
(1562,328,o),
(1430,318,o),
(1274,318,cs),
(871,318,ls),
(634,318,o),
(560,436,o),
(560,748,cs),
(560,788,ls),
(560,1090,o),
(634,1218,o),
(871,1218,cs),
(1274,1218,ls),
(1430,1218,o),
(1562,1200,o),
(1580,1088,cs),
(1589,1035,o),
(1610,1007,o),
(1661,1007,cs),
(1933,1007,ls),
(1985,1007,o),
(2015,1036,o),
(2012,1090,cs),
(1990,1505,o),
(1670,1568,o),
(1274,1568,cs),
(871,1568,ls),
(471,1568,o),
(128,1467,o),
(128,788,cs)
);
}
);
width = 2145;
}
);
note = C;
unicode = 67;
},
{
glyphname = D;
lastChange = "2024-10-06 18:00:18 +0000";
layers = (
{
anchors = (
{
name = bottom;
pos = (1104,0);
},
{
name = top;
pos = (1116,1536);
}
);
layerId = m01;
shapes = (
{
closed = 1;
nodes = (
(196,80,ls),
(196,28,o),
(224,0,o),
(276,0,cs),
(1336,0,ls),
(1936,0,o),
(2079,121,o),
(2079,748,cs),
(2079,788,ls),
(2079,1435,o),
(1936,1536,o),
(1336,1536,cs),
(276,1536,ls),
(224,1536,o),
(196,1508,o),
(196,1456,cs)
);
},
{
closed = 1;
nodes = (
(388,166,l),
(388,1370,l),
(1336,1370,ls),
(1813,1370,o),
(1887,1342,o),
(1887,788,cs),
(1887,748,ls),
(1887,214,o),
(1813,166,o),
(1336,166,cs)
);
}
);
width = 2207;
},
{
anchors = (
{
name = bottom;
pos = (1104,0);
},
{
name = top;
pos = (1116,1536);
}
);
layerId = m002;
shapes = (
{
closed = 1;
nodes = (
(196,80,ls),
(196,28,o),
(224,0,o),
(276,0,cs),
(1336,0,ls),
(1936,0,o),
(2079,121,o),
(2079,748,cs),
(2079,788,ls),
(2079,1435,o),
(1936,1536,o),
(1336,1536,cs),
(276,1536,ls),
(224,1536,o),
(196,1508,o),
(196,1456,cs)
);
},
{
closed = 1;
nodes = (
(628,350,l),
(628,1186,l),
(1276,1186,ls),
(1633,1186,o),
(1647,1158,o),
(1647,788,cs),
(1647,748,ls),
(1647,378,o),
(1633,350,o),
(1276,350,cs)
);
}
);
width = 2207;
}
);
note = D;
unicode = 68;
},
{
glyphname = Eth;
lastChange = "2024-10-13 19:32:29 +0000";
layers = (
{
anchors = (
{
name = bottom;
pos = (1135,0);
},
{
name = top;
pos = (1135,1536);
}
);
background = {
shapes = (
{
closed = 1;
nodes = (
(66,864,l),
(194,864,l),
(194,1536,l),
(1345,1536,ls),
(1572,1536,o),
(1737,1508,o),
(1840,1453,cs),
(1892,1425,o),
(1934,1390,o),
(1962,1348,cs),
(2047,1222,o),
(2050,1031,o),
(2050,820,cs),
(2050,768,ls),
(2050,681,o),
(2048,602,o),
(2046,530,cs),
(2039,313,o),
(1986,161,o),
(1840,83,cs),
(1737,28,o),
(1572,0,o),
(1345,0,cs),
(194,0,l),
(194,704,l),
(66,704,l)
);
},
{
closed = 1;
nodes = (
(1345,160,ls),
(1522,160,o),
(1642,172,o),
(1705,196,cs),
(1788,227,o),
(1820,279,o),
(1841,378,cs),
(1852,431,o),
(1858,561,o),
(1858,768,cs),
(1858,975,o),
(1851,1109,o),
(1838,1170,cs),
(1817,1270,o),
(1780,1313,o),
(1686,1348,cs),
(1636,1367,o),
(1522,1376,o),
(1345,1376,cs),
(386,1376,l),
(386,864,l),
(834,864,l),
(834,704,l),
(386,704,l),
(386,160,l)
);
}
);
};
layerId = m01;
shapes = (
{
alignment = -1;
ref = D;
},
{
alignment = -1;
pos = (-64,210);
ref = strokeshortcomb;
}
);
width = 2207;
},
{
anchors = (
{
name = bottom;
pos = (904,0);
},
{
name = top;
pos = (904,1536);
}
);
background = {
shapes = (
{
closed = 1;
nodes = (
(-184,864,l),
(-56,864,l),
(-56,1536,l),
(1095,1536,ls),
(1322,1536,o),
(1487,1508,o),
(1590,1453,cs),
(1642,1425,o),
(1684,1390,o),
(1712,1348,cs),
(1797,1222,o),
(1800,1031,o),
(1800,820,cs),
(1800,768,ls),
(1800,681,o),
(1798,602,o),
(1796,530,cs),
(1789,313,o),
(1736,161,o),
(1590,83,cs),
(1487,28,o),
(1322,0,o),
(1095,0,cs),
(-56,0,l),
(-56,704,l),
(-184,704,l)
);
},
{
closed = 1;
nodes = (
(1095,160,ls),
(1272,160,o),
(1392,172,o),
(1455,196,cs),
(1538,227,o),
(1570,279,o),
(1591,378,cs),
(1602,431,o),
(1608,561,o),
(1608,768,cs),
(1608,975,o),
(1601,1109,o),
(1588,1170,cs),
(1567,1270,o),
(1530,1313,o),
(1436,1348,cs),
(1386,1367,o),
(1272,1376,o),
(1095,1376,cs),
(136,1376,l),
(136,864,l),
(584,864,l),
(584,704,l),
(136,704,l),
(136,160,l)
);
}
);
};
layerId = m002;
shapes = (
{
alignment = -1;
pos = (-92,0);
ref = D;
},
{
alignment = -1;
pos = (-64,210);
ref = strokeshortcomb;
}
);
width = 2115;
}
);
unicode = 208;
},
{
glyphname = E;
lastChange = "2024-11-18 03:27:51 +0000";
layers = (
{
anchors = (
{
name = bottom;
pos = (896,0);
},
{
name = ogonek;
pos = (1633,42);
},
{
name = top;
pos = (896,1536);
},
{
name = topleft;
pos = (20,1536);
}
);
layerId = m01;
shapes = (
{
closed = 1;
nodes = (
(192,80,ls),
(192,28,o),
(220,0,o),
(272,0,cs),
(1648,0,ls),
(1700,0,o),
(1728,28,o),
(1728,80,cs),
(1728,132,o),
(1700,160,o),
(1648,160,cs),
(384,160,l),
(384,704,l),
(1565,704,ls),
(1617,704,o),
(1645,732,o),
(1645,784,cs),
(1645,836,o),
(1617,864,o),
(1565,864,cs),
(384,864,l),
(384,1376,l),
(1620,1376,ls),
(1672,1376,o),
(1700,1404,o),
(1700,1456,cs),
(1700,1508,o),
(1672,1536,o),
(1620,1536,cs),
(272,1536,ls),
(220,1536,o),
(192,1508,o),
(192,1456,cs)
);
}
);
width = 1792;
},
{
anchors = (
{
name = bottom;
pos = (896,0);
},
{
name = ogonek;
pos = (1043,42);
},
{
name = top;
pos = (896,1536);
},
{
name = topleft;
pos = (20,1536);
}
);
layerId = m002;
shapes = (
{
closed = 1;
nodes = (
(192,80,ls),
(192,28,o),
(220,0,o),
(272,0,cs),
(1658,0,ls),
(1720,0,o),
(1728,30,o),
(1728,162,cs),
(1728,294,o),
(1720,324,o),
(1658,324,cs),
(624,324,l),
(624,606,l),
(1575,606,ls),
(1637,606,o),
(1645,636,o),
(1645,768,cs),
(1645,900,o),
(1637,930,o),
(1575,930,cs),
(624,930,l),
(624,1212,l),
(1630,1212,ls),
(1692,1212,o),
(1700,1242,o),
(1700,1374,cs),
(1700,1506,o),
(1692,1536,o),
(1630,1536,cs),
(272,1536,ls),
(220,1536,o),
(192,1508,o),
(192,1456,cs)
);
}
);
width = 1792;
}
);
note = E;
unicode = 69;
},
{
glyphname = F;
lastChange = "2024-11-18 03:27:15 +0000";
layers = (
{
anchors = (
{
name = bottom;
pos = (864,0);
},
{
name = top;
pos = (864,1536);
}
);
layerId = m01;
shapes = (
{
closed = 1;
nodes = (
(192,80,ls),
(192,28,o),
(220,0,o),
(272,0,cs),
(384,0,l),
(384,704,l),
(1503,704,ls),
(1555,704,o),
(1583,732,o),
(1583,784,cs),
(1583,784,ls),
(1583,836,o),
(1555,864,o),
(1503,864,cs),
(384,864,l),
(384,1376,l),
(1560,1376,ls),
(1612,1376,o),
(1640,1404,o),
(1640,1456,cs),
(1640,1456,ls),
(1640,1508,o),
(1612,1536,o),
(1560,1536,cs),
(272,1536,ls),
(220,1536,o),
(192,1508,o),
(192,1456,cs)
);
}
);
width = 1704;
},
{
anchors = (
{
name = bottom;
pos = (864,0);
},
{
name = top;
pos = (864,1536);
}
);
layerId = m002;
shapes = (
{
closed = 1;
nodes = (
(192,80,ls),
(192,28,o),
(220,0,o),
(272,0,cs),
(624,0,l),
(624,607,l),
(1503,607,ls),
(1555,607,o),
(1583,635,o),
(1583,687,cs),
(1583,849,ls),
(1583,901,o),
(1555,929,o),
(1503,929,cs),
(624,929,l),
(624,1212,l),
(1560,1212,ls),
(1612,1212,o),
(1640,1240,o),
(1640,1292,cs),
(1640,1456,ls),
(1640,1508,o),
(1612,1536,o),
(1560,1536,cs),
(272,1536,ls),
(220,1536,o),
(192,1508,o),
(192,1456,cs)
);
}
);
width = 1704;
}
);
note = F;
unicode = 70;
},
{
glyphname = G;
lastChange = "2024-10-06 18:44:24 +0000";
layers = (
{
anchors = (
{
name = bottom;
pos = (1089,0);
},
{
name = top;
pos = (1089,1536);
}
);
layerId = m01;
shapes = (
{
closed = 1;
nodes = (
(128,748,ls),
(128,89,o),
(271,-32,o),
(871,-32,cs),
(1314,-32,ls),
(1862,-32,o),
(2014,69,o),
(2014,589,cs),
(2014,728,ls),
(2014,780,o),
(1986,808,o),
(1934,808,cs),
(1167,808,ls),
(1115,808,o),
(1087,780,o),
(1087,728,cs),
(1087,728,ls),
(1087,676,o),
(1115,648,o),
(1167,648,cs),
(1822,648,l),
(1822,589,ls),
(1822,173,o),
(1755,134,o),
(1314,134,cs),
(871,134,ls),
(394,134,o),
(320,182,o),
(320,748,cs),
(320,788,ls),
(320,1374,o),
(394,1402,o),
(871,1402,cs),
(1247,1402,ls),
(1681,1402,o),
(1787,1396,o),
(1803,1157,cs),
(1806,1105,o),
(1833,1077,o),
(1884,1077,cs),
(1916,1077,ls),
(1968,1077,o),
(1998,1106,o),
(1995,1159,cs),
(1978,1508,o),
(1832,1568,o),
(1247,1568,cs),
(871,1568,ls),
(271,1568,o),
(128,1467,o),
(128,788,cs)
);
}
);
width = 2177;
},
{
anchors = (
{
name = bottom;
pos = (1089,0);
},
{
name = top;
pos = (1089,1536);
}
);
layerId = m002;
shapes = (
{
closed = 1;
nodes = (
(128,748,ls),
(128,89,o),
(271,-32,o),
(871,-32,cs),
(1314,-32,ls),
(1862,-32,o),
(2014,21,o),
(2014,541,cs),
(2014,816,ls),
(2014,868,o),
(1986,896,o),
(1934,896,cs),
(1167,896,ls),
(1115,896,o),
(1087,868,o),
(1087,816,cs),
(1087,680,ls),
(1087,628,o),
(1115,600,o),
(1167,600,cs),
(1598,600,l),
(1598,541,ls),
(1598,325,o),
(1430,318,o),
(1314,318,cs),
(871,318,ls),
(634,318,o),
(560,436,o),
(560,748,cs),
(560,788,ls),
(560,1090,o),
(634,1218,o),
(871,1218,cs),
(1247,1218,ls),
(1430,1218,o),
(1563,1226,o),
(1579,1157,cs),
(1591,1105,o),
(1609,1077,o),
(1660,1077,cs),
(1916,1077,ls),
(1968,1077,o),
(1998,1106,o),
(1995,1159,cs),
(1978,1508,o),
(1832,1568,o),
(1247,1568,cs),
(871,1568,ls),
(271,1568,o),
(128,1467,o),
(128,788,cs)
);
}
);
width = 2177;
}
);
note = G;
unicode = 71;
},
{
glyphname = H;
lastChange = "2024-11-20 21:38:12 +0000";
layers = (
{
anchors = (
{
name = bottom;
pos = (1088,0);
},
{
name = top;
pos = (1088,1536);
}
);
layerId = m01;
shapes = (
{
closed = 1;
nodes = (
(192,80,ls),
(192,28,o),
(220,0,o),
(272,0,cs),
(304,0,ls),
(356,0,o),
(384,28,o),
(384,80,cs),
(384,688,l),
(1792,688,l),
(1792,80,ls),
(1792,28,o),
(1820,0,o),
(1872,0,cs),
(1904,0,ls),
(1956,0,o),
(1984,28,o),
(1984,80,cs),
(1984,1456,ls),
(1984,1508,o),
(1956,1536,o),
(1904,1536,cs),
(1872,1536,ls),
(1820,1536,o),
(1792,1508,o),
(1792,1456,cs),
(1792,848,l),
(384,848,l),
(384,1456,ls),
(384,1508,o),
(356,1536,o),
(304,1536,cs),
(272,1536,ls),
(220,1536,o),
(192,1508,o),
(192,1456,cs)
);
}
);
width = 2176;
},
{
anchors = (
{
name = bottom;
pos = (1088,0);
},
{
name = top;
pos = (1088,1536);
}
);
layerId = m002;
shapes = (
{
closed = 1;
nodes = (
(192,80,ls),
(192,28,o),
(220,0,o),
(272,0,cs),
(544,0,ls),
(596,0,o),
(624,28,o),
(624,80,cs),
(624,606,l),
(1552,606,l),
(1552,80,ls),
(1552,28,o),
(1580,0,o),
(1632,0,cs),
(1904,0,ls),
(1956,0,o),
(1984,28,o),
(1984,80,cs),
(1984,1456,ls),
(1984,1508,o),
(1956,1536,o),
(1904,1536,cs),
(1632,1536,ls),
(1580,1536,o),
(1552,1508,o),
(1552,1456,cs),
(1552,930,l),
(624,930,l),
(624,1456,ls),
(624,1508,o),
(596,1536,o),
(544,1536,cs),
(272,1536,ls),
(220,1536,o),
(192,1508,o),
(192,1456,cs)
);
}
);
width = 2176;
}
);
note = H;
unicode = 72;
},
{
glyphname = I;
lastChange = "2024-11-18 01:18:23 +0000";
layers = (
{
anchors = (
{
name = bottom;
pos = (224,0);
},
{
name = ogonek;
pos = (313,20);
},
{
name = top;
pos = (224,1536);
},
{
name = topleft;
pos = (-44,1536);
}
);
layerId = m01;
shapes = (
{
closed = 1;
nodes = (
(240,0,ls),
(292,0,o),
(320,28,o),
(320,80,cs),
(320,1456,ls),
(320,1508,o),
(292,1536,o),
(240,1536,cs),
(208,1536,ls),
(156,1536,o),
(128,1508,o),
(128,1456,cs),
(128,80,ls),
(128,28,o),
(156,0,o),
(208,0,cs)
);
}
);
width = 448;
},
{
anchors = (
{
name = bottom;
pos = (344,0);
},
{
name = ogonek;
pos = (424,42);
},
{
name = top;
pos = (344,1536);
},
{
name = topleft;
pos = (76,1536);
}
);
layerId = m002;
shapes = (
{
closed = 1;
nodes = (
(480,0,ls),
(532,0,o),
(560,28,o),
(560,80,cs),
(560,1456,ls),
(560,1508,o),
(532,1536,o),
(480,1536,cs),
(208,1536,ls),
(156,1536,o),
(128,1508,o),
(128,1456,cs),
(128,80,ls),
(128,28,o),
(156,0,o),
(208,0,cs)
);
}
);
width = 688;
}
);
note = I;
unicode = 73;
},
{
glyphname = J;
lastChange = "2024-10-14 05:31:20 +0000";
layers = (
{
anchors = (
{
name = bottom;
pos = (858,0);
},
{
name = top;
pos = (1441,1536);
}
);
layerId = m01;
shapes = (
{
closed = 1;
nodes = (
(1024,0,ls),
(1214,0,o),
(1347,35,o),
(1424,104,cs),
(1499,171,o),
(1536,286,o),
(1536,448,cs),
(1536,1456,ls),
(1536,1508,o),
(1508,1536,o),
(1456,1536,cs),
(1424,1536,ls),
(1372,1536,o),
(1344,1508,o),
(1344,1456,cs),
(1344,448,ls),
(1344,223,o),
(1255,156,o),
(1024,156,cs),
(576,156,ls),
(344,156,o),
(330,260,o),
(320,512,cs),
(318,553,o),
(292,576,o),
(240,576,cs),
(208,576,ls),
(156,576,o),
(128,553,o),
(128,512,cs),
(128,416,o),
(133,335,o),
(144,270,cs),
(179,56,o),
(321,0,o),
(576,0,cs)
);
}
);
width = 1715;
},
{
anchors = (
{
name = bottom;
pos = (858,0);
},
{
name = top;
pos = (1320,1536);
}
);
layerId = m002;
shapes = (
{
closed = 1;
nodes = (
(1024,0,ls),
(1214,0,o),
(1347,35,o),
(1424,104,cs),
(1499,171,o),
(1536,286,o),
(1536,448,cs),
(1536,1456,ls),
(1536,1508,o),
(1508,1536,o),
(1456,1536,cs),
(1184,1536,ls),
(1132,1536,o),
(1104,1508,o),
(1104,1456,cs),
(1104,548,ls),
(1104,443,o),
(1055,326,o),
(864,326,cs),
(776,326,ls),
(576,326,o),
(570,446,o),
(560,512,cs),
(554,553,o),
(532,576,o),
(480,576,cs),
(208,576,ls),
(156,576,o),
(128,553,o),
(128,512,cs),
(128,416,o),
(133,335,o),
(144,270,cs),
(179,56,o),
(361,0,o),
(616,0,cs)
);
}
);
width = 1715;
}
);
note = J;
unicode = 74;
},
{
glyphname = K;
lastChange = "2024-10-13 23:36:10 +0000";
layers = (
{
anchors = (
{
name = bottom;
pos = (1008,0);
},
{
name = top;
pos = (1008,1536);
}
);
layerId = m01;
shapes = (
{
closed = 1;
nodes = (
(192,80,ls),
(192,28,o),
(220,0,o),
(272,0,cs),
(304,0,ls),
(356,0,o),
(384,28,o),
(384,80,cs),
(384,704,l),
(640,704,l),
(1619,31,ls),
(1651,9,o),
(1679,0,o),
(1718,0,cs),
(1808,0,ls),
(1873,0,o),
(1876,53,o),
(1812,98,cs),
(832,784,l),
(1779,1438,ls),
(1842,1482,o),
(1825,1536,o),
(1748,1536,cs),
(1686,1536,ls),
(1647,1536,o),
(1619,1528,o),
(1587,1506,cs),
(639,864,l),
(384,864,l),
(384,1456,ls),
(384,1508,o),
(356,1536,o),
(304,1536,cs),
(272,1536,ls),
(220,1536,o),
(192,1508,o),
(192,1456,cs)
);
}
);
width = 1922;
},
{
anchors = (
{
name = bottom;
pos = (1008,0);
},
{
name = top;
pos = (1008,1536);
}
);
layerId = m002;
shapes = (
{
closed = 1;
nodes = (
(192,80,ls),
(192,28,o),
(220,0,o),
(272,0,cs),
(544,0,ls),
(596,0,o),
(624,28,o),
(624,80,cs),
(624,636,l),
(760,636,l),
(1395,31,ls),
(1425,2,o),
(1455,0,o),
(1494,0,cs),
(1804,0,ls),
(1869,0,o),
(1864,42,o),
(1808,98,cs),
(1122,784,l),
(1776,1438,ls),
(1832,1494,o),
(1822,1536,o),
(1745,1536,cs),
(1462,1536,ls),
(1423,1536,o),
(1394,1535,o),
(1363,1506,cs),
(759,932,l),
(624,932,l),
(624,1456,ls),
(624,1508,o),
(596,1536,o),
(544,1536,cs),
(272,1536,ls),
(220,1536,o),
(192,1508,o),
(192,1456,cs)
);
}
);
width = 1922;
}
);
note = K;
unicode = 75;
},
{
glyphname = L;
lastChange = "2024-10-28 22:06:05 +0000";
layers = (
{
anchors = (
{
name = bottom;
pos = (896,0);
},
{
name = center;
pos = (288,768);
},
{
name = top;
pos = (288,1536);
},
{
name = topright;
pos = (1644,1536);
}
);
layerId = m01;
shapes = (
{
closed = 1;
nodes = (
(192,80,ls),
(192,28,o),
(220,0,o),
(272,0,cs),
(1520,0,ls),
(1572,0,o),
(1600,28,o),
(1600,80,cs),
(1600,80,ls),
(1600,132,o),
(1572,160,o),
(1520,160,cs),
(384,160,l),
(384,1456,ls),
(384,1508,o),
(356,1536,o),
(304,1536,cs),
(272,1536,ls),
(220,1536,o),
(192,1508,o),
(192,1456,cs)
);
}
);
width = 1664;
},
{
anchors = (
{
name = bottom;
pos = (896,0);
},
{
name = center;
pos = (408,768);
},
{
name = top;
pos = (408,1536);
},
{
name = topright;
pos = (1644,1536);
}
);
layerId = m002;
shapes = (
{
closed = 1;
nodes = (
(192,80,ls),
(192,28,o),
(220,0,o),
(272,0,cs),
(1520,0,ls),
(1572,0,o),
(1600,28,o),
(1600,80,cs),
(1600,244,ls),
(1600,296,o),
(1572,324,o),
(1520,324,cs),
(624,324,l),
(624,1456,ls),
(624,1508,o),
(596,1536,o),
(544,1536,cs),
(272,1536,ls),
(220,1536,o),
(192,1508,o),
(192,1456,cs)
);
}
);
width = 1664;
}
);
note = L;
unicode = 76;
},
{
glyphname = M;
lastChange = "2024-10-28 23:01:53 +0000";
layers = (
{
anchors = (
{
name = bottom;
pos = (1404,0);
},
{
name = top;
pos = (1404,1536);
}
);
layerId = m01;
shapes = (
{
closed = 1;
nodes = (
(196,80,ls),
(196,28,o),
(224,0,o),
(276,0,cs),
(308,0,ls),
(360,0,o),
(388,28,o),
(388,80,cs),
(388,1362,l),
(1293,150,ls),
(1318,116,o),
(1348,101,o),
(1390,101,cs),
(1442,101,ls),
(1484,101,o),
(1514,116,o),
(1539,150,cs),
(2420,1362,l),
(2420,80,ls),
(2420,28,o),
(2448,0,o),
(2500,0,cs),
(2532,0,ls),
(2584,0,o),
(2612,28,o),
(2612,80,cs),
(2612,1456,ls),
(2612,1508,o),
(2584,1536,o),
(2532,1536,cs),
(2387,1536,ls),
(2345,1536,o),
(2315,1521,o),
(2290,1487,cs),
(1411,283,l),
(518,1487,ls),
(493,1521,o),
(463,1536,o),
(421,1536,cs),
(276,1536,ls),
(224,1536,o),
(196,1508,o),
(196,1456,cs)
);
}
);
width = 2808;
},
{
anchors = (
{
name = bottom;
pos = (1415,0);
},
{
name = top;
pos = (1415,1536);
}
);
layerId = m002;
shapes = (
{
closed = 1;
nodes = (
(202,80,ls),
(202,28,o),
(230,0,o),
(282,0,cs),
(548,0,ls),
(600,0,o),
(628,28,o),
(628,80,cs),
(628,1176,l),
(1081,150,ls),
(1096,116,o),
(1136,101,o),
(1178,101,cs),
(1652,101,ls),
(1694,101,o),
(1734,116,o),
(1749,150,cs),
(2202,1176,l),
(2202,80,ls),
(2202,28,o),
(2230,0,o),
(2282,0,cs),
(2548,0,ls),
(2600,0,o),
(2628,28,o),
(2628,80,cs),
(2628,1456,ls),
(2628,1508,o),
(2600,1536,o),
(2548,1536,cs),
(1965,1536,ls),
(1923,1536,o),
(1882,1521,o),
(1868,1487,cs),
(1415,407,l),
(962,1487,ls),
(948,1521,o),
(907,1536,o),
(865,1536,cs),
(282,1536,ls),
(230,1536,o),
(202,1508,o),
(202,1456,cs)
);
}
);
width = 2830;
}
);
note = M;
unicode = 77;
},
{
glyphname = N;
lastChange = "2024-10-06 20:02:48 +0000";
layers = (
{
anchors = (
{
name = bottom;
pos = (1161,0);
},
{
name = top;
pos = (1161,1536);
}
);
layerId = m01;
shapes = (
{
closed = 1;
nodes = (
(192,80,ls),
(192,28,o),
(220,0,o),
(272,0,cs),
(304,0,ls),
(356,0,o),
(384,28,o),
(384,80,cs),
(384,1310,l),
(386,1310,l),
(1886,36,ls),
(1916,10,o),
(1945,0,o),
(1985,0,cs),
(2049,0,ls),
(2101,0,o),
(2129,28,o),
(2129,80,cs),
(2129,1456,ls),
(2129,1508,o),
(2101,1536,o),
(2049,1536,cs),
(2017,1536,ls),
(1965,1536,o),
(1937,1508,o),
(1937,1456,cs),
(1937,237,l),
(1935,237,l),
(435,1500,ls),
(405,1526,o),
(376,1536,o),
(336,1536,cs),
(272,1536,ls),
(220,1536,o),
(192,1508,o),
(192,1456,cs)
);
}
);
width = 2321;
},
{
anchors = (
{
name = bottom;
pos = (1161,0);
},
{
name = top;
pos = (1161,1536);
}
);
layerId = m002;
shapes = (
{
closed = 1;
nodes = (
(192,80,ls),
(192,28,o),
(220,0,o),
(272,0,cs),
(544,0,ls),
(596,0,o),
(624,28,o),
(624,80,cs),
(624,1230,l),
(626,1230,l),
(1376,36,ls),
(1395,6,o),
(1435,0,o),
(1475,0,cs),
(2049,0,ls),
(2101,0,o),
(2129,28,o),
(2129,80,cs),
(2129,1456,ls),
(2129,1508,o),
(2101,1536,o),
(2049,1536,cs),
(1777,1536,ls),
(1725,1536,o),
(1697,1508,o),
(1697,1456,cs),
(1697,306,l),
(1695,306,l),
(945,1500,ls),
(925,1532,o),
(886,1536,o),
(846,1536,cs),
(272,1536,ls),
(220,1536,o),
(192,1508,o),
(192,1456,cs)
);
}
);
width = 2321;
}
);
note = N;
unicode = 78;
},
{
glyphname = O;
lastChange = "2024-11-03 16:39:19 +0000";
layers = (
{
anchors = (
{
name = bottom;
pos = (1073,0);
},
{
name = center;
pos = (1073,768);
},
{
name = ogonek;
pos = (1931,10);
},
{
name = top;
pos = (1073,1536);
},
{
name = topleft;
pos = (20,1536);
},
{
name = topright;
pos = (2125,1536);
}
);
layerId = m01;
shapes = (
{
closed = 1;
nodes = (
(1274,-32,ls),
(1874,-32,o),
(2017,89,o),
(2017,748,cs),
(2017,788,ls),
(2017,1467,o),
(1874,1568,o),
(1274,1568,cs),
(871,1568,ls),
(271,1568,o),
(128,1467,o),
(128,788,cs),
(128,748,ls),
(128,89,o),
(271,-32,o),
(871,-32,cs)
);
},
{
closed = 1;
nodes = (
(871,134,ls),
(394,134,o),
(320,182,o),
(320,748,cs),
(320,788,ls),
(320,1374,o),
(394,1402,o),
(871,1402,cs),
(1274,1402,ls),
(1751,1402,o),
(1825,1374,o),
(1825,788,cs),
(1825,748,ls),
(1825,182,o),
(1751,134,o),
(1274,134,cs)
);
}
);
width = 2145;
},
{
anchors = (
{
name = bottom;
pos = (1073,0);
},
{
name = center;
pos = (1073,768);
},
{
name = ogonek;
pos = (1221,10);
},
{
name = top;
pos = (1073,1568);
},
{
name = topleft;
pos = (20,1536);
},
{
name = topright;
pos = (2005,1286);
}
);
layerId = m002;
shapes = (
{
closed = 1;
nodes = (
(1273,-32,ls),
(1873,-32,o),
(2016,89,o),
(2016,748,cs),
(2016,788,ls),
(2016,1467,o),
(1873,1568,o),
(1273,1568,cs),
(871,1568,ls),
(271,1568,o),
(128,1467,o),
(128,788,cs),
(128,748,ls),
(128,89,o),
(271,-32,o),
(871,-32,cs)
);
},
{
closed = 1;
nodes = (
(929,318,ls),
(613,318,o),
(560,352,o),
(560,754,cs),
(560,782,ls),
(560,1198,o),
(613,1218,o),
(929,1218,cs),
(1215,1218,ls),
(1531,1218,o),
(1584,1198,o),
(1584,782,cs),
(1584,754,ls),
(1584,352,o),
(1531,318,o),
(1215,318,cs)
);
}
);
width = 2145;
}
);
note = O;
unicode = 79;
},
{
glyphname = OE;
lastChange = "2024-10-15 05:26:20 +0000";
layers = (
{
anchors = (
{
name = ogonek;
pos = (3633,21);
},
{
name = "topright@ascender";
pos = (1385,1344);
}
);
layerId = m01;
shapes = (
{
alignment = -1;
pos = (1633,0);
ref = E;
},
{
closed = 1;
nodes = (
(1558,-32,o),
(1727,1,o),
(1824,132,c),
(1824,1415,l),
(1727,1544,o),
(1578,1568,o),
(1071,1568,cs),
(275,1568,o),
(126,1534,o),
(126,774,cs),
(126,-6,o),
(335,-32,o),
(1051,-32,cs)
);
},
{
closed = 1;
nodes = (
(1824,150,o),
(1845,138,o),
(1051,138,cs),
(365,138,o),
(318,145,o),
(318,774,cs),
(318,1380,o),
(335,1410,o),
(1071,1410,cs),
(1845,1410,o),
(1824,1388,o),
(1824,766,cs)
);
}
);
width = 3425;
},
{
anchors = (
{
name = ogonek;
pos = (3633,21);
},
{
name = "topright@ascender";
pos = (1385,1344);
}
);
layerId = m002;
shapes = (
{
alignment = -1;
pos = (1633,0);
ref = E;
},
{
closed = 1;
nodes = (
(1558,-32,o),
(1727,1,o),
(1824,132,c),
(1824,1365,l),
(1727,1494,o),
(1578,1568,o),
(1311,1568,cs),
(275,1568,o),
(126,1534,o),
(126,774,cs),
(126,-6,o),
(335,-32,o),
(1291,-32,cs)
);
},
{
closed = 1;
nodes = (
(1594,330,o),
(1505,318,o),
(1151,318,cs),
(575,318,o),
(558,335,o),
(558,774,cs),
(558,1210,o),
(585,1220,o),
(1131,1220,cs),
(1545,1220,o),
(1594,1198,o),
(1594,766,cs)
);
}
);
width = 3425;
}
);
unicode = 338;
},
{
glyphname = R;
lastChange = "2024-11-20 21:45:33 +0000";
layers = (
{
anchors = (
{
name = bottom;
pos = (1044,0);
},
{
name = top;
pos = (1004,1536);
}
);
layerId = m01;
shapes = (
{
closed = 1;
nodes = (
(1816,0,ls),
(1868,0,o),
(1928,18,o),
(1887,60,cs),
(1345,616,l),
(1131,616,l),
(1673,60,ls),
(1714,18,o),
(1734,0,o),
(1786,0,cs)
);
},
{
ref = P;
},
{
closed = 1;
nodes = (
);
},
{
closed = 1;
nodes = (
);
}
);
width = 2087;
},
{
anchors = (
{
name = bottom;
pos = (1044,0);
},
{
name = top;
pos = (1004,1536);
}
);
layerId = m002;
shapes = (
{
closed = 1;
nodes = (
(1806,0,ls),
(1858,0,o),
(1907,18,o),
(1877,60,cs),
(1520,556,l),
(1102,556,l),
(1459,60,ls),
(1489,18,o),
(1510,0,o),
(1562,0,cs)
);
},
{
ref = P;
}
);
width = 1991;
}
);
note = R;
unicode = 82;
},
{
glyphname = S;
lastChange = "2024-11-18 02:36:59 +0000";
layers = (
{
anchors = (
{
name = bottom;
pos = (1070,0);
},
{
name = top;
pos = (1070,1536);
}
);
layerId = m01;
shapes = (
{
closed = 1;
nodes = (
(1827,178,o),
(1788,134,o),
(1310,134,cs),
(852,134,ls),
(457,134,o),
(342,163,o),
(326,428,cs),
(323,481,o),
(296,509,o),
(245,509,cs),
(213,509,ls),
(161,509,o),
(131,480,o),
(134,426,cs),
(154,52,o),
(337,-32,o),
(852,-32,cs),
(1320,-32,ls),
(1921,-32,o),
(2019,85,o),
(2019,444,cs),
(2019,774,o),
(1952,865,o),
(1391,873,cs),
(795,881,ls),
(358,887,o),
(324,916,o),
(324,1132,cs),
(324,1388,o),
(388,1402,o),
(865,1402,cs),
(1283,1402,ls),
(1644,1402,o),
(1775,1398,o),
(1794,1158,cs),
(1798,1105,o),
(1825,1077,o),
(1876,1077,cs),
(1908,1077,ls),
(1960,1077,o),
(1990,1106,o),
(1987,1160,cs),
(1967,1511,o),
(1793,1568,o),
(1283,1568,cs),
(855,1568,ls),
(255,1568,o),
(132,1481,o),
(132,1132,cs),
(132,813,o),
(209,718,o),
(759,710,cs),
(1315,702,ls),
(1793,695,o),
(1827,681,o),
(1827,444,cs)
);
}
);
width = 2147;
},
{
anchors = (
{
name = bottom;
pos = (1070,0);
},
{
name = top;
pos = (1070,1536);
}
);
layerId = m002;
shapes = (
{
closed = 1;
nodes = (
(1587,363,o),
(1548,318,o),
(1310,318,cs),
(852,318,ls),
(697,318,o),
(585,388,o),
(566,428,cs),
(542,478,o),
(536,509,o),
(485,509,cs),
(213,509,ls),
(161,509,o),
(131,480,o),
(134,426,cs),
(154,52,o),
(337,-32,o),
(852,-32,cs),
(1320,-32,ls),
(1921,-32,o),
(2019,85,o),
(2019,444,cs),
(2019,774,o),
(1952,928,o),
(1391,936,cs),
(795,944,ls),
(598,947,o),
(564,975,o),
(564,1082,cs),
(564,1198,o),
(628,1218,o),
(865,1218,cs),
(1269,1218,ls),
(1430,1218,o),
(1536,1198,o),
(1555,1158,cs),
(1578,1109,o),
(1586,1077,o),
(1637,1077,cs),
(1908,1077,ls),
(1960,1077,o),
(1990,1106,o),
(1987,1160,cs),
(1967,1511,o),
(1793,1568,o),
(1283,1568,cs),
(855,1568,ls),
(255,1568,o),
(132,1481,o),
(132,1132,cs),
(132,813,o),
(209,656,o),
(759,648,cs),
(1315,640,ls),
(1553,637,o),
(1587,586,o),
(1587,479,cs)
);
}
);
width = 2147;
}
);
note = S;
unicode = 83;
},
{
glyphname = T;
lastChange = "2024-11-20 21:37:57 +0000";
layers = (
{
anchors = (
{
name = bottom;
pos = (960,0);
},
{
name = center;
pos = (960,768);
},
{
name = top;
pos = (960,1536);
}
);
layerId = m01;
shapes = (
{
closed = 1;
nodes = (
(864,80,ls),
(864,28,o),
(892,0,o),
(944,0,cs),
(976,0,ls),
(1028,0,o),
(1056,28,o),
(1056,80,cs),
(1056,1376,l),
(1744,1376,ls),
(1796,1376,o),
(1824,1404,o),
(1824,1456,cs),
(1824,1508,o),
(1796,1536,o),
(1744,1536,cs),
(176,1536,ls),
(124,1536,o),
(96,1508,o),
(96,1456,cs),
(96,1404,o),
(124,1376,o),
(176,1376,cs),
(864,1376,l)
);
}
);
width = 1920;
},
{
anchors = (
{
name = bottom;
pos = (960,0);
},
{
name = center;
pos = (960,768);
},
{
name = top;
pos = (960,1536);
}
);
layerId = m002;
shapes = (
{
closed = 1;
nodes = (
(744,80,ls),
(744,28,o),
(772,0,o),
(824,0,cs),
(1096,0,ls),
(1148,0,o),
(1176,28,o),
(1176,80,cs),
(1176,1212,l),
(1744,1212,ls),
(1816,1212,o),
(1824,1242,o),
(1824,1374,cs),
(1824,1506,o),
(1816,1536,o),
(1744,1536,cs),
(176,1536,ls),
(104,1536,o),
(96,1506,o),
(96,1374,cs),
(96,1242,o),
(104,1212,o),
(176,1212,cs),
(744,1212,l)
);
}
);
width = 1920;
}
);
note = T;
unicode = 84;
},
{
glyphname = U;
lastChange = "2024-11-03 16:39:32 +0000";
layers = (
{
anchors = (
{
name = bottom;
pos = (1060,0);
},
{
name = ogonek;
pos = (1710,42);
},
{
name = top;
pos = (1060,1536);
},
{
name = topright;
pos = (1938,1402);
}
);
layerId = m01;
shapes = (
{
closed = 1;
nodes = (
(1241,-32,ls),
(1841,-32,o),
(1984,89,o),
(1984,748,cs),
(1984,1456,ls),
(1984,1508,o),
(1956,1536,o),
(1904,1536,cs),
(1872,1536,ls),
(1820,1536,o),
(1792,1508,o),
(1792,1456,cs),
(1792,748,ls),
(1792,181,o),
(1716,134,o),
(1241,134,cs),
(879,134,ls),
(404,134,o),
(328,181,o),
(328,748,cs),
(328,1456,ls),
(328,1508,o),
(300,1536,o),
(248,1536,cs),
(216,1536,ls),
(164,1536,o),
(136,1508,o),
(136,1456,cs),
(136,748,ls),
(136,89,o),
(279,-32,o),
(879,-32,cs)
);
}
);
width = 2120;
},
{
anchors = (
{
name = bottom;
pos = (1060,0);
},
{
name = ogonek;
pos = (1210,32);
},
{
name = top;
pos = (1060,1536);
},
{
name = topright;
pos = (1943,1382);
}
);
layerId = m002;
shapes = (
{
closed = 1;
nodes = (
(1241,-32,ls),
(1841,-32,o),
(1984,89,o),
(1984,748,cs),
(1984,1456,ls),
(1984,1508,o),
(1956,1536,o),
(1904,1536,cs),
(1632,1536,ls),
(1580,1536,o),
(1552,1508,o),
(1552,1456,cs),
(1552,748,ls),
(1552,365,o),
(1476,318,o),
(1241,318,cs),
(879,318,ls),
(644,318,o),
(568,365,o),
(568,748,cs),
(568,1456,ls),
(568,1508,o),
(540,1536,o),
(488,1536,cs),
(216,1536,ls),
(164,1536,o),
(136,1508,o),
(136,1456,cs),
(136,748,ls),
(136,89,o),
(279,-32,o),
(879,-32,cs)
);
}
);
width = 2120;
}
);
note = U;
unicode = 85;
},
{
glyphname = V;
lastChange = "2024-11-20 21:37:47 +0000";
layers = (
{
anchors = (
{
name = bottom;
pos = (1056,0);
},
{
name = top;
pos = (1056,1536);
}
);
layerId = m01;
shapes = (
{
closed = 1;
nodes = (
(888,57,ls),
(911,17,o),
(939,0,o),
(983,0,cs),
(1131,0,ls),
(1175,0,o),
(1202,17,o),
(1225,57,cs),
(2025,1441,ls),
(2057,1497,o),
(2031,1536,o),
(1968,1536,cs),
(1928,1536,ls),
(1884,1536,o),
(1856,1519,o),
(1833,1479,cs),
(1057,160,l),
(281,1479,ls),
(258,1519,o),
(230,1536,o),
(186,1536,cs),
(143,1536,ls),
(80,1536,o),
(54,1497,o),
(86,1441,cs)
);
}
);
width = 2111;
},
{
anchors = (
{
name = bottom;
pos = (1060,0);
},
{
name = top;
pos = (1060,1536);
}
);
layerId = m002;
shapes = (
{
closed = 1;
nodes = (
(722,57,ls),
(740,17,o),
(773,0,o),
(817,0,cs),
(1304,0,ls),
(1348,0,o),
(1380,17,o),
(1398,57,cs),
(2037,1441,ls),
(2063,1497,o),
(2043,1536,o),
(1980,1536,cs),
(1688,1536,ls),
(1644,1536,o),
(1612,1519,o),
(1593,1479,cs),
(1060,320,l),
(527,1479,ls),
(508,1519,o),
(476,1536,o),
(432,1536,cs),
(140,1536,ls),
(77,1536,o),
(57,1497,o),
(83,1441,cs)
);
}
);
width = 2120;
}
);
note = V;
unicode = 86;
},
{
glyphname = W;
lastChange = "2024-10-20 19:53:17 +0000";
layers = (
{
anchors = (
{
name = bottom;
pos = (1663,0);
},
{
name = top;
pos = (1663,1536);
}
);
layerId = m01;
shapes = (
{
closed = 1;
nodes = (
(756,60,ls),
(776,19,o),
(805,0,o),
(850,0,cs),
(973,0,ls),
(1018,0,o),
(1047,18,o),
(1066,60,cs),
(1663,1376,l),
(2260,60,ls),
(2279,18,o),
(2308,0,o),
(2353,0,cs),
(2476,0,ls),
(2521,0,o),
(2550,19,o),
(2570,60,cs),
(3235,1442,ls),
(3262,1497,o),
(3235,1536,o),
(3174,1536,cs),
(3122,1536,ls),
(3077,1536,o),
(3048,1516,o),
(3029,1475,cs),
(2415,160,l),
(1802,1476,ls),
(1783,1518,o),
(1754,1536,o),
(1709,1536,cs),
(1617,1536,ls),
(1572,1536,o),
(1543,1518,o),
(1524,1476,cs),
(911,160,l),
(297,1477,ls),
(278,1517,o),
(249,1536,o),
(204,1536,cs),
(152,1536,ls),
(90,1536,o),
(64,1498,o),
(91,1442,cs)
);
}
);
width = 3325;
},
{
anchors = (
{
name = bottom;
pos = (1661,0);
},
{
name = top;
pos = (1661,1536);
}
);
layerId = m002;
shapes = (
{
closed = 1;
nodes = (
(553,60,ls),
(567,19,o),
(602,0,o),
(647,0,cs),
(1174,0,ls),
(1219,0,o),
(1253,18,o),
(1267,60,cs),
(1661,1216,l),
(2055,60,ls),
(2069,18,o),
(2103,0,o),
(2148,0,cs),
(2676,0,ls),
(2721,0,o),
(2755,19,o),
(2769,60,cs),
(3234,1441,ls),
(3253,1496,o),
(3237,1536,o),
(3175,1536,cs),
(2884,1536,ls),
(2839,1536,o),
(2805,1518,o),
(2791,1477,cs),
(2397,320,l),
(2003,1477,ls),
(1989,1519,o),
(1955,1536,o),
(1910,1536,cs),
(1412,1536,ls),
(1367,1536,o),
(1333,1519,o),
(1319,1477,cs),
(925,320,l),
(531,1477,ls),
(517,1517,o),
(483,1536,o),
(438,1536,cs),
(147,1536,ls),
(85,1536,o),
(69,1497,o),
(88,1441,cs)
);
}
);
width = 3322;
}
);
note = W;
unicode = 87;
},
{
glyphname = X;
lastChange = "2024-10-14 00:31:17 +0000";
layers = (
{
anchors = (
{
name = bottom;
pos = (1011,0);
},
{
name = top;
pos = (1011,1536);
}
);
layerId = m01;
shapes = (
{
closed = 1;
nodes = (
(93,99,ls),
(39,51,o),
(65,0,o),
(132,0,cs),
(199,0,ls),
(239,0,o),
(268,12,o),
(298,39,cs),
(1011,677,l),
(1724,39,ls),
(1754,12,o),
(1783,0,o),
(1823,0,cs),
(1890,0,ls),
(1957,0,o),
(1983,51,o),
(1929,99,cs),
(1147,799,l),
(1861,1438,ls),
(1915,1487,o),
(1902,1536,o),
(1835,1536,cs),
(1756,1536,ls),
(1716,1536,o),
(1687,1525,o),
(1657,1498,cs),
(1011,921,l),
(365,1498,ls),
(335,1525,o),
(306,1536,o),
(266,1536,cs),
(187,1536,ls),
(120,1536,o),
(107,1487,o),
(161,1438,cs),
(875,799,l)
);
}
);
width = 2022;
},
{
anchors = (
{
name = bottom;
pos = (993,0);
},
{
name = top;
pos = (993,1536);
}
);
layerId = m002;
shapes = (
{
closed = 1;
nodes = (
(77,99,ls),
(28,43,o),
(49,0,o),
(116,0,cs),
(506,0,ls),
(546,0,o),
(579,7,o),
(605,39,cs),
(993,518,l),
(1381,39,ls),
(1407,7,o),
(1440,0,o),
(1480,0,cs),
(1870,0,ls),
(1937,0,o),
(1958,43,o),
(1909,99,cs),
(1295,792,l),
(1843,1438,ls),
(1890,1493,o),
(1884,1536,o),
(1817,1536,cs),
(1428,1536,ls),
(1388,1536,o),
(1353,1529,o),
(1329,1498,cs),
(993,1066,l),
(657,1498,ls),
(634,1528,o),
(598,1536,o),
(558,1536,cs),
(169,1536,ls),
(102,1536,o),
(96,1493,o),
(143,1438,cs),
(691,792,l)
);
}
);
width = 1986;
}
);
note = X;
unicode = 88;
},
{
glyphname = Y;
lastChange = "2024-10-06 23:13:43 +0000";
layers = (
{
anchors = (
{
name = bottom;
pos = (1021,0);
},
{
name = top;
pos = (1021,1536);
},
{
name = topleft;
pos = (20,1536);
}
);
layerId = m01;
shapes = (
{
closed = 1;
nodes = (
(1038,0,ls),
(1090,0,o),
(1118,28,o),
(1118,80,cs),
(1118,640,l),
(1887,1438,ls),
(1936,1489,o),
(1916,1536,o),
(1845,1536,cs),
(1784,1536,ls),
(1743,1536,o),
(1714,1523,o),
(1686,1493,cs),
(1022,784,l),
(358,1493,ls),
(330,1523,o),
(301,1536,o),
(260,1536,cs),
(190,1536,ls),
(124,1536,o),
(108,1489,o),
(157,1438,cs),
(926,640,l),
(926,80,ls),
(926,28,o),
(954,0,o),
(1006,0,cs)
);
}
);
width = 2042;
},
{
anchors = (
{
name = bottom;
pos = (1131,0);
},
{
name = top;
pos = (1131,1536);
},
{
name = topleft;
pos = (135,1536);
}
);
layerId = m002;
shapes = (
{
closed = 1;
nodes = (
(1268,0,ls),
(1320,0,o),
(1348,28,o),
(1348,80,cs),
(1348,614,l),
(2107,1438,ls),
(2155,1491,o),
(2136,1536,o),
(2065,1536,cs),
(1763,1536,ls),
(1722,1536,o),
(1693,1524,o),
(1665,1493,cs),
(1132,908,l),
(589,1503,ls),
(561,1534,o),
(532,1536,o),
(491,1536,cs),
(190,1536,ls),
(124,1536,o),
(109,1491,o),
(157,1438,cs),
(916,614,l),
(916,80,ls),
(916,28,o),
(944,0,o),
(996,0,cs)
);
}
);
width = 2262;
}
);
note = Y;
unicode = 89;
},
{
glyphname = Z;
lastChange = "2024-10-06 23:12:52 +0000";
layers = (
{
anchors = (
{
name = bottom;
pos = (1023,0);
},
{
name = top;
pos = (1023,1536);
}
);
layerId = m01;
shapes = (
{
closed = 1;
nodes = (
(128,80,ls),
(128,28,o),
(156,0,o),
(208,0,cs),
(1840,0,ls),
(1892,0,o),
(1920,28,o),
(1920,80,cs),
(1920,80,ls),
(1920,132,o),
(1892,160,o),
(1840,160,cs),
(394,160,l),
(1842,1338,ls),
(1874,1364,o),
(1888,1394,o),
(1888,1436,cs),
(1888,1456,ls),
(1888,1508,o),
(1860,1536,o),
(1808,1536,cs),
(272,1536,ls),
(220,1536,o),
(192,1508,o),
(192,1456,cs),
(192,1456,ls),
(192,1404,o),
(220,1376,o),
(272,1376,cs),
(1614,1376,l),
(174,198,ls),
(142,172,o),
(128,142,o),
(128,100,cs)
);
}
);
width = 2046;
},
{
anchors = (
{
name = bottom;
pos = (1023,0);
},
{
name = top;
pos = (1023,1536);
}
);
layerId = m002;
shapes = (
{
closed = 1;
nodes = (
(128,80,ls),
(128,28,o),
(156,0,o),
(208,0,cs),
(1840,0,ls),
(1892,0,o),
(1920,28,o),
(1920,80,cs),
(1920,264,ls),
(1920,316,o),
(1892,334,o),
(1840,334,cs),
(754,334,l),
(1842,1164,ls),
(1874,1189,o),
(1888,1220,o),
(1888,1262,cs),
(1888,1456,ls),
(1888,1508,o),
(1860,1536,o),
(1808,1536,cs),
(272,1536,ls),
(220,1536,o),
(192,1508,o),
(192,1456,cs),
(192,1282,ls),
(192,1230,o),
(220,1202,o),
(272,1202,cs),
(1254,1202,l),
(174,372,ls),
(142,347,o),
(128,316,o),
(128,274,cs)
);
}
);
width = 2046;
}
);
note = Z;
unicode = 90;
},
{
glyphname = c;
lastChange = "2024-11-19 00:38:11 +0000";
layers = (
{
anchors = (
{
name = bottom;
pos = (786,-20);
},
{
name = top;
pos = (786,1172);
}
);
layerId = m01;
shapes = (
{
closed = 1;
nodes = (
(1239,-22,o),
(1448,20,o),
(1473,320,cs),
(1476,361,o),
(1446,384,o),
(1393,384,cs),
(1368,384,ls),
(1318,384,o),
(1294,358,o),
(1286,308,cs),
(1262,161,o),
(1150,138,o),
(801,138,cs),
(325,138,o),
(288,186,o),
(288,582,cs),
(288,962,o),
(325,1014,o),
(801,1014,cs),
(1139,1014,o),
(1257,991,o),
(1284,864,cs),
(1295,815,o),
(1317,789,o),
(1367,789,cs),
(1393,789,ls),
(1446,789,o),
(1477,819,o),
(1470,872,cs),
(1435,1132,o),
(1222,1174,o),
(801,1174,cs),
(285,1174,o),
(96,1105,o),
(96,582,cs),
(96,43,o),
(285,-22,o),
(801,-22,cs)
);
}
);
width = 1569;
},
{
anchors = (
{
name = bottom;
pos = (832,-20);
},
{
name = top;
pos = (832,1182);
}
);
layerId = m002;
shapes = (
{
closed = 1;
nodes = (
(1422,-22,o),
(1528,90,o),
(1563,390,cs),
(1568,431,o),
(1536,454,o),
(1483,454,cs),
(1250,454,ls),
(1200,454,o),
(1192,424,o),
(1168,378,cs),
(1144,331,o),
(1075,278,o),
(846,278,cs),
(533,278,o),
(496,336,o),
(496,582,cs),
(496,812,o),
(533,874,o),
(846,874,cs),
(1064,874,o),
(1139,851,o),
(1166,774,cs),
(1183,726,o),
(1199,699,o),
(1249,699,cs),
(1483,699,ls),
(1536,699,o),
(1566,729,o),
(1560,782,cs),
(1525,1082,o),
(1370,1174,o),
(846,1174,cs),
(303,1174,o),
(96,1102,o),
(96,582,cs),
(96,42,o),
(303,-22,o),
(846,-22,cs)
);
}
);
width = 1660;
}
);
note = c;
unicode = 99;
},
{
glyphname = eth;
lastChange = "2024-11-20 23:31:18 +0000";
layers = (
{
layerId = m01;
shapes = (
{
ref = o;
},
{
alignment = -1;
pos = (800,820);
ref = slashshortcomb;
},
{
closed = 1;
nodes = (
(1139,1619,o),
(1110,1637,o),
(1065,1637,cs),
(1042,1637,ls),
(981,1637,o),
(956,1600,o),
(982,1543,cs),
(1283,888,ls),
(1302,846,o),
(1331,828,o),
(1376,828,cs),
(1399,828,ls),
(1460,828,o),
(1485,865,o),
(1459,922,cs),
(1158,1577,ls)
);
}
);
width = 1602;
},
{
layerId = m002;
shapes = (
{
ref = o;
},
{
alignment = -1;
pos = (647,840);
ref = slashshortcomb;
},
{
closed = 1;
nodes = (
(1184,1622,o),
(1156,1638,o),
(1111,1638,cs),
(920,1638,ls),
(859,1638,o),
(835,1599,o),
(860,1544,cs),
(1177,853,ls),
(1196,811,o),
(1228,793,o),
(1270,793,cs),
(1461,793,ls),
(1521,793,o),
(1546,832,o),
(1521,887,cs),
(1204,1578,ls)
);
}
);
width = 1664;
}
);
unicode = 240;
},
{
glyphname = e;
lastChange = "2024-11-19 00:38:20 +0000";
layers = (
{
anchors = (
{
name = bottom;
pos = (785,-20);
},
{
name = ogonek;
pos = (1223,42);
},
{
name = top;
pos = (785,1172);
}
);
layerId = m01;
shapes = (
{
closed = 1;
nodes = (
(1329,280,ls),
(1282,280,o),
(1256,254,o),
(1247,205,cs),
(1231,117,o),
(1041,138,o),
(774,138,cs),
(323,138,o),
(291,178,o),
(289,520,c),
(1367,520,ls),
(1419,520,o),
(1447,548,o),
(1447,604,cs),
(1447,770,ls),
(1447,1105,o),
(1215,1174,o),
(793,1174,cs),
(304,1174,o),
(96,1105,o),
(96,582,cs),
(96,43,o),
(285,-22,o),
(774,-22,cs),
(1263,-22,o),
(1395,-9,o),
(1447,197,cs),
(1460,249,o),
(1426,280,o),
(1371,280,cs)
);
},
{
closed = 1;
nodes = (
(1203,1014,o),
(1263,963,o),
(1263,770,cs),
(1263,676,l),
(289,676,l),
(292,973,o),
(359,1014,o),
(793,1014,cs)
);
}
);
width = 1578;
},
{
anchors = (
{
name = bottom;
pos = (832,-22);
},
{
name = ogonek;
pos = (1223,42);
},
{
name = top;
pos = (832,1174);
}
);
layerId = m002;
shapes = (
{
closed = 1;
nodes = (
(1256,352,ls),
(1216,352,o),
(1188,326,o),
(1173,277,cs),
(1164,248,o),
(1089,238,o),
(832,238,cs),
(537,238,o),
(498,282,o),
(496,454,c),
(1488,454,ls),
(1540,454,o),
(1568,482,o),
(1568,534,cs),
(1568,710,ls),
(1568,1015,o),
(1347,1174,o),
(832,1174,cs),
(319,1174,o),
(96,1075,o),
(96,582,cs),
(96,73,o),
(310,-22,o),
(882,-22,cs),
(1454,-22,o),
(1543,72,o),
(1563,272,cs),
(1568,324,o),
(1536,352,o),
(1483,352,cs)
);
},
{
closed = 1;
nodes = (
(1083,914,o),
(1168,853,o),
(1168,790,cs),
(1168,684,l),
(496,684,l),
(499,841,o),
(564,914,o),
(832,914,cs)
);
}
);
width = 1696;
}
);
note = e;
unicode = 101;
},
{
glyphname = f;
lastChange = "2024-11-18 01:19:55 +0000";
layers = (
{
anchors = (
{
name = bottom;
pos = (528,0);
},
{
name = top;
pos = (608,1468);
}
);
layerId = m01;
shapes = (
{
closed = 1;
nodes = (
(320,0,l),
(512,0,l),
(512,996,l),
(976,996,ls),
(1028,996,o),
(1056,1022,o),
(1056,1069,cs),
(1056,1079,ls),
(1056,1126,o),
(1028,1152,o),
(976,1152,cs),
(512,1152,l),
(512,1202,ls),
(512,1415,o),
(546,1452,o),
(832,1452,cs),
(976,1452,ls),
(1028,1452,o),
(1056,1480,o),
(1056,1530,cs),
(1056,1530,ls),
(1056,1580,o),
(1028,1608,o),
(976,1608,cs),
(833,1608,ls),
(474,1608,o),
(320,1530,o),
(320,1202,cs),
(320,1152,l),
(208,1152,ls),
(156,1152,o),
(128,1126,o),
(128,1079,cs),
(128,1069,ls),
(128,1022,o),
(156,996,o),
(208,996,cs),
(320,996,l)
);
}
);
width = 1056;
},
{
anchors = (
{
name = bottom;
pos = (536,0);
},
{
name = top;
pos = (536,1608);
}
);
layerId = m002;
shapes = (
{
closed = 1;
nodes = (
(320,0,l),
(752,0,l),
(752,892,l),
(976,892,ls),
(1028,892,o),
(1056,925,o),
(1056,972,cs),
(1056,1072,ls),
(1056,1119,o),
(1028,1152,o),
(976,1152,cs),
(752,1152,l),
(752,1202,ls),
(752,1311,o),
(786,1348,o),
(872,1348,cs),
(976,1348,ls),
(1028,1348,o),
(1056,1378,o),
(1056,1428,cs),
(1056,1528,ls),
(1056,1578,o),
(1028,1608,o),
(976,1608,cs),
(833,1608,ls),
(434,1608,o),
(320,1530,o),
(320,1202,cs),
(320,1152,l),
(208,1152,ls),
(156,1152,o),
(128,1119,o),
(128,1072,cs),
(128,972,ls),
(128,925,o),
(156,892,o),
(208,892,cs),
(320,892,l)
);
}
);
width = 1056;
}
);
note = f;
unicode = 102;
},
{
glyphname = g;
lastChange = "2024-11-18 03:36:58 +0000";
layers = (
{
anchors = (
{
name = bottom;
pos = (802,-410);
},
{
name = top;
pos = (802,1152);
}
);
layerId = m01;
shapes = (
{
closed = 1;
nodes = (
(1239,-440,o),
(1465,-385,o),
(1476,122,c),
(1476,1072,ls),
(1476,1124,o),
(1448,1152,o),
(1396,1152,cs),
(1364,1152,ls),
(1312,1152,o),
(1284,1124,o),
(1284,1072,cs),
(1284,1030,l),
(1191,1151,o),
(1029,1174,o),
(788,1174,cs),
(289,1174,o),
(96,1107,o),
(96,584,cs),
(96,93,o),
(288,9,o),
(788,9,cs),
(1029,9,o),
(1191,37,o),
(1284,157,c),
(1284,130,ls),
(1284,-280,o),
(1153,-280,o),
(831,-280,cs),
(564,-280,o),
(407,-279,o),
(358,-203,cs),
(333,-162,o),
(318,-138,o),
(271,-138,cs),
(234,-138,ls),
(180,-138,o),
(145,-169,o),
(158,-221,cs),
(210,-427,o),
(467,-440,o),
(831,-440,cs)
);
},
{
closed = 1;
nodes = (
(1284,236,o),
(1222,169,o),
(788,169,cs),
(328,169,o),
(288,236,o),
(288,584,cs),
(288,964,o),
(329,1014,o),
(788,1014,cs),
(1222,1014,o),
(1284,964,o),
(1284,584,cs)
);
}
);
width = 1608;
},
{
anchors = (
{
name = bottom;
pos = (782,-544);
},
{
name = top;
pos = (802,1182);
}
);
layerId = m002;
shapes = (
{
closed = 1;
nodes = (
(999,-558,o),
(1465,-502,o),
(1476,122,c),
(1476,1072,ls),
(1476,1124,o),
(1448,1152,o),
(1396,1152,cs),
(1124,1152,ls),
(1072,1152,o),
(1044,1124,o),
(1044,1072,cs),
(1044,1013,l),
(987,1144,o),
(788,1174,o),
(681,1174,cs),
(325,1174,o),
(96,1123,o),
(96,584,cs),
(96,61,o),
(342,-22,o),
(698,-22,cs),
(805,-22,o),
(987,60,o),
(1044,191,c),
(1044,81,ls),
(1044,-226,o),
(913,-247,o),
(741,-247,cs),
(664,-247,o),
(607,-245,o),
(558,-190,cs),
(526,-154,o),
(518,-125,o),
(471,-125,cs),
(244,-125,ls),
(190,-125,o),
(157,-156,o),
(168,-208,cs),
(220,-464,o),
(477,-558,o),
(741,-558,cs)
);
},
{
closed = 1;
nodes = (
(1044,324,o),
(972,278,o),
(758,278,cs),
(582,278,o),
(528,324,o),
(528,582,cs),
(528,822,o),
(582,874,o),
(758,874,cs),
(972,874,o),
(1044,822,o),
(1044,582,cs)
);
}
);
width = 1608;
}
);
note = g;
unicode = 103;
},
{
glyphname = o;
lastChange = "2024-11-20 22:41:50 +0000";
layers = (
{
anchors = (
{
name = bottom;
pos = (801,0);
},
{
name = center;
pos = (801,576);
},
{
name = ogonek;
pos = (1292,10);
},
{
name = top;
pos = (801,1152);
},
{
name = topright;
pos = (1116,1014);
}
);
layerId = m01;
shapes = (
{
closed = 1;
nodes = (
(1317,-22,o),
(1506,43,o),
(1506,582,cs),
(1506,1105,o),
(1317,1174,o),
(801,1174,cs),
(285,1174,o),
(96,1105,o),
(96,582,cs),
(96,43,o),
(285,-22,o),
(801,-22,cs)
);
},
{
closed = 1;
nodes = (
(1314,186,o),
(1277,138,o),
(801,138,cs),
(325,138,o),
(288,186,o),
(288,582,cs),
(288,962,o),
(325,1014,o),
(801,1014,cs),
(1277,1014,o),
(1314,962,o),
(1314,582,cs)
);
}
);
width = 1602;
},
{
anchors = (
{
name = bottom;
pos = (832,0);
},
{
name = center;
pos = (832,576);
},
{
name = ogonek;
pos = (1323,10);
},
{
name = top;
pos = (832,1152);
},
{
name = topright;
pos = (1423,965);
}
);
layerId = m002;
shapes = (
{
closed = 1;
nodes = (
(1344,-22,o),
(1568,102,o),
(1568,582,cs),
(1568,1062,o),
(1344,1174,o),
(832,1174,cs),
(320,1174,o),
(96,1062,o),
(96,582,cs),
(96,102,o),
(320,-22,o),
(832,-22,cs)
);
},
{
closed = 1;
nodes = (
(1136,346,o),
(1079,278,o),
(832,278,cs),
(585,278,o),
(528,346,o),
(528,582,cs),
(528,802,o),
(585,874,o),
(832,874,cs),
(1079,874,o),
(1136,802,o),
(1136,582,cs)
);
}
);
width = 1664;
}
);
note = o;
unicode = 111;
},
{
glyphname = s;
lastChange = "2024-11-19 00:36:30 +0000";
layers = (
{
anchors = (
{
name = bottom;
pos = (788,0);
},
{
name = top;
pos = (788,1152);
}
);
layerId = m01;
shapes = (
{
closed = 1;
nodes = (
(1254,-22,o),
(1452,10,o),
(1452,298,cs),
(1452,558,o),
(1373,649,o),
(1021,653,cs),
(626,658,ls),
(386,661,o),
(316,702,o),
(316,854,cs),
(316,1006,o),
(342,1014,o),
(806,1014,cs),
(1153,1014,o),
(1240,1000,o),
(1260,893,cs),
(1269,844,o),
(1292,818,o),
(1342,818,cs),
(1367,818,ls),
(1419,818,o),
(1451,847,o),
(1446,899,cs),
(1424,1119,o),
(1295,1174,o),
(806,1174,cs),
(326,1174,o),
(128,1142,o),
(128,854,cs),
(128,594,o),
(207,503,o),
(559,499,cs),
(954,494,ls),
(1194,491,o),
(1264,450,o),
(1264,298,cs),
(1264,146,o),
(1238,138,o),
(774,138,cs),
(427,138,o),
(340,152,o),
(320,259,cs),
(311,308,o),
(288,334,o),
(238,334,cs),
(213,334,ls),
(161,334,o),
(129,305,o),
(134,253,cs),
(156,33,o),
(285,-22,o),
(774,-22,cs)
);
}
);
width = 1580;
},
{
anchors = (
{
name = bottom;
pos = (862,0);
},
{
name = top;
pos = (862,1152);
}
);
layerId = m002;
shapes = (
{
closed = 1;
nodes = (
(1402,-22,o),
(1600,38,o),
(1600,338,cs),
(1600,578,o),
(1489,701,o),
(1169,705,cs),
(792,710,ls),
(590,713,o),
(528,736,o),
(528,816,cs),
(528,896,o),
(554,914,o),
(880,914,cs),
(1143,914,o),
(1184,896,o),
(1204,813,cs),
(1213,774,o),
(1236,768,o),
(1286,768,cs),
(1515,768,ls),
(1567,768,o),
(1599,797,o),
(1594,849,cs),
(1572,1069,o),
(1434,1174,o),
(880,1174,cs),
(326,1174,o),
(128,1114,o),
(128,814,cs),
(128,574,o),
(239,451,o),
(559,447,cs),
(936,442,ls),
(1138,439,o),
(1200,416,o),
(1200,336,cs),
(1200,256,o),
(1174,238,o),
(848,238,cs),
(585,238,o),
(544,256,o),
(524,339,cs),
(515,378,o),
(492,384,o),
(442,384,cs),
(213,384,ls),
(161,384,o),
(129,355,o),
(134,303,cs),
(156,83,o),
(294,-22,o),
(848,-22,cs)
);
}
);
width = 1728;
}
);
note = s;
unicode = 115;
},
{
glyphname = t;
kernLeft = b;
lastChange = "2024-11-18 03:33:25 +0000";
layers = (
{
anchors = (
{
name = bottom;
pos = (646,0);
},
{
name = center;
pos = (320,577);
},
{
name = top;
pos = (646,1467);
},
{
name = topright;
pos = (1294,1568);
}
);
layerId = m01;
shapes = (
{
closed = 1;
nodes = (
(1026,0,o),
(1123,51,o),
(1141,410,cs),
(1144,470,o),
(1114,502,o),
(1062,502,cs),
(1053,502,ls),
(1002,502,o),
(973,473,o),
(972,419,cs),
(968,163,o),
(928,160,o),
(659,160,cs),
(408,160,o),
(368,191,o),
(368,416,cs),
(368,996,l),
(997,996,ls),
(1049,996,o),
(1077,1024,o),
(1077,1073,cs),
(1077,1074,ls),
(1077,1125,o),
(1049,1152,o),
(997,1152,cs),
(368,1152,l),
(368,1387,ls),
(368,1439,o),
(340,1467,o),
(288,1467,cs),
(256,1467,ls),
(204,1467,o),
(176,1439,o),
(176,1387,cs),
(176,416,ls),
(176,88,o),
(307,0,o),
(659,0,cs)
);
}
);
width = 1237;
},
{
anchors = (
{
name = bottom;
pos = (826,0);
},
{
name = center;
pos = (440,586);
},
{
name = top;
pos = (826,1467);
},
{
name = topright;
pos = (1563,1558);
}
);
layerId = m002;
shapes = (
{
closed = 1;
nodes = (
(1212,0,o),
(1488,95,o),
(1501,454,cs),
(1503,514,o),
(1474,546,o),
(1422,546,cs),
(1173,546,ls),
(1122,546,o),
(1094,517,o),
(1092,463,cs),
(1088,337,o),
(968,324,o),
(819,324,cs),
(688,324,o),
(608,355,o),
(608,580,cs),
(608,828,l),
(1237,828,ls),
(1289,828,o),
(1317,857,o),
(1317,908,cs),
(1317,1072,ls),
(1317,1123,o),
(1289,1152,o),
(1237,1152,cs),
(608,1152,l),
(608,1387,ls),
(608,1439,o),
(580,1467,o),
(528,1467,cs),
(256,1467,ls),
(204,1467,o),
(176,1439,o),
(176,1387,cs),
(176,416,ls),
(176,88,o),
(452,0,o),
(832,0,cs)
);
}
);
width = 1597;
}
);
note = t;
unicode = 116;
},
{
glyphname = v;
lastChange = "2024-10-14 00:42:27 +0000";
layers = (
{
anchors = (
{
name = bottom;
pos = (756,0);
},
{
name = top;
pos = (756,1152);
}
);
layerId = m01;
shapes = (
{
closed = 1;
nodes = (
(598,57,ls),
(618,18,o),
(649,0,o),
(693,0,cs),
(819,0,ls),
(863,0,o),
(894,18,o),
(914,57,cs),
(1436,1057,ls),
(1465,1112,o),
(1441,1152,o),
(1379,1152,cs),
(1337,1152,ls),
(1293,1152,o),
(1263,1134,o),
(1243,1094,cs),
(758,144,l),
(756,144,l),
(281,1094,ls),
(261,1135,o),
(231,1152,o),
(187,1152,cs),
(133,1152,ls),
(71,1152,o),
(47,1112,o),
(76,1057,cs)
);
}
);
width = 1512;
},
{
anchors = (
{
name = bottom;
pos = (762,0);
},
{
name = top;
pos = (762,1152);
}
);
layerId = m002;
shapes = (
{
closed = 1;
nodes = (
(424,57,ls),
(438,18,o),
(475,0,o),
(519,0,cs),
(1005,0,ls),
(1049,0,o),
(1087,18,o),
(1100,57,cs),
(1442,1057,ls),
(1461,1112,o),
(1447,1152,o),
(1385,1152,cs),
(1104,1152,ls),
(1060,1152,o),
(1022,1134,o),
(1010,1094,cs),
(764,288,l),
(762,288,l),
(504,1094,ls),
(491,1135,o),
(454,1152,o),
(410,1152,cs),
(129,1152,ls),
(67,1152,o),
(53,1112,o),
(72,1057,cs)
);
}
);
width = 1514;
}
);
note = v;
unicode = 118;
},
{
glyphname = w;
lastChange = "2024-10-14 00:29:46 +0000";
layers = (
{
anchors = (
{
name = bottom;
pos = (1132,0);
},
{
name = top;
pos = (1132,1152);
}
);
layerId = m01;
shapes = (
{
closed = 1;
nodes = (
(460,64,ls),
(476,21,o),
(506,0,o),
(552,0,cs),
(672,0,ls),
(718,0,o),
(747,20,o),
(764,64,cs),
(1132,1008,l),
(1132,1008,l),
(1500,64,ls),
(1517,20,o),
(1546,0,o),
(1592,0,cs),
(1712,0,ls),
(1758,0,o),
(1788,21,o),
(1804,64,cs),
(2187,1060,ls),
(2208,1116,o),
(2182,1152,o),
(2123,1152,cs),
(2073,1152,ls),
(2027,1152,o),
(1996,1131,o),
(1981,1088,cs),
(1648,144,l),
(1648,144,l),
(1292,1089,ls),
(1276,1132,o),
(1246,1152,o),
(1200,1152,cs),
(1060,1152,ls),
(1014,1152,o),
(984,1132,o),
(968,1089,cs),
(612,144,l),
(612,144,l),
(283,1088,ls),
(268,1132,o),
(237,1152,o),
(191,1152,cs),
(141,1152,ls),
(82,1152,o),
(56,1116,o),
(77,1060,cs)
);
}
);
width = 2264;
},
{
anchors = (
{
name = bottom;
pos = (1130,0);
},
{
name = top;
pos = (1130,1152);
}
);
layerId = m002;
shapes = (
{
closed = 1;
nodes = (
(338,64,ls),
(349,21,o),
(384,0,o),
(430,0,cs),
(790,0,ls),
(836,0,o),
(868,20,o),
(882,64,cs),
(1130,864,l),
(1130,864,l),
(1378,64,ls),
(1392,20,o),
(1424,0,o),
(1470,0,cs),
(1830,0,ls),
(1876,0,o),
(1911,21,o),
(1922,64,cs),
(2185,1060,ls),
(2200,1116,o),
(2180,1152,o),
(2121,1152,cs),
(1845,1152,ls),
(1799,1152,o),
(1759,1131,o),
(1753,1088,cs),
(1646,288,l),
(1646,288,l),
(1410,1089,ls),
(1397,1132,o),
(1364,1152,o),
(1318,1152,cs),
(938,1152,ls),
(892,1152,o),
(859,1132,o),
(846,1089,cs),
(610,288,l),
(610,288,l),
(507,1088,ls),
(501,1132,o),
(461,1152,o),
(415,1152,cs),
(139,1152,ls),
(80,1152,o),
(60,1116,o),
(75,1060,cs)
);
}
);
width = 2260;
}
);
note = w;
unicode = 119;
},
{
glyphname = x;
lastChange = "2024-11-20 21:32:55 +0000";
layers = (
{
anchors = (
{
name = bottom;
pos = (769,0);
},
{
name = top;
pos = (769,1152);
}
);
layerId = m01;
shapes = (
{
closed = 1;
nodes = (
(198,0,ls),
(268,0,o),
(307,2,o),
(359,54,cs),
(1377,1072,ls),
(1429,1124,o),
(1420,1152,o),
(1350,1152,cs),
(1308,1152,ls),
(1238,1152,o),
(1199,1150,o),
(1147,1098,cs),
(129,80,ls),
(77,28,o),
(86,0,o),
(156,0,cs)
);
},
{
closed = 1;
nodes = (
(1452,0,o),
(1461,28,o),
(1409,80,cs),
(391,1098,ls),
(339,1150,o),
(300,1152,o),
(230,1152,cs),
(188,1152,ls),
(118,1152,o),
(109,1124,o),
(161,1072,cs),
(1179,54,ls),
(1231,2,o),
(1270,0,o),
(1340,0,cs),
(1382,0,ls)
);
}
);
width = 1538;
},
{
anchors = (
{
name = bottom;
pos = (871,0);
},
{
name = top;
pos = (871,1152);
}
);
layerId = m002;
shapes = (
{
closed = 1;
nodes = (
(415,0,ls),
(467,0,o),
(510,2,o),
(562,54,cs),
(1567,1072,ls),
(1619,1124,o),
(1619,1152,o),
(1567,1152,cs),
(1287,1152,ls),
(1235,1152,o),
(1205,1150,o),
(1153,1098,cs),
(135,80,ls),
(83,28,o),
(83,0,o),
(135,0,cs)
);
},
{
closed = 1;
nodes = (
(1659,0,o),
(1659,28,o),
(1607,80,cs),
(589,1098,ls),
(537,1150,o),
(507,1152,o),
(455,1152,cs),
(175,1152,ls),
(123,1152,o),
(123,1124,o),
(175,1072,cs),
(1180,54,ls),
(1232,2,o),
(1275,0,o),
(1327,0,cs),
(1607,0,ls)
);
}
);
width = 1742;
}
);
note = x;
unicode = 120;
},
{
glyphname = y;
lastChange = "2024-11-18 02:24:42 +0000";
layers = (
{
anchors = (
{
name = bottom;
pos = (747,-382);
},
{
name = top;
pos = (747,1152);
}
);
layerId = m01;
shapes = (
{
closed = 1;
nodes = (
(268,-355,o),
(298,-382,o),
(352,-382,cs),
(703,-382,o),
(779,-265,o),
(876,-64,cs),
(1415,1058,ls),
(1442,1113,o),
(1416,1152,o),
(1355,1152,cs),
(1301,1152,ls),
(1256,1152,o),
(1227,1134,o),
(1208,1092,cs),
(774,143,l),
(257,1096,ls),
(236,1135,o),
(206,1152,o),
(162,1152,cs),
(115,1152,ls),
(52,1152,o),
(28,1112,o),
(59,1056,cs),
(615,56,ls),
(636,18,o),
(666,0,o),
(710,0,c),
(614,-195,o),
(556,-220,o),
(350,-224,cs),
(297,-224,o),
(268,-252,o),
(268,-304,cs)
);
}
);
width = 1490;
},
{
anchors = (
{
name = bottom;
pos = (747,-492);
},
{
name = top;
pos = (747,1152);
}
);
layerId = m002;
shapes = (
{
closed = 1;
nodes = (
(208,-512,o),
(216,-542,o),
(292,-542,cs),
(809,-542,o),
(893,-408,o),
(1059,58,cs),
(1415,1058,ls),
(1435,1113,o),
(1416,1152,o),
(1355,1152,cs),
(1076,1152,ls),
(1031,1152,o),
(997,1134,o),
(986,1092,cs),
(774,288,l),
(482,1096,ls),
(468,1135,o),
(431,1152,o),
(387,1152,cs),
(115,1152,ls),
(52,1152,o),
(34,1112,o),
(59,1056,cs),
(495,56,ls),
(539,-46,o),
(569,-64,o),
(683,-64,c),
(610,-201,o),
(518,-222,o),
(292,-222,cs),
(216,-222,o),
(208,-252,o),
(208,-382,cs)
);
}
);
width = 1487;
}
);
note = y;
unicode = 121;
},
{
glyphname = z;
lastChange = "2024-11-18 01:15:17 +0000";
layers = (
{
anchors = (
{
name = bottom;
pos = (736,0);
},
{
name = top;
pos = (736,1152);
}
);
layerId = m01;
shapes = (
{
closed = 1;
nodes = (
(128,80,ls),
(128,28,o),
(156,0,o),
(208,0,cs),
(1264,0,ls),
(1316,0,o),
(1344,27,o),
(1344,75,cs),
(1344,123,o),
(1316,150,o),
(1264,150,cs),
(385,150,l),
(1300,953,ls),
(1331,981,o),
(1344,1010,o),
(1344,1051,cs),
(1344,1072,ls),
(1344,1124,o),
(1316,1152,o),
(1264,1152,cs),
(272,1152,ls),
(220,1152,o),
(192,1126,o),
(192,1078,cs),
(192,1030,o),
(220,1004,o),
(272,1004,cs),
(1101,1004,l),
(173,199,ls),
(141,171,o),
(128,142,o),
(128,101,cs)
);
}
);
width = 1472;
},
{
anchors = (
{
name = bottom;
pos = (736,0);
},
{
name = top;
pos = (736,1152);
}
);
layerId = m002;
shapes = (
{
closed = 1;
nodes = (
(128,80,ls),
(128,28,o),
(156,0,o),
(208,0,cs),
(1264,0,ls),
(1316,0,o),
(1344,28,o),
(1344,150,cs),
(1344,272,o),
(1316,300,o),
(1264,300,cs),
(655,300,l),
(1300,801,ls),
(1335,828,o),
(1344,858,o),
(1344,899,cs),
(1344,1072,ls),
(1344,1124,o),
(1316,1152,o),
(1264,1152,cs),
(208,1152,ls),
(156,1152,o),
(128,1124,o),
(128,1003,cs),
(128,880,o),
(156,852,o),
(208,852,cs),
(831,852,l),
(173,349,ls),
(139,323,o),
(128,291,o),
(128,251,cs)
);
}
);
width = 1472;
}
);
note = z;
unicode = 122;
},
{
glyphname = zero;
lastChange = "2024-10-22 04:17:21 +0000";
layers = (
{
layerId = m01;
shapes = (
{
closed = 1;
nodes = (
(1628,748,ls),
(1628,182,o),
(1554,134,o),
(1077,134,cs),
(871,134,ls),
(394,134,o),
(320,182,o),
(320,748,cs),
(320,788,ls),
(320,1374,o),
(394,1402,o),
(871,1402,cs),
(1077,1402,ls),
(1554,1402,o),
(1628,1374,o),
(1628,788,cs)
);
},
{
closed = 1;
nodes = (
(128,748,ls),
(128,89,o),
(271,-32,o),
(871,-32,cs),
(1077,-32,ls),
(1677,-32,o),
(1820,89,o),
(1820,748,cs),
(1820,788,ls),
(1820,1467,o),
(1677,1568,o),
(1077,1568,cs),
(871,1568,ls),
(271,1568,o),
(128,1467,o),
(128,788,cs)
);
}
);
width = 1948;
},
{
layerId = m002;
shapes = (
{
closed = 1;
nodes = (
(1388,748,ls),
(1388,376,o),
(1314,328,o),
(1077,328,cs),
(871,328,ls),
(634,328,o),
(560,376,o),
(560,748,cs),
(560,788,ls),
(560,1190,o),
(634,1218,o),
(871,1218,cs),
(1077,1218,ls),
(1314,1218,o),
(1388,1190,o),
(1388,788,cs)
);
},
{
closed = 1;
nodes = (
(128,748,ls),
(128,89,o),
(271,-32,o),
(871,-32,cs),
(1077,-32,ls),
(1677,-32,o),
(1820,89,o),
(1820,748,cs),
(1820,788,ls),
(1820,1467,o),
(1677,1568,o),
(1077,1568,cs),
(871,1568,ls),
(271,1568,o),
(128,1467,o),
(128,788,cs)
);
}
);
width = 1948;
}
);
note = zero;
unicode = 48;
},
{
glyphname = one;
lastChange = "2024-11-20 21:47:27 +0000";
layers = (
{
layerId = m01;
shapes = (
{
closed = 1;
nodes = (
(192,80,ls),
(192,28,o),
(220,0,o),
(272,0,cs),
(1454,0,ls),
(1506,0,o),
(1534,28,o),
(1534,80,cs),
(1534,80,ls),
(1534,132,o),
(1506,160,o),
(1454,160,cs),
(998,160,l),
(998,1456,ls),
(998,1508,o),
(970,1536,o),
(918,1536,cs),
(842,1536,ls),
(806,1536,o),
(779,1531,o),
(744,1520,cs),
(251,1357,ls),
(201,1340,o),
(184,1303,o),
(204,1254,cs),
(204,1254,ls),
(223,1207,o),
(258,1191,o),
(306,1207,cs),
(806,1374,l),
(806,160,l),
(272,160,ls),
(220,160,o),
(192,132,o),
(192,80,cs)
);
}
);
width = 1726;
},
{
layerId = m002;
shapes = (
{
closed = 1;
nodes = (
(192,80,ls),
(192,28,o),
(220,0,o),
(272,0,cs),
(1454,0,ls),
(1506,0,o),
(1534,28,o),
(1534,80,cs),
(1534,244,ls),
(1534,296,o),
(1506,324,o),
(1454,324,cs),
(1118,324,l),
(1118,1456,ls),
(1118,1508,o),
(1090,1536,o),
(1038,1536,cs),
(842,1536,ls),
(806,1536,o),
(779,1532,o),
(744,1520,cs),
(251,1357,ls),
(201,1340,o),
(183,1306,o),
(204,1254,cs),
(279,1069,ls),
(299,1020,o),
(319,1005,o),
(371,1022,cs),
(686,1126,l),
(686,324,l),
(272,324,ls),
(220,324,o),
(192,296,o),
(192,244,cs)
);
}
);
width = 1726;
}
);
note = one;
unicode = 49;
},
{
glyphname = two;
lastChange = "2024-11-18 02:26:03 +0000";
layers = (
{
layerId = m01;
shapes = (
{
closed = 1;
nodes = (
(168,80,ls),
(168,28,o),
(196,0,o),
(248,0,cs),
(1690,0,ls),
(1742,0,o),
(1770,28,o),
(1770,80,cs),
(1770,80,ls),
(1770,132,o),
(1742,160,o),
(1690,160,cs),
(360,160,l),
(360,371,ls),
(360,637,o),
(399,686,o),
(876,686,cs),
(1316,686,ls),
(1721,686,o),
(1831,795,o),
(1831,1132,cs),
(1831,1481,o),
(1708,1568,o),
(1129,1568,cs),
(891,1568,ls),
(341,1568,o),
(192,1495,o),
(171,1213,cs),
(167,1161,o),
(197,1132,o),
(249,1132,cs),
(282,1132,ls),
(333,1132,o),
(358,1159,o),
(363,1210,cs),
(380,1391,o),
(478,1402,o),
(901,1402,cs),
(1119,1402,ls),
(1575,1402,o),
(1639,1388,o),
(1639,1132,cs),
(1639,886,o),
(1625,847,o),
(1209,847,cs),
(851,847,ls),
(264,845,o),
(168,727,o),
(168,371,cs)
);
}
);
width = 1951;
},
{
layerId = m002;
shapes = (
{
closed = 1;
nodes = (
(168,80,ls),
(168,28,o),
(196,0,o),
(248,0,cs),
(1810,0,ls),
(1862,0,o),
(1890,28,o),
(1890,80,cs),
(1890,238,ls),
(1890,290,o),
(1862,318,o),
(1810,318,cs),
(600,318,l),
(600,369,ls),
(600,563,o),
(639,608,o),
(876,610,cs),
(1436,614,ls),
(1841,617,o),
(1951,766,o),
(1951,1092,cs),
(1951,1414,o),
(1832,1568,o),
(1269,1568,cs),
(891,1568,ls),
(341,1568,o),
(192,1443,o),
(171,1161,cs),
(167,1109,o),
(197,1077,o),
(249,1077,cs),
(522,1077,ls),
(573,1077,o),
(586,1109,o),
(603,1158,cs),
(620,1207,o),
(718,1218,o),
(901,1218,cs),
(1119,1218,ls),
(1455,1218,o),
(1519,1194,o),
(1519,1082,cs),
(1519,974,o),
(1505,938,o),
(1209,935,cs),
(851,931,ls),
(264,924,o),
(168,815,o),
(168,371,cs)
);
}
);
width = 2071;
}
);
note = two;
unicode = 50;
},
{
glyphname = three;
lastChange = "2024-11-18 02:26:20 +0000";
layers = (
{
layerId = m01;
shapes = (
{
closed = 1;
nodes = (
(1116,-32,ls),
(1716,-32,o),
(1814,85,o),
(1814,444,cs),
(1814,659,o),
(1729,770,o),
(1605,796,c),
(1728,819,o),
(1814,925,o),
(1814,1132,cs),
(1814,1481,o),
(1691,1568,o),
(1091,1568,cs),
(853,1568,ls),
(303,1568,o),
(154,1495,o),
(133,1213,cs),
(129,1161,o),
(159,1132,o),
(211,1132,cs),
(244,1132,ls),
(295,1132,o),
(320,1159,o),
(325,1210,cs),
(342,1391,o),
(440,1402,o),
(863,1402,cs),
(1081,1402,ls),
(1558,1402,o),
(1622,1388,o),
(1622,1132,cs),
(1622,916,o),
(1588,877,o),
(1151,877,cs),
(893,877,ls),
(841,877,o),
(813,849,o),
(813,797,cs),
(813,796,ls),
(813,744,o),
(841,716,o),
(893,716,cs),
(1111,716,ls),
(1588,716,o),
(1622,681,o),
(1622,444,cs),
(1622,178,o),
(1583,134,o),
(1106,134,cs),
(838,134,ls),
(413,134,o),
(336,169,o),
(324,365,cs),
(321,416,o),
(294,444,o),
(243,444,cs),
(211,444,ls),
(159,444,o),
(129,415,o),
(132,363,cs),
(149,67,o),
(276,-32,o),
(828,-32,cs)
);
}
);
width = 1946;
},
{
layerId = m002;
shapes = (
{
closed = 1;
nodes = (
(1116,-32,ls),
(1836,-32,o),
(1934,85,o),
(1934,444,cs),
(1934,659,o),
(1849,770,o),
(1725,796,c),
(1848,819,o),
(1934,925,o),
(1934,1132,cs),
(1934,1481,o),
(1811,1568,o),
(1091,1568,cs),
(853,1568,ls),
(303,1568,o),
(154,1430,o),
(133,1148,cs),
(129,1096,o),
(159,1067,o),
(211,1067,cs),
(484,1067,ls),
(535,1067,o),
(551,1095,o),
(565,1145,cs),
(582,1206,o),
(680,1217,o),
(863,1217,cs),
(1081,1217,ls),
(1438,1217,o),
(1502,1203,o),
(1502,1067,cs),
(1502,990,o),
(1468,956,o),
(1151,956,cs),
(893,956,ls),
(841,956,o),
(813,928,o),
(813,876,cs),
(813,716,ls),
(813,664,o),
(841,636,o),
(893,636,cs),
(1111,636,ls),
(1468,636,o),
(1502,601,o),
(1502,484,cs),
(1502,362,o),
(1463,318,o),
(1106,318,cs),
(838,318,ls),
(653,318,o),
(576,353,o),
(564,465,cs),
(559,516,o),
(534,544,o),
(483,544,cs),
(211,544,ls),
(159,544,o),
(129,515,o),
(132,463,cs),
(149,167,o),
(276,-32,o),
(828,-32,cs)
);
}
);
width = 2066;
}
);
note = three;
unicode = 51;
},
{
glyphname = four;
lastChange = "2024-10-25 15:23:22 +0000";
layers = (
{
layerId = m01;
shapes = (
{
closed = 1;
nodes = (
(1472,80,ls),
(1472,28,o),
(1500,0,o),
(1552,0,cs),
(1584,0,ls),
(1636,0,o),
(1664,28,o),
(1664,80,cs),
(1664,320,l),
(1840,320,ls),
(1892,320,o),
(1920,348,o),
(1920,400,cs),
(1920,400,ls),
(1920,452,o),
(1892,480,o),
(1840,480,cs),
(1664,480,l),
(1664,1456,ls),
(1664,1508,o),
(1636,1536,o),
(1584,1536,cs),
(1464,1536,ls),
(1424,1536,o),
(1395,1526,o),
(1364,1501,cs),
(175,550,ls),
(142,523,o),
(128,494,o),
(128,452,cs),
(128,400,ls),
(128,348,o),
(156,320,o),
(208,320,cs),
(1472,320,l)
);
},
{
closed = 1;
nodes = (
(340,480,l),
(1472,1392,l),
(1472,480,l)
);
}
);
width = 2048;
},
{
layerId = m002;
shapes = (
{
closed = 1;
nodes = (
(1472,80,ls),
(1472,28,o),
(1500,0,o),
(1552,0,cs),
(1824,0,ls),
(1876,0,o),
(1904,28,o),
(1904,80,cs),
(1904,240,l),
(2040,240,ls),
(2092,240,o),
(2120,268,o),
(2120,320,cs),
(2120,480,ls),
(2120,532,o),
(2092,560,o),
(2040,560,cs),
(1904,560,l),
(1904,1456,ls),
(1904,1508,o),
(1876,1536,o),
(1824,1536,cs),
(1464,1536,ls),
(1424,1536,o),
(1395,1525,o),
(1364,1501,cs),
(175,550,ls),
(142,524,o),
(128,494,o),
(128,452,cs),
(128,320,ls),
(128,268,o),
(156,240,o),
(208,240,cs),
(1472,240,l)
);
},
{
closed = 1;
nodes = (
(732,560,l),
(1472,1152,l),
(1472,560,l)
);
}
);
width = 2248;
}
);
note = four;
unicode = 52;
},
{
glyphname = five;
lastChange = "2024-11-18 02:26:41 +0000";
layers = (
{
layerId = m01;
shapes = (
{
closed = 1;
nodes = (
(200,815,ls),
(200,763,o),
(228,735,o),
(280,735,cs),
(370,735,ls),
(410,735,o),
(435,751,o),
(470,770,cs),
(539,807,o),
(666,816,o),
(902,816,cs),
(1114,816,ls),
(1591,816,o),
(1625,781,o),
(1625,544,cs),
(1625,444,ls),
(1625,176,o),
(1586,134,o),
(1109,134,cs),
(882,134,ls),
(457,134,o),
(380,169,o),
(368,365,cs),
(365,416,o),
(338,444,o),
(287,444,cs),
(255,444,ls),
(203,444,o),
(173,415,o),
(176,363,cs),
(193,67,o),
(320,-32,o),
(872,-32,cs),
(1119,-32,ls),
(1719,-32,o),
(1817,83,o),
(1817,444,cs),
(1817,544,ls),
(1817,858,o),
(1741,977,o),
(1184,977,cs),
(722,977,ls),
(617,977,o),
(536,964,o),
(475,935,cs),
(420,908,o),
(392,917,o),
(392,979,cs),
(392,1376,l),
(1669,1376,ls),
(1721,1376,o),
(1749,1404,o),
(1749,1456,cs),
(1749,1508,o),
(1721,1536,o),
(1669,1536,cs),
(280,1536,ls),
(228,1536,o),
(200,1508,o),
(200,1456,cs)
);
}
);
width = 1945;
},
{
layerId = m002;
shapes = (
{
closed = 1;
nodes = (
(200,685,ls),
(200,633,o),
(228,605,o),
(280,605,cs),
(610,605,ls),
(650,605,o),
(675,621,o),
(710,640,cs),
(779,677,o),
(901,686,o),
(1017,686,cs),
(1114,686,ls),
(1591,686,o),
(1625,651,o),
(1625,504,cs),
(1625,404,ls),
(1625,330,o),
(1586,288,o),
(1109,288,cs),
(997,288,ls),
(697,288,o),
(620,283,o),
(608,425,cs),
(604,476,o),
(578,504,o),
(527,504,cs),
(255,504,ls),
(203,504,o),
(173,475,o),
(176,423,cs),
(193,127,o),
(320,-32,o),
(867,-32,cs),
(1119,-32,ls),
(1839,-32,o),
(1937,43,o),
(1937,404,cs),
(1937,504,ls),
(1937,888,o),
(1861,1007,o),
(1184,1007,cs),
(957,1007,ls),
(852,1007,o),
(776,994,o),
(715,965,cs),
(660,938,o),
(632,947,o),
(632,1009,cs),
(632,1216,l),
(1789,1216,ls),
(1841,1216,o),
(1869,1244,o),
(1869,1376,cs),
(1869,1508,o),
(1841,1536,o),
(1789,1536,cs),
(280,1536,ls),
(228,1536,o),
(200,1508,o),
(200,1456,cs)
);
}
);
width = 2065;
}
);
note = five;
unicode = 53;
},
{
glyphname = six;
lastChange = "2024-11-18 02:27:09 +0000";
layers = (
{
layerId = m01;
shapes = (
{
closed = 1;
nodes = (
(1142,-32,ls),
(1742,-32,o),
(1840,85,o),
(1840,444,cs),
(1840,758,o),
(1764,877,o),
(1207,877,cs),
(679,877,ls),
(516,877,o),
(411,845,o),
(348,772,c),
(348,1122,ls),
(348,1378,o),
(412,1402,o),
(889,1402,cs),
(1107,1402,ls),
(1520,1402,o),
(1599,1391,o),
(1612,1211,cs),
(1615,1159,o),
(1642,1132,o),
(1693,1132,cs),
(1725,1132,ls),
(1777,1132,o),
(1807,1161,o),
(1804,1213,cs),
(1786,1495,o),
(1658,1568,o),
(1117,1568,cs),
(879,1568,ls),
(279,1568,o),
(156,1471,o),
(156,1122,cs),
(156,444,ls),
(156,85,o),
(254,-32,o),
(854,-32,cs)
);
},
{
closed = 1;
nodes = (
(1648,178,o),
(1609,134,o),
(1132,134,cs),
(864,134,ls),
(387,134,o),
(348,178,o),
(348,444,cs),
(348,681,o),
(382,716,o),
(859,716,cs),
(1137,716,ls),
(1614,716,o),
(1648,681,o),
(1648,444,cs)
);
}
);
width = 1948;
},
{
layerId = m002;
shapes = (
{
closed = 1;
nodes = (
(1252,-32,ls),
(1972,-32,o),
(2070,85,o),
(2070,444,cs),
(2070,837,o),
(1994,956,o),
(1317,956,cs),
(909,956,ls),
(746,956,o),
(641,924,o),
(578,851,c),
(578,1052,ls),
(578,1224,o),
(642,1248,o),
(999,1248,cs),
(1217,1248,ls),
(1510,1248,o),
(1589,1237,o),
(1602,1141,cs),
(1609,1089,o),
(1632,1062,o),
(1683,1062,cs),
(1955,1062,ls),
(2007,1062,o),
(2037,1091,o),
(2034,1143,cs),
(2016,1425,o),
(1888,1568,o),
(1227,1568,cs),
(989,1568,ls),
(279,1568,o),
(156,1471,o),
(156,1122,cs),
(156,444,ls),
(156,85,o),
(254,-32,o),
(964,-32,cs)
);
},
{
closed = 1;
nodes = (
(1638,382,o),
(1599,318,o),
(1242,318,cs),
(974,318,ls),
(617,318,o),
(578,382,o),
(578,464,cs),
(578,601,o),
(612,636,o),
(969,636,cs),
(1247,636,ls),
(1604,636,o),
(1638,601,o),
(1638,464,cs)
);
}
);
width = 2178;
}
);
note = six;
unicode = 54;
},
{
glyphname = seven;
lastChange = "2024-10-26 17:00:59 +0000";
layers = (
{
layerId = m01;
shapes = (
{
closed = 1;
nodes = (
(532,98,ls),
(487,46,o),
(509,0,o),
(578,0,cs),
(645,0,ls),
(687,0,o),
(716,13,o),
(743,45,cs),
(1819,1301,ls),
(1845,1331,o),
(1856,1360,o),
(1856,1400,cs),
(1856,1456,ls),
(1856,1508,o),
(1828,1536,o),
(1776,1536,cs),
(208,1536,ls),
(156,1536,o),
(128,1508,o),
(128,1456,cs),
(128,1456,ls),
(128,1404,o),
(156,1376,o),
(208,1376,cs),
(1632,1376,l)
);
}
);
width = 1984;
},
{
layerId = m002;
shapes = (
{
closed = 1;
nodes = (
(374,98,ls),
(330,46,o),
(351,0,o),
(420,0,cs),
(777,0,ls),
(819,0,o),
(848,14,o),
(875,45,cs),
(1819,1141,ls),
(1845,1172,o),
(1856,1200,o),
(1856,1240,cs),
(1856,1456,ls),
(1856,1508,o),
(1828,1536,o),
(1776,1536,cs),
(208,1536,ls),
(156,1536,o),
(128,1508,o),
(128,1456,cs),
(128,1296,ls),
(128,1244,o),
(156,1216,o),
(208,1216,cs),
(1332,1216,l)
);
}
);
width = 1984;
}
);
note = seven;
unicode = 55;
},
{
glyphname = eight;
lastChange = "2024-10-25 16:28:28 +0000";
layers = (
{
layerId = m01;
shapes = (
{
closed = 1;
nodes = (
(1624,916,o),
(1590,877,o),
(1153,877,cs),
(795,877,ls),
(358,877,o),
(324,916,o),
(324,1132,cs),
(324,1388,o),
(388,1402,o),
(865,1402,cs),
(1083,1402,ls),
(1560,1402,o),
(1624,1388,o),
(1624,1132,cs)
);
},
{
closed = 1;
nodes = (
(132,85,o),
(230,-32,o),
(830,-32,cs),
(1118,-32,ls),
(1718,-32,o),
(1816,85,o),
(1816,444,cs),
(1816,659,o),
(1731,770,o),
(1607,796,c),
(1730,819,o),
(1816,925,o),
(1816,1132,cs),
(1816,1481,o),
(1693,1568,o),
(1093,1568,cs),
(855,1568,ls),
(255,1568,o),
(132,1481,o),
(132,1132,cs),
(132,925,o),
(218,819,o),
(341,796,c),
(217,770,o),
(132,659,o),
(132,444,cs)
);
},
{
closed = 1;
nodes = (
(1624,178,o),
(1585,134,o),
(1108,134,cs),
(840,134,ls),
(363,134,o),
(324,178,o),
(324,444,cs),
(324,681,o),
(358,716,o),
(835,716,cs),
(1113,716,ls),
(1590,716,o),
(1624,681,o),
(1624,444,cs)
);
}
);
width = 1948;
},
{
layerId = m002;
shapes = (
{
closed = 1;
nodes = (
(1624,985,o),
(1590,946,o),
(1273,946,cs),
(915,946,ls),
(588,946,o),
(554,985,o),
(554,1102,cs),
(554,1233,o),
(618,1247,o),
(985,1247,cs),
(1203,1247,ls),
(1560,1247,o),
(1624,1233,o),
(1624,1102,cs)
);
},
{
closed = 1;
nodes = (
(132,85,o),
(230,-32,o),
(950,-32,cs),
(1238,-32,ls),
(1958,-32,o),
(2056,85,o),
(2056,444,cs),
(2056,659,o),
(1971,770,o),
(1847,796,c),
(1970,819,o),
(2056,925,o),
(2056,1132,cs),
(2056,1481,o),
(1933,1568,o),
(1213,1568,cs),
(975,1568,ls),
(255,1568,o),
(132,1481,o),
(132,1132,cs),
(132,925,o),
(218,819,o),
(341,796,c),
(217,770,o),
(132,659,o),
(132,444,cs)
);
},
{
closed = 1;
nodes = (
(1624,352,o),
(1585,308,o),
(1228,308,cs),
(960,308,ls),
(593,308,o),
(554,352,o),
(554,484,cs),
(554,601,o),
(588,636,o),
(955,636,cs),
(1233,636,ls),
(1590,636,o),
(1624,601,o),
(1624,484,cs)
);
}
);
width = 2188;
}
);
note = eight;
unicode = 56;
},
{
glyphname = period;
lastChange = "2024-10-29 00:07:08 +0000";
layers = (
{
layerId = m01;
shapes = (
{
closed = 1;
nodes = (
(128,80,ls),
(128,28,o),
(156,0,o),
(208,0,cs),
(240,0,ls),
(292,0,o),
(320,28,o),
(320,80,cs),
(320,112,ls),
(320,164,o),
(292,192,o),
(240,192,cs),
(208,192,ls),
(156,192,o),
(128,164,o),
(128,112,cs)
);
}
);
width = 448;
},
{
layerId = m002;
shapes = (
{
closed = 1;
nodes = (
(128,52,ls),
(128,0,o),
(156,-28,o),
(203,-28,cs),
(377,-28,ls),
(424,-28,o),
(452,0,o),
(452,52,cs),
(452,216,ls),
(452,268,o),
(424,296,o),
(377,296,cs),
(203,296,ls),
(156,296,o),
(128,268,o),
(128,216,cs)
);
}
);
width = 580;
}
);
note = period;
unicode = 46;
},
{
glyphname = bullet;
lastChange = "2024-11-18 00:14:52 +0000";
layers = (
{
layerId = m01;
shapes = (
{
closed = 1;
nodes = (
(384,576,ls),
(384,404,o),
(468,320,o),
(640,320,cs),
(640,320,ls),
(812,320,o),
(896,414,o),
(896,576,cs),
(896,576,ls),
(896,748,o),
(812,832,o),
(640,832,cs),
(640,832,ls),
(468,832,o),
(384,748,o),
(384,576,cs)
);
}
);
width = 1280;
},
{
layerId = m002;
shapes = (
{
closed = 1;
nodes = (
(384,312,ls),
(384,240,o),
(432,192,o),
(504,192,cs),
(1032,192,ls),
(1104,192,o),
(1152,240,o),
(1152,312,cs),
(1152,840,ls),
(1152,912,o),
(1104,960,o),
(1032,960,cs),
(504,960,ls),
(432,960,o),
(384,912,o),
(384,840,cs)
);
}
);
width = 1536;
}
);
note = bullet;
unicode = 8226;
},
{
glyphname = asterisk;
lastChange = "2024-10-20 17:59:59 +0000";
layers = (
{
layerId = m01;
shapes = (
{
closed = 1;
nodes = (
(369,424,ls),
(410,394,o),
(453,401,o),
(480,446,cs),
(719,840,l),
(957,446,ls),
(984,401,o),
(1028,394,o),
(1069,424,cs),
(1088,438,ls),
(1133,471,o),
(1136,510,o),
(1101,550,cs),
(800,899,l),
(1248,1003,ls),
(1301,1015,o),
(1321,1052,o),
(1304,1102,cs),
(1296,1125,ls),
(1279,1174,o),
(1239,1191,o),
(1193,1172,cs),
(769,994,l),
(808,1453,ls),
(813,1507,o),
(784,1536,o),
(731,1536,cs),
(707,1536,ls),
(654,1536,o),
(625,1507,o),
(630,1453,cs),
(669,994,l),
(245,1172,ls),
(198,1192,o),
(160,1177,o),
(142,1125,cs),
(134,1102,ls),
(117,1052,o),
(137,1015,o),
(190,1003,cs),
(638,899,l),
(336,550,ls),
(301,510,o),
(307,470,o),
(350,438,cs)
);
}
);
width = 1438;
},
{
layerId = m002;
shapes = (
{
closed = 1;
nodes = (
(500,353,ls),
(542,322,o),
(585,329,o),
(611,375,cs),
(756,626,l),
(901,375,ls),
(929,327,o),
(969,322,o),
(1012,353,cs),
(1220,505,ls),
(1265,538,o),
(1271,577,o),
(1234,618,cs),
(1040,832,l),
(1322,892,ls),
(1375,903,o),
(1394,937,o),
(1377,990,cs),
(1298,1236,ls),
(1282,1285,o),
(1238,1302,o),
(1195,1283,cs),
(932,1167,l),
(962,1453,ls),
(968,1508,o),
(938,1536,o),
(885,1536,cs),
(627,1536,ls),
(574,1536,o),
(548,1508,o),
(553,1453,cs),
(580,1167,l),
(317,1283,ls),
(271,1303,o),
(230,1287,o),
(214,1236,cs),
(135,990,ls),
(118,937,o),
(131,905,o),
(190,892,cs),
(472,832,l),
(278,618,ls),
(240,576,o),
(246,539,o),
(292,505,cs)
);
}
);
width = 1511;
}
);
note = asterisk;
unicode = 42;
},
{
glyphname = slash;
lastChange = "2024-10-08 04:43:38 +0000";
layers = (
{
layerId = m01;
shapes = (
{
closed = 1;
nodes = (
(74,94,ls),
(49,39,o),
(73,0,o),
(134,0,cs),
(157,0,ls),
(202,0,o),
(231,18,o),
(250,60,cs),
(884,1442,ls),
(909,1497,o),
(885,1536,o),
(824,1536,cs),
(801,1536,ls),
(756,1536,o),
(727,1518,o),
(708,1476,cs)
);
}
);
width = 957;
},
{
layerId = m002;
shapes = (
{
closed = 1;
nodes = (
(74,94,ls),
(49,39,o),
(73,0,o),
(134,0,cs),
(325,0,ls),
(370,0,o),
(399,18,o),
(418,60,cs),
(1052,1442,ls),
(1077,1497,o),
(1053,1536,o),
(992,1536,cs),
(801,1536,ls),
(756,1536,o),
(727,1518,o),
(708,1476,cs)
);
}
);
width = 1125;
}
);
note = slash;
unicode = 47;
},
{
glyphname = hyphen;
lastChange = "2024-11-20 22:06:06 +0000";
layers = (
{
layerId = m01;
shapes = (
{
closed = 1;
nodes = (
(128,524,o),
(156,496,o),
(208,496,cs),
(848,496,ls),
(900,496,o),
(928,524,o),
(928,576,cs),
(928,628,o),
(900,656,o),
(848,656,cs),
(208,656,ls),
(156,656,o),
(128,628,o),
(128,576,cs)
);
}
);
width = 1056;
},
{
layerId = m002;
shapes = (
{
closed = 1;
nodes = (
(128,452,o),
(136,416,o),
(208,416,cs),
(848,416,ls),
(920,416,o),
(928,452,o),
(928,576,cs),
(928,700,o),
(920,736,o),
(848,736,cs),
(208,736,ls),
(136,736,o),
(128,700,o),
(128,576,cs)
);
}
);
width = 1056;
}
);
note = hyphen;
unicode = 45;
},
{
glyphname = endash;
lastChange = "2024-11-03 16:33:07 +0000";
layers = (
{
layerId = m01;
shapes = (
{
closed = 1;
nodes = (
(128,540,o),
(156,512,o),
(208,512,cs),
(944,512,ls),
(996,512,o),
(1024,540,o),
(1024,592,cs),
(1024,644,o),
(996,672,o),
(944,672,cs),
(208,672,ls),
(156,672,o),
(128,644,o),
(128,592,cs)
);
}
);
width = 1152;
},
{
layerId = m002;
shapes = (
{
closed = 1;
nodes = (
(128,468,o),
(136,432,o),
(208,432,cs),
(944,432,ls),
(1016,432,o),
(1024,468,o),
(1024,592,cs),
(1024,716,o),
(1016,752,o),
(944,752,cs),
(208,752,ls),
(136,752,o),
(128,716,o),
(128,592,cs)
);
}
);
width = 1152;
}
);
note = endash;
unicode = 8211;
},
{
glyphname = emdash;
lastChange = "2024-11-20 22:06:24 +0000";
layers = (
{
layerId = m01;
shapes = (
{
closed = 1;
nodes = (
(0,524,o),
(28,496,o),
(80,496,cs),
(1240,496,ls),
(1292,496,o),
(1320,524,o),
(1320,576,cs),
(1320,628,o),
(1292,656,o),
(1240,656,cs),
(80,656,ls),
(28,656,o),
(0,628,o),
(0,576,cs)
);
}
);
width = 1320;
},
{
layerId = m002;
shapes = (
{
closed = 1;
nodes = (
(0,452,o),
(8,416,o),
(80,416,cs),
(1240,416,ls),
(1312,416,o),
(1320,452,o),
(1320,576,cs),
(1320,700,o),
(1312,736,o),
(1240,736,cs),
(80,736,ls),
(8,736,o),
(0,700,o),
(0,576,cs)
);
}
);
width = 1320;
}
);
note = emdash;
unicode = 8212;
},
{
glyphname = underscore;
lastChange = "2024-11-03 16:33:39 +0000";
layers = (
{
layerId = m01;
shapes = (
{
closed = 1;
nodes = (
(0,-132,o),
(28,-160,o),
(80,-160,cs),
(1008,-160,ls),
(1060,-160,o),
(1088,-132,o),
(1088,-80,cs),
(1088,-28,o),
(1060,0,o),
(1008,0,cs),
(80,0,ls),
(28,0,o),
(0,-28,o),
(0,-80,cs)
);
}
);
width = 1088;
},
{
layerId = m002;
shapes = (
{
closed = 1;
nodes = (
(0,-284,o),
(8,-320,o),
(80,-320,cs),
(1008,-320,ls),
(1080,-320,o),
(1088,-284,o),
(1088,-160,cs),
(1088,-28,o),
(1080,0,o),
(1008,0,cs),
(80,0,ls),
(8,0,o),
(0,-28,o),
(0,-160,cs)
);
}
);
width = 1088;
}
);
note = underscore;
unicode = 95;
},
{
glyphname = bracketleft;
lastChange = "2024-11-20 23:08:00 +0000";
layers = (
{
layerId = m01;
shapes = (
{
closed = 1;
nodes = (
(128,48,ls),
(128,-4,o),
(156,-32,o),
(208,-32,cs),
(320,-32,l),
(320,1476,l),
(624,1476,ls),
(676,1476,o),
(704,1504,o),
(704,1556,cs),
(704,1556,ls),
(704,1608,o),
(676,1636,o),
(624,1636,cs),
(208,1636,ls),
(156,1636,o),
(128,1608,o),
(128,1556,cs)
);
},
{
closed = 1;
nodes = (
(128,-264,o),
(156,-292,o),
(208,-292,cs),
(624,-292,ls),
(676,-292,o),
(704,-264,o),
(704,-212,cs),
(704,-212,ls),
(704,-160,o),
(676,-132,o),
(624,-132,cs),
(320,-132,l),
(320,1362,l),
(208,1362,ls),
(156,1362,o),
(128,1334,o),
(128,1282,cs),
(128,-212,ls)
);
}
);
width = 832;
},
{
layerId = m002;
shapes = (
{
closed = 1;
nodes = (
(128,45,ls),
(128,-7,o),
(156,-35,o),
(208,-35,cs),
(560,-35,l),
(560,1315,l),
(624,1315,ls),
(676,1315,o),
(704,1343,o),
(704,1395,cs),
(704,1559,ls),
(704,1611,o),
(676,1639,o),
(624,1639,cs),
(208,1639,ls),
(156,1639,o),
(128,1611,o),
(128,1559,cs)
);
},
{
closed = 1;
nodes = (
(128,-267,o),
(156,-295,o),
(208,-295,cs),
(624,-295,ls),
(676,-295,o),
(704,-267,o),
(704,-215,cs),
(704,-51,ls),
(704,1,o),
(676,29,o),
(624,29,cs),
(560,29,l),
(560,1379,l),
(208,1379,ls),
(156,1379,o),
(128,1351,o),
(128,1299,cs),
(128,-215,ls)
);
}
);
width = 832;
}
);
note = bracketleft;
unicode = 91;
},
{
glyphname = guilsinglleft;
lastChange = "2024-11-18 00:37:02 +0000";
layers = (
{
layerId = m01;
shapes = (
{
closed = 1;
nodes = (
(736,175,ls),
(768,218,o),
(756,257,o),
(715,286,cs),
(256,608,l),
(715,930,ls),
(756,959,o),
(768,998,o),
(736,1041,cs),
(736,1041,ls),
(706,1082,o),
(663,1088,o),
(624,1060,cs),
(180,738,ls),
(144,712,o),
(128,685,o),
(128,642,cs),
(128,574,ls),
(128,531,o),
(144,504,o),
(180,478,cs),
(624,156,ls),
(663,128,o),
(706,135,o),
(736,175,cs)
);
}
);
width = 882;
},
{
layerId = m002;
shapes = (
{
closed = 1;
nodes = (
(776,244,ls),
(799,278,o),
(798,326,o),
(757,356,cs),
(413,608,l),
(757,860,ls),
(798,890,o),
(802,939,o),
(776,972,cs),
(693,1077,ls),
(667,1110,o),
(621,1126,o),
(581,1096,cs),
(148,775,ls),
(108,745,o),
(96,722,o),
(96,679,cs),
(96,547,ls),
(96,504,o),
(115,477,o),
(148,451,cs),
(588,113,ls),
(629,81,o),
(677,98,o),
(700,132,cs)
);
}
);
width = 919;
}
);
note = guilsinglleft;
unicode = 8249;
},
{
glyphname = quotesingle;
lastChange = "2024-10-29 00:13:51 +0000";
layers = (
{
layerId = m01;
shapes = (
{
closed = 1;
nodes = (
(144,1229,ls),
(148,1178,o),
(172,1152,o),
(214,1152,cs),
(234,1152,ls),
(276,1152,o),
(300,1178,o),
(304,1229,cs),
(320,1453,ls),
(324,1507,o),
(296,1536,o),
(243,1536,cs),
(205,1536,ls),
(152,1536,o),
(124,1507,o),
(128,1453,cs)
);
}
);
width = 448;
},
{
layerId = m002;
shapes = (
{
closed = 1;
nodes = (
(223,1229,ls),
(229,1180,o),
(251,1152,o),
(293,1152,cs),
(397,1152,ls),
(439,1152,o),
(461,1180,o),
(467,1229,cs),
(507,1581,ls),
(513,1634,o),
(483,1664,o),
(430,1664,cs),
(260,1664,ls),
(207,1664,o),
(177,1634,o),
(183,1581,cs)
);
}
);
width = 690;
}
);
note = quotesingle;
unicode = 39;
},
{
glyphname = at;
lastChange = "2024-11-20 22:18:26 +0000";
layers = (
{
anchors = (
{
name = bottom;
pos = (1042,-192);
},
{
name = top;
pos = (1063,1344);
},
{
name = "topright@ascender";
pos = (1720.25,1348.5);
}
);
layerId = m01;
shapes = (
{
closed = 1;
nodes = (
(128,556,ls),
(128,-103,o),
(271,-224,o),
(871,-224,cs),
(1274,-224,ls),
(1520,-224,o),
(1396,-227,o),
(1606,-227,cs),
(1659,-227,o),
(1689,-189,o),
(1689,-137,cs),
(1689,-128,ls),
(1689,-77,o),
(1661,-58,o),
(1608,-58,cs),
(1456,-58,o),
(1400,-58,o),
(1274,-58,cs),
(871,-58,ls),
(394,-58,o),
(320,-10,o),
(320,556,cs),
(320,596,ls),
(320,1182,o),
(394,1210,o),
(871,1210,cs),
(1274,1210,ls),
(1639,1210,o),
(1770,1202,o),
(1788,896,cs),
(1791,843,o),
(1819,815,o),
(1870,815,cs),
(1902,815,ls),
(1954,815,o),
(1983,842,o),
(1980,896,cs),
(1958,1315,o),
(1759,1376,o),
(1274,1376,cs),
(871,1376,ls),
(271,1376,o),
(128,1275,o),
(128,596,cs)
);
},
{
closed = 1;
nodes = (
(1166,128,o),
(1328,145,o),
(1401,243,c),
(1401,910,l),
(1328,1007,o),
(1166,1025,o),
(1041,1025,cs),
(684,1025,o),
(542,973,o),
(542,581,cs),
(542,176,o),
(684,128,o),
(1041,128,cs)
);
},
{
closed = 1;
nodes = (
(1401,284,o),
(1306,294,o),
(1041,294,cs),
(760,294,o),
(732,330,o),
(732,581,cs),
(732,820,o),
(760,859,o),
(1041,859,cs),
(1306,859,o),
(1401,866,o),
(1401,581,cs)
);
},
{
closed = 1;
nodes = (
(1507,144,ls),
(1546,144,o),
(1567,165,o),
(1567,204,cs),
(1567,948,ls),
(1567,987,o),
(1546,1008,o),
(1507,1008,cs),
(1461,1008,ls),
(1422,1008,o),
(1401,987,o),
(1401,948,cs),
(1401,204,ls),
(1401,165,o),
(1422,144,o),
(1461,144,cs)
);
},
{
closed = 1;
nodes = (
(1399,223,ls),
(1399,171,o),
(1427,143,o),
(1479,143,cs),
(1566,143,ls),
(1849,143,o),
(1980,261,o),
(1980,503,cs),
(1980,896,ls),
(1980,948,o),
(1952,979,o),
(1900,979,cs),
(1868,979,ls),
(1816,979,o),
(1788,948,o),
(1788,896,cs),
(1788,503,ls),
(1788,334,o),
(1704,303,o),
(1566,303,cs),
(1479,303,ls),
(1427,303,o),
(1399,275,o),
(1399,223,cs)
);
}
);
width = 2108;
},
{
anchors = (
{
name = bottom;
pos = (1133,-192);
},
{
name = top;
pos = (1133,1344);
},
{
name = "topright@ascender";
pos = (1780,1349);
}
);
layerId = m002;
shapes = (
{
closed = 1;
nodes = (
(128,556,ls),
(128,-103,o),
(471,-224,o),
(871,-224,cs),
(1274,-224,ls),
(1590,-224,o),
(1679,-224,o),
(1817,-224,cs),
(1869,-224,o),
(1900,-197,o),
(1900,-145,cs),
(1900,-35,ls),
(1900,17,o),
(1871,46,o),
(1819,46,cs),
(1706,46,o),
(1430,46,o),
(1274,46,cs),
(871,46,ls),
(564,46,o),
(488,164,o),
(488,556,cs),
(488,596,ls),
(488,978,o),
(564,1106,o),
(871,1106,cs),
(1274,1106,ls),
(1798,1106,o),
(1922,1088,o),
(1940,976,cs),
(1949,923,o),
(1970,895,o),
(2021,895,cs),
(2221,895,ls),
(2273,895,o),
(2304,924,o),
(2300,978,cs),
(2278,1313,o),
(2038,1376,o),
(1274,1376,cs),
(871,1376,ls),
(471,1376,o),
(128,1275,o),
(128,596,cs)
);
},
{
closed = 1;
nodes = (
(1219,128,o),
(1473,150,o),
(1516,248,c),
(1516,872,l),
(1473,971,o),
(1324,1025,o),
(1101,1025,cs),
(774,1025,o),
(612,973,o),
(612,581,cs),
(612,176,o),
(774,128,o),
(1138,128,cs)
);
},
{
closed = 1;
nodes = (
(1516,387,o),
(1456,398,o),
(1191,398,cs),
(984,398,o),
(949,432,o),
(949,581,cs),
(949,716,o),
(984,755,o),
(1191,755,cs),
(1456,755,o),
(1516,761,o),
(1516,581,cs)
);
},
{
closed = 1;
nodes = (
(1771,144,ls),
(1810,144,o),
(1831,165,o),
(1831,204,cs),
(1831,948,ls),
(1831,987,o),
(1810,1008,o),
(1771,1008,cs),
(1539,1008,ls),
(1500,1008,o),
(1479,987,o),
(1479,948,cs),
(1479,204,ls),
(1479,165,o),
(1500,144,o),
(1539,144,cs)
);
},
{
closed = 1;
nodes = (
(1644,223,ls),
(1644,171,o),
(1650,143,o),
(1702,143,cs),
(1795,143,ls),
(2199,143,o),
(2299,261,o),
(2299,503,cs),
(2299,979,ls),
(2299,1031,o),
(2271,1059,o),
(2219,1059,cs),
(2019,1059,ls),
(1967,1059,o),
(1939,1031,o),
(1939,979,cs),
(1939,667,ls),
(1939,498,o),
(1916,467,o),
(1795,467,cs),
(1702,467,ls),
(1650,467,o),
(1644,439,o),
(1644,387,cs)
);
}
);
width = 2428;
}
);
note = at;
unicode = 64;
},
{
glyphname = ampersand;
lastChange = "2024-11-04 01:35:39 +0000";
layers = (
{
layerId = m01;
shapes = (
{
closed = 1;
nodes = (
(1274,-32,ls),
(1635,-32,o),
(1831,12,o),
(1929,190,c),
(2156,77,ls),
(2202,54,o),
(2240,67,o),
(2264,112,c),
(2265,115,l),
(2289,162,o),
(2276,199,o),
(2230,222,cs),
(1985,346,l),
(2004,435,o),
(2014,543,o),
(2016,674,cs),
(2017,724,o),
(1993,753,o),
(1946,763,cs),
(1913,770,ls),
(1858,782,o),
(1825,773,o),
(1825,748,cs),
(1825,618,o),
(1821,516,o),
(1809,435,c),
(684,1004,ls),
(542,1076,o),
(501,1124,o),
(512,1239,cs),
(525,1378,o),
(617,1402,o),
(782,1402,cs),
(1204,1402,ls),
(1615,1402,o),
(1699,1392,o),
(1711,1128,cs),
(1713,1075,o),
(1740,1047,o),
(1791,1047,cs),
(1823,1047,ls),
(1875,1047,o),
(1905,1076,o),
(1902,1129,cs),
(1884,1523,o),
(1718,1568,o),
(1204,1568,cs),
(814,1568,ls),
(522,1568,o),
(340,1507,o),
(320,1244,cs),
(308,1090,o),
(376,997,o),
(484,942,c),
(307,922,o),
(128,789,o),
(128,512,cs),
(128,-8,o),
(488,-32,o),
(1028,-32,cs)
);
},
{
closed = 1;
nodes = (
(320,726,o),
(433,833,o),
(640,833,c),
(1761,274,l),
(1692,150,o),
(1551,134,o),
(1274,134,cs),
(1028,134,ls),
(526,134,o),
(320,136,o),
(320,515,cs)
);
}
);
width = 2405;
},
{
layerId = m002;
shapes = (
{
closed = 1;
nodes = (
(1274,-31,ls),
(1620,-31,o),
(1809,-27,o),
(1952,70,c),
(2104,-7,ls),
(2151,-31,o),
(2188,-18,o),
(2211,28,c),
(2293,173,l),
(2316,219,o),
(2304,257,o),
(2257,280,cs),
(2105,355,l),
(2124,444,o),
(2134,544,o),
(2136,675,cs),
(2137,725,o),
(2113,763,o),
(2066,764,cs),
(1793,771,ls),
(1737,772,o),
(1705,764,o),
(1705,739,cs),
(1705,689,o),
(1701,644,o),
(1689,563,c),
(804,1005,ls),
(658,1078,o),
(632,1119,o),
(632,1162,cs),
(632,1221,o),
(737,1245,o),
(902,1245,cs),
(1204,1245,ls),
(1495,1245,o),
(1579,1235,o),
(1591,1129,cs),
(1597,1076,o),
(1620,1048,o),
(1671,1048,cs),
(1943,1048,ls),
(1995,1048,o),
(2025,1077,o),
(2022,1130,cs),
(2004,1524,o),
(1838,1569,o),
(1204,1569,cs),
(814,1569,ls),
(402,1569,o),
(240,1488,o),
(200,1245,cs),
(175,1093,o),
(220,955,o),
(288,900,c),
(251,880,o),
(128,740,o),
(128,513,cs),
(128,-27,o),
(548,-31,o),
(1028,-31,cs)
);
},
{
closed = 1;
nodes = (
(560,727,o),
(699,695,o),
(880,605,c),
(1458,316,l),
(1377,289,o),
(1121,293,o),
(1084,293,cs),
(998,293,ls),
(736,293,o),
(560,295,o),
(560,516,cs)
);
},
{
closed = 1;
nodes = (
);
}
);
width = 2432;
}
);
note = ampersand;
unicode = 38;
},
{
glyphname = paragraph;
lastChange = "2024-11-04 01:38:37 +0000";
layers = (
{
layerId = m01;
shapes = (
{
closed = 1;
nodes = (
(896,80,ls),
(896,28,o),
(924,0,o),
(976,0,cs),
(1008,0,ls),
(1060,0,o),
(1088,28,o),
(1088,80,cs),
(1088,1376,l),
(1472,1376,l),
(1472,80,ls),
(1472,28,o),
(1500,0,o),
(1552,0,cs),
(1584,0,ls),
(1636,0,o),
(1664,28,o),
(1664,80,cs),
(1664,1376,l),
(1776,1376,ls),
(1828,1376,o),
(1856,1404,o),
(1856,1456,cs),
(1856,1456,ls),
(1856,1508,o),
(1828,1536,o),
(1776,1536,cs),
(833,1536,ls),
(408,1536,o),
(128,1511,o),
(128,1086,cs),
(128,629,o),
(420,608,o),
(833,608,cs),
(896,608,l)
);
}
);
width = 1984;
},
{
layerId = m002;
shapes = (
{
closed = 1;
nodes = (
(656,80,ls),
(656,28,o),
(684,0,o),
(736,0,cs),
(1008,0,ls),
(1060,0,o),
(1088,28,o),
(1088,80,cs),
(1088,1212,l),
(1328,1212,l),
(1328,80,ls),
(1328,28,o),
(1356,0,o),
(1408,0,cs),
(1680,0,ls),
(1732,0,o),
(1760,28,o),
(1760,80,cs),
(1760,1212,l),
(1812,1212,ls),
(1864,1212,o),
(1892,1240,o),
(1892,1292,cs),
(1892,1456,ls),
(1892,1508,o),
(1864,1536,o),
(1812,1536,cs),
(713,1536,ls),
(408,1536,o),
(128,1511,o),
(128,1086,cs),
(128,705,o),
(340,608,o),
(593,608,cs),
(656,608,l)
);
}
);
width = 2020;
}
);
note = paragraph;
unicode = 182;
},
{
glyphname = copyright;
lastChange = "2024-10-20 22:02:29 +0000";
layers = (
{
layerId = m01;
shapes = (
{
alignment = -1;
pos = (313,556);
ref = c;
scale = (0.6667,0.6667);
},
{
closed = 1;
nodes = (
(988,340,ls),
(1438,340,o),
(1545,431,o),
(1545,925,cs),
(1545,955,ls),
(1545,1464,o),
(1438,1540,o),
(988,1540,cs),
(685,1540,ls),
(235,1540,o),
(128,1464,o),
(128,955,cs),
(128,925,ls),
(128,431,o),
(235,340,o),
(685,340,cs)
);
},
{
closed = 1;
nodes = (
(685,465,ls),
(328,465,o),
(272,501,o),
(272,925,cs),
(272,955,ls),
(272,1395,o),
(328,1416,o),
(685,1416,cs),
(988,1416,ls),
(1345,1416,o),
(1401,1395,o),
(1401,955,cs),
(1401,925,ls),
(1401,501,o),
(1345,465,o),
(988,465,cs)
);
}
);
width = 1673;
},
{
layerId = m002;
shapes = (
{
alignment = -1;
pos = (352,652);
ref = c;
scale = (0.5,0.5);
},
{
closed = 1;
nodes = (
(956,320,ls),
(1426,320,o),
(1533,411,o),
(1533,925,cs),
(1533,955,ls),
(1533,1484,o),
(1426,1560,o),
(956,1560,cs),
(653,1560,ls),
(183,1560,o),
(76,1484,o),
(76,955,cs),
(76,925,ls),
(76,411,o),
(183,320,o),
(653,320,cs)
);
},
{
closed = 1;
nodes = (
(653,505,ls),
(366,505,o),
(310,551,o),
(310,925,cs),
(310,955,ls),
(310,1345,o),
(366,1376,o),
(653,1376,cs),
(956,1376,ls),
(1243,1376,o),
(1299,1345,o),
(1299,955,cs),
(1299,925,ls),
(1299,551,o),
(1243,505,o),
(956,505,cs)
);
}
);
width = 1768;
}
);
note = copyright;
unicode = 169;
},
{
glyphname = registered;
lastChange = "2024-11-20 22:17:12 +0000";
layers = (
{
anchors = (
{
name = bottom;
pos = (804.75,364);
},
{
name = center;
pos = (804.75,940);
},
{
name = ogonek;
pos = (1248.75,364);
},
{
name = top;
pos = (804.75,1516);
},
{
name = topleft;
pos = (15,1516);
},
{
name = topright;
pos = (1331.25,1415.5);
}
);
layerId = m01;
shapes = (
{
closed = 1;
nodes = (
(956,340,ls),
(1406,340,o),
(1513,431,o),
(1513,925,cs),
(1513,955,ls),
(1513,1464,o),
(1406,1540,o),
(956,1540,cs),
(653,1540,ls),
(203,1540,o),
(96,1464,o),
(96,955,cs),
(96,925,ls),
(96,431,o),
(203,340,o),
(653,340,cs)
);
},
{
closed = 1;
nodes = (
(653,465,ls),
(296,465,o),
(240,501,o),
(240,925,cs),
(240,955,ls),
(240,1395,o),
(296,1416,o),
(653,1416,cs),
(956,1416,ls),
(1313,1416,o),
(1369,1395,o),
(1369,955,cs),
(1369,925,ls),
(1369,501,o),
(1313,465,o),
(956,465,cs)
);
},
{
ref = "mini-R";
}
);
width = 1609;
},
{
anchors = (
{
name = bottom;
pos = (842,275);
},
{
name = center;
pos = (842,940);
},
{
name = ogonek;
pos = (1356,275);
},
{
name = top;
pos = (842,1605);
},
{
name = topleft;
pos = (-69,1605);
},
{
name = topright;
pos = (1536,1489);
}
);
layerId = m002;
shapes = (
{
closed = 1;
nodes = (
(956,320,ls),
(1426,320,o),
(1533,411,o),
(1533,925,cs),
(1533,955,ls),
(1533,1484,o),
(1426,1560,o),
(956,1560,cs),
(653,1560,ls),
(183,1560,o),
(76,1484,o),
(76,955,cs),
(76,925,ls),
(76,411,o),
(183,320,o),
(653,320,cs)
);
},
{
closed = 1;
nodes = (
(653,495,ls),
(366,495,o),
(300,551,o),
(300,925,cs),
(300,955,ls),
(300,1345,o),
(366,1386,o),
(653,1386,cs),
(956,1386,ls),
(1243,1386,o),
(1309,1345,o),
(1309,955,cs),
(1309,925,ls),
(1309,551,o),
(1243,495,o),
(956,495,cs)
);
},
{
pos = (-25,0);
ref = "mini-R";
}
);
width = 1673;
}
);
note = registered;
unicode = 174;
},
{
glyphname = trademark;
lastChange = "2024-11-20 22:37:20 +0000";
layers = (
{
anchors = (
{
name = bottom;
pos = (479,768);
},
{
name = center;
pos = (479,1152);
},
{
name = top;
pos = (479,1536);
}
);
layerId = m01;
shapes = (
{
closed = 1;
nodes = (
(384,808,ls),
(384,782,o),
(398,768,o),
(424,768,cs),
(536,768,ls),
(562,768,o),
(576,782,o),
(576,808,cs),
(576,1376,l),
(872,1376,ls),
(908,1376,o),
(912,1391,o),
(912,1455,cs),
(912,1521,o),
(908,1536,o),
(872,1536,cs),
(88,1536,ls),
(52,1536,o),
(48,1521,o),
(48,1455,cs),
(48,1391,o),
(52,1376,o),
(88,1376,cs),
(384,1376,l)
);
},
{
closed = 1;
nodes = (
(999,808,ls),
(999,782,o),
(1013,768,o),
(1039,768,cs),
(1151,768,ls),
(1177,768,o),
(1191,782,o),
(1191,808,cs),
(1191,1376,l),
(1460,812,ls),
(1468,795,o),
(1487,788,o),
(1508,788,cs),
(1704,788,ls),
(1725,788,o),
(1745,795,o),
(1753,812,cs),
(2021,1376,l),
(2021,808,ls),
(2021,782,o),
(2035,768,o),
(2061,768,cs),
(2173,768,ls),
(2199,768,o),
(2213,782,o),
(2213,808,cs),
(2213,1496,ls),
(2213,1522,o),
(2199,1536,o),
(2173,1536,cs),
(1922,1536,ls),
(1901,1536,o),
(1881,1529,o),
(1873,1512,cs),
(1606,979,l),
(1339,1512,ls),
(1331,1529,o),
(1312,1536,o),
(1291,1536,cs),
(1039,1536,ls),
(1013,1536,o),
(999,1522,o),
(999,1496,cs)
);
}
);
width = 2309;
},
{
anchors = (
{
name = bottom;
pos = (480,768);
},
{
name = center;
pos = (480,1152);
},
{
name = top;
pos = (480,1536);
}
);
layerId = m002;
shapes = (
{
closed = 1;
nodes = (
(330,818,ls),
(330,782,o),
(344,768,o),
(380,768,cs),
(580,768,ls),
(616,768,o),
(630,782,o),
(630,818,cs),
(630,1296,l),
(852,1296,ls),
(904,1296,o),
(912,1334,o),
(912,1416,cs),
(912,1498,o),
(904,1536,o),
(852,1536,cs),
(108,1536,ls),
(56,1536,o),
(48,1498,o),
(48,1416,cs),
(48,1334,o),
(56,1296,o),
(108,1296,cs),
(330,1296,l)
);
},
{
closed = 1;
nodes = (
(1001,828,ls),
(1001,792,o),
(1025,768,o),
(1061,768,cs),
(1241,768,ls),
(1277,768,o),
(1301,792,o),
(1301,828,cs),
(1301,1236,l),
(1451,812,ls),
(1457,795,o),
(1478,788,o),
(1499,788,cs),
(1714,788,ls),
(1735,788,o),
(1757,795,o),
(1763,812,cs),
(1913,1236,l),
(1913,828,ls),
(1913,792,o),
(1937,768,o),
(1973,768,cs),
(2153,768,ls),
(2189,768,o),
(2213,792,o),
(2213,828,cs),
(2213,1476,ls),
(2213,1512,o),
(2189,1536,o),
(2153,1536,cs),
(1842,1536,ls),
(1811,1536,o),
(1784,1518,o),
(1773,1492,cs),
(1607,1119,l),
(1441,1492,ls),
(1429,1518,o),
(1404,1536,o),
(1373,1536,cs),
(1061,1536,ls),
(1025,1536,o),
(1001,1512,o),
(1001,1476,cs)
);
}
);
width = 2309;
}
);
note = trademark;
unicode = 8482;
},
{
glyphname = bar;
lastChange = "2024-10-26 20:57:39 +0000";
layers = (
{
layerId = m01;
shapes = (
{
closed = 1;
nodes = (
(96,-48,ls),
(96,-100,o),
(124,-128,o),
(176,-128,cs),
(208,-128,ls),
(260,-128,o),
(288,-100,o),
(288,-48,cs),
(288,1520,ls),
(288,1572,o),
(260,1600,o),
(208,1600,cs),
(176,1600,ls),
(124,1600,o),
(96,1572,o),
(96,1520,cs)
);
}
);
width = 384;
},
{
layerId = m002;
shapes = (
{
closed = 1;
nodes = (
(96,-48,ls),
(96,-100,o),
(124,-128,o),
(176,-128,cs),
(348,-128,ls),
(400,-128,o),
(428,-100,o),
(428,-48,cs),
(428,1520,ls),
(428,1572,o),
(400,1600,o),
(348,1600,cs),
(176,1600,ls),
(124,1600,o),
(96,1572,o),
(96,1520,cs)
);
}
);
width = 524;
}
);
note = bar;
unicode = 124;
},
{
glyphname = greater;
lastChange = "2024-10-28 23:48:45 +0000";
layers = (
{
layerId = m01;
shapes = (
{
closed = 1;
nodes = (
(256,245,ls),
(256,181,o),
(299,153,o),
(352,190,cs),
(1098,703,ls),
(1135,728,o),
(1152,756,o),
(1152,799,cs),
(1152,865,ls),
(1152,908,o),
(1135,936,o),
(1098,961,cs),
(352,1474,ls),
(299,1511,o),
(256,1483,o),
(256,1419,cs),
(256,1411,ls),
(256,1367,o),
(276,1343,o),
(313,1316,cs),
(988,832,l),
(313,348,ls),
(276,321,o),
(256,297,o),
(256,253,cs)
);
}
);
width = 1408;
},
{
layerId = m002;
shapes = (
{
closed = 1;
nodes = (
(256,85,ls),
(256,21,o),
(299,-5,o),
(352,30,cs),
(1173,573,ls),
(1208,596,o),
(1208,615,o),
(1208,679,cs),
(1208,959,ls),
(1208,1026,o),
(1208,1042,o),
(1173,1065,cs),
(352,1608,ls),
(299,1643,o),
(256,1617,o),
(256,1553,cs),
(256,1285,ls),
(256,1241,o),
(275,1216,o),
(313,1190,cs),
(848,819,l),
(313,448,ls),
(275,422,o),
(256,397,o),
(256,353,cs)
);
}
);
width = 1464;
}
);
note = greater;
unicode = 62;
},
{
glyphname = logicalnot;
lastChange = "2024-11-18 02:43:11 +0000";
layers = (
{
layerId = m01;
shapes = (
{
closed = 1;
nodes = (
(992,720,ls),
(992,668,o),
(1020,640,o),
(1072,640,cs),
(1104,640,ls),
(1156,640,o),
(1184,668,o),
(1184,720,cs),
(1184,1008,ls),
(1184,1060,o),
(1156,1088,o),
(1104,1088,cs),
(304,1088,ls),
(252,1088,o),
(224,1060,o),
(224,1008,cs),
(224,1008,ls),
(224,956,o),
(252,928,o),
(304,928,cs),
(992,928,l)
);
}
);
width = 1408;
},
{
layerId = m002;
shapes = (
{
closed = 1;
nodes = (
(860,720,ls),
(860,668,o),
(888,640,o),
(940,640,cs),
(1104,640,ls),
(1156,640,o),
(1184,668,o),
(1184,720,cs),
(1184,1008,ls),
(1184,1060,o),
(1156,1088,o),
(1104,1088,cs),
(304,1088,ls),
(252,1088,o),
(224,1060,o),
(224,1008,cs),
(224,928,ls),
(224,876,o),
(252,848,o),
(304,848,cs),
(860,848,l)
);
}
);
width = 1408;
}
);
note = logicalnot;
unicode = 172;
},
{
glyphname = infinity;
lastChange = "2024-11-18 02:43:35 +0000";
layers = (
{
layerId = m01;
shapes = (
{
closed = 1;
nodes = (
(929,0,o),
(1338,331,o),
(1338,582,cs),
(1338,833,o),
(929,1152,o),
(653,1152,cs),
(437,1152,o),
(128,1032,o),
(128,582,cs),
(128,132,o),
(437,0,o),
(653,0,cs)
);
},
{
closed = 1;
nodes = (
(1146,414,o),
(819,192,o),
(653,192,cs),
(457,192,o),
(320,302,o),
(320,582,cs),
(320,862,o),
(457,960,o),
(653,960,cs),
(819,960,o),
(1146,748,o),
(1146,582,cs)
);
},
{
closed = 1;
nodes = (
(2049,0,o),
(2358,132,o),
(2358,582,cs),
(2358,1032,o),
(2049,1152,o),
(1833,1152,cs),
(1557,1152,o),
(1148,833,o),
(1148,582,cs),
(1148,331,o),
(1557,0,o),
(1833,0,cs)
);
},
{
closed = 1;
nodes = (
(1340,748,o),
(1667,960,o),
(1833,960,cs),
(2029,960,o),
(2166,862,o),
(2166,582,cs),
(2166,302,o),
(2029,192,o),
(1833,192,cs),
(1667,192,o),
(1340,414,o),
(1340,582,cs)
);
}
);
width = 2486;
},
{
layerId = m002;
shapes = (
{
closed = 1;
nodes = (
(989,0,o),
(1404,391,o),
(1404,582,cs),
(1404,773,o),
(989,1152,o),
(653,1152,cs),
(437,1152,o),
(128,1032,o),
(128,582,cs),
(128,132,o),
(437,0,o),
(653,0,cs)
);
},
{
closed = 1;
nodes = (
(1080,546,o),
(899,324,o),
(693,324,cs),
(589,324,o),
(452,434,o),
(452,582,cs),
(452,730,o),
(589,828,o),
(693,828,cs),
(899,828,o),
(1080,616,o),
(1080,582,cs)
);
},
{
closed = 1;
nodes = (
(2049,0,o),
(2358,132,o),
(2358,582,cs),
(2358,1032,o),
(2049,1152,o),
(1833,1152,cs),
(1497,1152,o),
(1080,773,o),
(1080,582,cs),
(1080,391,o),
(1497,0,o),
(1833,0,cs)
);
},
{
closed = 1;
nodes = (
(1408,616,o),
(1587,828,o),
(1793,828,cs),
(1897,828,o),
(2034,730,o),
(2034,582,cs),
(2034,434,o),
(1897,324,o),
(1793,324,cs),
(1587,324,o),
(1408,546,o),
(1408,582,cs)
);
}
);
width = 2486;
}
);
note = infinity;
unicode = 8734;
},
{
glyphname = radical;
lastChange = "2024-11-18 02:51:13 +0000";
layers = (
{
layerId = m01;
shapes = (
{
closed = 1;
nodes = (
(567,55,ls),
(589,16,o),
(619,0,o),
(663,0,cs),
(788,0,ls),
(834,0,o),
(863,21,o),
(880,63,cs),
(1426,1443,ls),
(1448,1498,o),
(1423,1536,o),
(1363,1536,cs),
(1307,1536,ls),
(1261,1536,o),
(1232,1515,o),
(1216,1472,cs),
(727,128,l),
(342,840,ls),
(321,879,o),
(291,896,o),
(247,896,cs),
(197,896,ls),
(134,896,o),
(111,855,o),
(142,800,cs)
);
}
);
width = 1562;
},
{
layerId = m002;
shapes = (
{
closed = 1;
nodes = (
(485,55,ls),
(503,16,o),
(537,0,o),
(581,0,cs),
(990,0,ls),
(1036,0,o),
(1068,21,o),
(1082,63,cs),
(1548,1443,ls),
(1567,1498,o),
(1545,1536,o),
(1485,1536,cs),
(1207,1536,ls),
(1161,1536,o),
(1128,1515,o),
(1116,1472,cs),
(787,324,l),
(562,840,ls),
(545,879,o),
(511,896,o),
(467,896,cs),
(195,896,ls),
(132,896,o),
(113,858,o),
(140,800,cs)
);
}
);
width = 1683;
}
);
note = radical;
unicode = 8730;
},
{
glyphname = lozenge;
lastChange = "2024-11-18 03:00:04 +0000";
layers = (
{
layerId = m01;
shapes = (
{
closed = 1;
nodes = (
(532,55,ls),
(554,17,o),
(583,0,o),
(627,0,cs),
(629,0,ls),
(673,0,o),
(702,17,o),
(724,55,cs),
(1108,713,ls),
(1130,752,o),
(1130,784,o),
(1108,823,cs),
(724,1481,ls),
(702,1519,o),
(673,1536,o),
(629,1536,cs),
(627,1536,ls),
(583,1536,o),
(554,1519,o),
(532,1481,cs),
(148,823,ls),
(126,784,o),
(126,752,o),
(148,713,cs)
);
},
{
closed = 1;
nodes = (
(628,256,l),
(340,768,l),
(628,1280,l),
(916,768,l)
);
}
);
width = 1256;
},
{
layerId = m002;
shapes = (
{
closed = 1;
nodes = (
(532,55,ls),
(554,17,o),
(583,0,o),
(627,0,cs),
(629,0,ls),
(673,0,o),
(702,17,o),
(724,55,cs),
(1108,713,ls),
(1130,752,o),
(1130,784,o),
(1108,823,cs),
(724,1481,ls),
(702,1519,o),
(673,1536,o),
(629,1536,cs),
(627,1536,ls),
(583,1536,o),
(554,1519,o),
(532,1481,cs),
(148,823,ls),
(126,784,o),
(126,752,o),
(148,713,cs)
);
},
{
closed = 1;
nodes = (
(628,432,l),
(432,768,l),
(628,1104,l),
(824,768,l)
);
}
);
width = 1256;
}
);
note = lozenge;
unicode = 9674;
},
{
glyphname = dieresis;
lastChange = "2024-10-28 15:49:05 +0000";
layers = (
{
layerId = m01;
shapes = (
{
closed = 1;
nodes = (
(672,1424,ls),
(672,1372,o),
(700,1344,o),
(752,1344,cs),
(784,1344,ls),
(836,1344,o),
(864,1372,o),
(864,1424,cs),
(864,1456,ls),
(864,1508,o),
(836,1536,o),
(784,1536,cs),
(752,1536,ls),
(700,1536,o),
(672,1508,o),
(672,1456,cs)
);
},
{
closed = 1;
nodes = (
(96,1424,ls),
(96,1372,o),
(124,1344,o),
(176,1344,cs),
(208,1344,ls),
(260,1344,o),
(288,1372,o),
(288,1424,cs),
(288,1456,ls),
(288,1508,o),
(260,1536,o),
(208,1536,cs),
(176,1536,ls),
(124,1536,o),
(96,1508,o),
(96,1456,cs)
);
}
);
width = 960;
},
{
layerId = m002;
shapes = (
{
closed = 1;
nodes = (
(644,1422,ls),
(644,1370,o),
(672,1342,o),
(724,1342,cs),
(996,1342,ls),
(1048,1342,o),
(1076,1370,o),
(1076,1422,cs),
(1076,1522,ls),
(1076,1574,o),
(1048,1602,o),
(996,1602,cs),
(724,1602,ls),
(672,1602,o),
(644,1574,o),
(644,1522,cs)
);
},
{
closed = 1;
nodes = (
(96,1422,ls),
(96,1370,o),
(124,1342,o),
(176,1342,cs),
(448,1342,ls),
(500,1342,o),
(528,1370,o),
(528,1422,cs),
(528,1522,ls),
(528,1574,o),
(500,1602,o),
(448,1602,cs),
(176,1602,ls),
(124,1602,o),
(96,1574,o),
(96,1522,cs)
);
}
);
width = 1172;
}
);
note = dieresis;
unicode = 168;
},
{
glyphname = dotaccent;
lastChange = "2024-10-29 00:06:28 +0000";
layers = (
{
layerId = m01;
shapes = (
{
closed = 1;
nodes = (
(128,1424,ls),
(128,1372,o),
(156,1344,o),
(208,1344,cs),
(240,1344,ls),
(292,1344,o),
(320,1372,o),
(320,1424,cs),
(320,1456,ls),
(320,1508,o),
(292,1536,o),
(240,1536,cs),
(208,1536,ls),
(156,1536,o),
(128,1508,o),
(128,1456,cs)
);
}
);
width = 448;
},
{
layerId = m002;
shapes = (
{
closed = 1;
nodes = (
(128,1394,ls),
(128,1342,o),
(156,1314,o),
(203,1314,cs),
(485,1314,ls),
(532,1314,o),
(560,1342,o),
(560,1394,cs),
(560,1558,ls),
(560,1610,o),
(532,1638,o),
(485,1638,cs),
(203,1638,ls),
(156,1638,o),
(128,1610,o),
(128,1558,cs)
);
}
);
width = 688;
}
);
note = dotaccent;
unicode = 729;
},
{
glyphname = circumflex;
lastChange = "2024-11-18 00:13:01 +0000";
layers = (
{
layerId = m01;
shapes = (
{
closed = 1;
nodes = (
(176,1287,ls),
(224,1254,o),
(248,1267,o),
(275,1304,cs),
(575,1720,l),
(875,1303,ls),
(902,1266,o),
(924,1252,o),
(974,1287,cs),
(984,1294,ls),
(1034,1329,o),
(1033,1358,o),
(1007,1395,cs),
(686,1854,ls),
(664,1885,o),
(646,1886,o),
(625,1886,cs),
(525,1886,ls),
(504,1886,o),
(486,1886,o),
(464,1854,cs),
(143,1395,ls),
(118,1359,o),
(118,1327,o),
(166,1294,cs)
);
},
{
closed = 1;
nodes = (
);
}
);
width = 1150;
},
{
layerId = m002;
shapes = (
{
closed = 1;
nodes = (
(248,1287,ls),
(320,1235,o),
(348,1224,o),
(383,1275,cs),
(646,1651,l),
(909,1275,ls),
(944,1224,o),
(972,1235,o),
(1044,1287,cs),
(1086,1317,ls),
(1158,1369,o),
(1185,1392,o),
(1149,1443,cs),
(828,1902,ls),
(803,1937,o),
(779,1937,o),
(736,1937,cs),
(570,1937,ls),
(513,1937,o),
(489,1937,o),
(464,1902,cs),
(143,1443,ls),
(107,1392,o),
(137,1366,o),
(206,1317,cs)
);
},
{
closed = 1;
nodes = (
);
}
);
width = 1293;
}
);
note = circumflex;
unicode = 710;
},
{
glyphname = breve;
lastChange = "2024-11-18 02:58:58 +0000";
layers = (
{
layerId = m01;
shapes = (
{
closed = 1;
nodes = (
(753,1312,o),
(858,1419,o),
(878,1652,cs),
(881,1684,o),
(846,1710,o),
(804,1710,cs),
(753,1710,o),
(733,1694,o),
(730,1662,cs),
(710,1461,o),
(649,1452,o),
(503,1452,cs),
(357,1452,o),
(296,1461,o),
(276,1662,cs),
(273,1694,o),
(244,1710,o),
(202,1710,cs),
(160,1710,o),
(125,1684,o),
(128,1652,cs),
(148,1419,o),
(253,1312,o),
(503,1312,cs)
);
}
);
width = 1006;
},
{
layerId = m002;
shapes = (
{
closed = 1;
nodes = (
(829,1312,o),
(949,1394,o),
(989,1714,cs),
(995,1766,o),
(974,1812,o),
(872,1812,cs),
(770,1812,o),
(738,1786,o),
(729,1734,cs),
(699,1566,o),
(657,1552,o),
(559,1552,cs),
(461,1552,o),
(419,1566,o),
(389,1734,cs),
(380,1786,o),
(357,1812,o),
(246,1812,cs),
(154,1812,o),
(123,1766,o),
(129,1714,cs),
(169,1394,o),
(289,1312,o),
(559,1312,cs)
);
}
);
width = 1118;
}
);
note = breve;
unicode = 728;
},
{
glyphname = ring;
lastChange = "2024-10-28 18:57:01 +0000";
layers = (
{
layerId = m01;
shapes = (
{
closed = 1;
nodes = (
(813,1312,o),
(964,1364,o),
(964,1637,cs),
(964,1897,o),
(813,1952,o),
(580,1952,cs),
(347,1952,o),
(196,1897,o),
(196,1637,cs),
(196,1364,o),
(347,1312,o),
(580,1312,cs)
);
},
{
closed = 1;
nodes = (
(810,1478,o),
(781,1440,o),
(580,1440,cs),
(379,1440,o),
(350,1478,o),
(350,1637,cs),
(350,1783,o),
(379,1824,o),
(580,1824,cs),
(781,1824,o),
(810,1783,o),
(810,1637,cs)
);
}
);
width = 1160;
},
{
layerId = m002;
shapes = (
{
closed = 1;
nodes = (
(1010,1312,o),
(1184,1422,o),
(1184,1722,cs),
(1184,2022,o),
(1010,2132,o),
(690,2132,cs),
(370,2132,o),
(196,2022,o),
(196,1722,cs),
(196,1422,o),
(370,1312,o),
(690,1312,cs)
);
},
{
closed = 1;
nodes = (
(904,1634,o),
(870,1552,o),
(690,1552,cs),
(510,1552,o),
(476,1634,o),
(476,1722,cs),
(476,1810,o),
(510,1892,o),
(690,1892,cs),
(870,1892,o),
(904,1810,o),
(904,1722,cs)
);
}
);
width = 1380;
}
);
note = ring;
unicode = 730;
},
{
glyphname = tilde;
lastChange = "2024-11-03 00:36:57 +0000";
layers = (
{
layerId = m01;
shapes = (
{
closed = 1;
nodes = (
(238,1342,ls),
(341,1342,o),
(259,1438,o),
(399,1438,cs),
(459,1438,o),
(610,1342,o),
(748,1342,cs),
(889,1342,o),
(984,1417,o),
(1007,1526,cs),
(1016,1568,o),
(987,1598,o),
(933,1598,cs),
(899,1598,ls),
(793,1598,o),
(876,1502,o),
(738,1502,cs),
(678,1502,o),
(527,1598,o),
(389,1598,cs),
(240,1598,o),
(153,1524,o),
(130,1415,cs),
(121,1373,o),
(150,1342,o),
(204,1342,cs)
);
}
);
width = 1137;
},
{
layerId = m002;
shapes = (
{
closed = 1;
nodes = (
(367,1342,ls),
(470,1342,o),
(388,1438,o),
(528,1438,cs),
(588,1438,o),
(739,1352,o),
(877,1352,cs),
(1066,1352,o),
(1163,1497,o),
(1186,1686,cs),
(1191,1728,o),
(1166,1758,o),
(1112,1758,cs),
(948,1758,ls),
(842,1758,o),
(925,1662,o),
(787,1662,cs),
(727,1662,o),
(576,1748,o),
(438,1748,cs),
(249,1748,o),
(152,1603,o),
(129,1414,cs),
(124,1372,o),
(149,1342,o),
(203,1342,cs)
);
}
);
width = 1315;
}
);
note = tilde;
unicode = 732;
},
{
glyphname = macron;
lastChange = "2024-10-29 00:05:26 +0000";
layers = (
{
layerId = m01;
shapes = (
{
closed = 1;
nodes = (
(128,1372,o),
(156,1344,o),
(208,1344,cs),
(848,1344,ls),
(900,1344,o),
(928,1372,o),
(928,1424,cs),
(928,1476,o),
(900,1504,o),
(848,1504,cs),
(208,1504,ls),
(156,1504,o),
(128,1476,o),
(128,1424,cs)
);
}
);
width = 1056;
},
{
layerId = m002;
shapes = (
{
closed = 1;
nodes = (
(128,1390,o),
(136,1344,o),
(208,1344,cs),
(848,1344,ls),
(920,1344,o),
(928,1390,o),
(928,1506,cs),
(928,1622,o),
(920,1668,o),
(848,1668,cs),
(208,1668,ls),
(136,1668,o),
(128,1622,o),
(128,1506,cs)
);
}
);
width = 1056;
}
);
note = macron;
unicode = 175;
},
{
glyphname = cedilla;
lastChange = "2024-11-18 02:59:44 +0000";
layers = (
{
layerId = m01;
shapes = (
{
closed = 1;
nodes = (
(128,-463,ls),
(128,-515,o),
(157,-545,o),
(211,-541,cs),
(393,-529,o),
(512,-471,o),
(512,-318,cs),
(512,-181,o),
(427,-128,o),
(256,-128,c),
(256,-16,ls),
(256,36,o),
(233,64,o),
(192,64,cs),
(192,64,ls),
(151,64,o),
(128,36,o),
(128,-16,cs),
(128,-146,ls),
(128,-197,o),
(156,-222,o),
(209,-227,cs),
(278,-234,o),
(320,-254,o),
(320,-300,cs),
(320,-354,o),
(269,-374,o),
(207,-381,cs),
(156,-386,o),
(128,-411,o),
(128,-462,cs)
);
}
);
width = 640;
},
{
layerId = m002;
shapes = (
{
closed = 1;
nodes = (
(128,-553,ls),
(128,-605,o),
(157,-634,o),
(211,-631,cs),
(423,-619,o),
(620,-521,o),
(620,-368,cs),
(620,-231,o),
(587,-108,o),
(416,-108,c),
(416,-16,ls),
(416,36,o),
(393,64,o),
(352,64,cs),
(192,64,ls),
(151,64,o),
(128,36,o),
(128,-16,cs),
(128,-146,ls),
(128,-197,o),
(156,-242,o),
(209,-247,cs),
(278,-254,o),
(360,-259,o),
(360,-305,cs),
(360,-359,o),
(269,-364,o),
(207,-371,cs),
(156,-376,o),
(128,-441,o),
(128,-492,cs)
);
}
);
width = 748;
}
);
note = cedilla;
unicode = 184;
},
{
glyphname = ogonek;
lastChange = "2024-10-28 19:00:06 +0000";
layers = (
{
layerId = m01;
shapes = (
{
closed = 1;
nodes = (
(514,-427,ls),
(514,-377,o),
(485,-355,o),
(434,-347,cs),
(364,-336,o),
(320,-303,o),
(320,-224,cs),
(320,-151,o),
(350,-83,o),
(409,-21,cs),
(458,31,o),
(476,64,o),
(437,64,cs),
(347,64,o),
(128,-60,o),
(128,-274,cs),
(128,-414,o),
(278,-491,o),
(434,-507,cs),
(487,-512,o),
(514,-478,o),
(514,-427,cs)
);
}
);
width = 642;
},
{
layerId = m002;
shapes = (
{
closed = 1;
nodes = (
(682,-364,ls),
(682,-312,o),
(654,-284,o),
(602,-284,cs),
(532,-284,o),
(488,-243,o),
(488,-184,cs),
(488,-131,o),
(518,-83,o),
(577,-21,cs),
(626,31,o),
(571,64,o),
(532,64,cs),
(297,64,o),
(128,-39,o),
(128,-274,cs),
(128,-502,o),
(374,-544,o),
(602,-544,cs),
(654,-544,o),
(682,-516,o),
(682,-464,cs)
);
}
);
width = 810;
}
);
note = ogonek;
unicode = 731;
},
{
glyphname = Saltillo;
lastChange = "2024-10-29 00:13:28 +0000";
layers = (
{
layerId = m01;
shapes = (
{
closed = 1;
nodes = (
(209,527,ls),
(210,476,o),
(238,448,o),
(288,448,cs),
(338,448,o),
(366,476,o),
(367,527,cs),
(384,1455,ls),
(385,1508,o),
(355,1536,o),
(303,1536,cs),
(273,1536,ls),
(221,1536,o),
(191,1508,o),
(192,1455,cs)
);
}
);
width = 576;
},
{
layerId = m002;
shapes = (
{
closed = 1;
nodes = (
(246,491,ls),
(249,440,o),
(275,412,o),
(408,412,cs),
(541,412,o),
(567,440,o),
(570,491,cs),
(624,1455,ls),
(627,1508,o),
(596,1536,o),
(544,1536,cs),
(272,1536,ls),
(220,1536,o),
(189,1508,o),
(192,1455,cs)
);
}
);
width = 816;
}
);
unicode = 42891;
},
{
glyphname = glottalstop;
lastChange = "2024-11-20 21:53:55 +0000";
layers = (
{
layerId = m01;
shapes = (
{
closed = 1;
nodes = (
(676,528,ls),
(676,476,o),
(704,448,o),
(750,448,cs),
(762,448,ls),
(808,448,o),
(836,476,o),
(836,528,cs),
(836,601,ls),
(836,837,o),
(858,854,o),
(1039,854,cs),
(1190,854,ls),
(1585,854,o),
(1633,1011,o),
(1633,1210,cs),
(1633,1539,o),
(1376,1564,o),
(964,1564,cs),
(459,1564,o),
(226,1557,o),
(197,1232,cs),
(192,1178,o),
(224,1149,o),
(276,1149,cs),
(308,1149,ls),
(359,1149,o),
(384,1176,o),
(389,1227,cs),
(403,1383,o),
(493,1404,o),
(964,1404,cs),
(1336,1404,o),
(1441,1389,o),
(1441,1210,cs),
(1441,1064,o),
(1399,1014,o),
(1190,1014,cs),
(1039,1014,ls),
(703,1014,o),
(676,955,o),
(676,601,cs)
);
}
);
width = 1793;
},
{
layerId = m002;
shapes = (
{
closed = 1;
nodes = (
(681,528,ls),
(681,476,o),
(709,448,o),
(761,448,cs),
(925,448,ls),
(977,448,o),
(998,476,o),
(1005,528,cs),
(1008,549,ls),
(1011,571,o),
(1035,584,o),
(1102,584,cs),
(1252,584,ls),
(1753,584,o),
(1808,777,o),
(1808,1098,cs),
(1808,1535,o),
(1343,1568,o),
(1051,1568,cs),
(426,1568,o),
(225,1487,o),
(196,1114,cs),
(192,1060,o),
(223,1031,o),
(275,1031,cs),
(515,1031,ls),
(566,1031,o),
(591,1058,o),
(596,1109,cs),
(603,1186,o),
(695,1244,o),
(1061,1244,cs),
(1303,1244,o),
(1408,1229,o),
(1408,1058,cs),
(1408,957,o),
(1367,908,o),
(1252,908,cs),
(1102,908,ls),
(779,908,o),
(681,850,o),
(681,570,cs)
);
}
);
width = 1968;
}
);
unicode = 660;
},
{
glyphname = idotless;
lastChange = "2024-10-22 04:12:34 +0000";
layers = (
{
anchors = (
{
name = bottom;
pos = (224,0);
},
{
name = ogonek;
pos = (310,42);
},
{
name = top;
pos = (224,1152);
}
);
layerId = m01;
shapes = (
{
closed = 1;
nodes = (
(128,80,ls),
(128,28,o),
(156,0,o),
(208,0,cs),
(240,0,ls),
(292,0,o),
(320,28,o),
(320,80,cs),
(320,1040,ls),
(320,1092,o),
(292,1120,o),
(240,1120,cs),
(208,1120,ls),
(156,1120,o),
(128,1092,o),
(128,1040,cs)
);
}
);
width = 448;
},
{
anchors = (
{
name = bottom;
pos = (344,-30);
},
{
name = ogonek;
pos = (430,42);
},
{
name = top;
pos = (344,1182);
}
);
layerId = m002;
shapes = (
{
closed = 1;
nodes = (
(128,80,ls),
(128,28,o),
(156,0,o),
(208,0,cs),
(480,0,ls),
(532,0,o),
(560,28,o),
(560,80,cs),
(560,1040,ls),
(560,1092,o),
(532,1120,o),
(480,1120,cs),
(208,1120,ls),
(156,1120,o),
(128,1092,o),
(128,1040,cs)
);
}
);
width = 688;
}
);
unicode = 305;
},
{
glyphname = jdotless;
lastChange = "2024-11-18 02:01:35 +0000";
layers = (
{
anchors = (
{
name = bottom;
pos = (337,-544);
},
{
name = top;
pos = (385,1150);
}
);
layerId = m01;
shapes = (
{
closed = 1;
nodes = (
(-36,-304,ls),
(-36,-356,o),
(-8,-384,o),
(44,-384,cs),
(109,-384,ls),
(383,-384,o),
(481,-266,o),
(481,-24,cs),
(481,1072,ls),
(481,1124,o),
(453,1152,o),
(401,1152,cs),
(369,1152,ls),
(317,1152,o),
(289,1124,o),
(289,1072,cs),
(289,-24,ls),
(289,-193,o),
(238,-224,o),
(109,-224,cs),
(44,-224,ls),
(-8,-224,o),
(-36,-252,o),
(-36,-304,cs)
);
}
);
width = 673;
},
{
anchors = (
{
name = bottom;
pos = (427,-544);
},
{
name = top;
pos = (505,1152);
}
);
layerId = m002;
shapes = (
{
closed = 1;
nodes = (
(-36,-460,ls),
(-36,-512,o),
(-8,-540,o),
(44,-540,cs),
(109,-540,ls),
(593,-540,o),
(721,-422,o),
(721,-144,cs),
(721,1072,ls),
(721,1124,o),
(693,1152,o),
(641,1152,cs),
(369,1152,ls),
(317,1152,o),
(289,1124,o),
(289,1072,cs),
(289,20,ls),
(289,-185,o),
(238,-216,o),
(109,-216,cs),
(44,-216,ls),
(-8,-216,o),
(-36,-244,o),
(-36,-296,cs)
);
}
);
width = 853;
}
);
unicode = 567;
},
{
glyphname = longs;
lastChange = "2024-10-14 04:39:58 +0000";
layers = (
{
anchors = (
{
name = bottom;
pos = (400,0);
},
{
name = top;
pos = (400,2368);
}
);
layerId = m01;
shapes = (
{
closed = 1;
nodes = (
(192,0,l),
(384,0,l),
(384,1006,l),
(384,1202,l),
(384,1415,o),
(418,1452,o),
(704,1452,cs),
(848,1452,ls),
(900,1452,o),
(928,1480,o),
(928,1530,cs),
(928,1530,ls),
(928,1580,o),
(900,1608,o),
(848,1608,cs),
(705,1608,ls),
(346,1608,o),
(192,1530,o),
(192,1202,c),
(192,1006,l)
);
}
);
width = 928;
},
{
anchors = (
{
name = bottom;
pos = (472,0);
},
{
name = top;
pos = (472,2368);
}
);
layerId = m002;
shapes = (
{
closed = 1;
nodes = (
(192,0,l),
(624,0,l),
(624,962,l),
(624,1192,l),
(624,1261,o),
(658,1298,o),
(744,1298,cs),
(848,1298,ls),
(900,1298,o),
(928,1284,o),
(928,1378,cs),
(928,1530,ls),
(928,1580,o),
(900,1608,o),
(848,1608,cs),
(705,1608,ls),
(346,1608,o),
(192,1530,o),
(192,1202,c),
(192,1006,l)
);
}
);
width = 928;
}
);
unicode = 383;
},
{
glyphname = "upsilon-latin";
lastChange = "2024-11-20 22:45:22 +0000";
layers = (
{
anchors = (
{
name = bottom;
pos = (2413,-384);
},
{
name = "bottomright@ascender";
pos = (3228,-384);
},
{
name = ogonek;
pos = (2544,1132);
},
{
name = top;
pos = (2176,1152);
}
);
layerId = m01;
shapes = (
{
closed = 1;
nodes = (
(908,884,o),
(936,858,o),
(988,856,cs),
(1100,852,ls),
(1250,847,o),
(1336,783,o),
(1336,478,cs),
(1336,438,ls),
(1336,272,o),
(1262,128,o),
(910,128,cs),
(714,128,ls),
(362,128,o),
(288,272,o),
(288,438,cs),
(288,478,ls),
(288,788,o),
(358,846,o),
(524,852,cs),
(636,856,ls),
(688,858,o),
(716,884,o),
(716,936,cs),
(716,1232,ls),
(716,1284,o),
(688,1312,o),
(636,1312,cs),
(176,1312,ls),
(124,1312,o),
(96,1284,o),
(96,1232,cs),
(96,1180,o),
(124,1152,o),
(176,1152,cs),
(524,1152,l),
(524,1012,l),
(193,1012,o),
(96,818,o),
(96,478,cs),
(96,438,ls),
(96,179,o),
(239,-32,o),
(714,-32,cs),
(910,-32,ls),
(1385,-32,o),
(1528,179,o),
(1528,438,cs),
(1528,478,ls),
(1528,818,o),
(1431,1007,o),
(1100,1012,c),
(1100,1152,l),
(1448,1152,ls),
(1500,1152,o),
(1528,1180,o),
(1528,1232,cs),
(1528,1284,o),
(1500,1312,o),
(1448,1312,cs),
(988,1312,ls),
(936,1312,o),
(908,1284,o),
(908,1232,cs),
(908,936,ls)
);
}
);
width = 1624;
},
{
anchors = (
{
name = bottom;
pos = (2754,-384);
},
{
name = "bottomright@ascender";
pos = (3569,-384);
},
{
name = ogonek;
pos = (2885,1132);
},
{
name = top;
pos = (2517,1152);
}
);
layerId = m002;
shapes = (
{
closed = 1;
nodes = (
(988,799,o),
(1019,791,o),
(1068,771,cs),
(1140,741,ls),
(1194,718,o),
(1236,653,o),
(1236,488,cs),
(1236,428,ls),
(1236,312,o),
(1152,268,o),
(990,268,cs),
(794,268,ls),
(632,268,o),
(548,312,o),
(548,428,cs),
(548,488,ls),
(548,658,o),
(588,720,o),
(644,742,cs),
(716,771,ls),
(765,791,o),
(796,799,o),
(796,841,cs),
(796,1232,ls),
(796,1284,o),
(768,1312,o),
(716,1312,cs),
(246,1312,ls),
(194,1312,o),
(176,1284,o),
(176,1162,cs),
(176,1040,o),
(194,1012,o),
(246,1012,cs),
(472,1012,l),
(472,992,l),
(136,942,o),
(116,708,o),
(116,458,cs),
(116,428,ls),
(116,169,o),
(259,-32,o),
(794,-32,cs),
(990,-32,ls),
(1525,-32,o),
(1668,169,o),
(1668,428,cs),
(1668,458,ls),
(1668,708,o),
(1648,937,o),
(1312,992,c),
(1312,1012,l),
(1538,1012,ls),
(1590,1012,o),
(1608,1040,o),
(1608,1162,cs),
(1608,1284,o),
(1590,1312,o),
(1538,1312,cs),
(1068,1312,ls),
(1016,1312,o),
(988,1284,o),
(988,1232,cs),
(988,841,ls)
);
}
);
width = 1784;
}
);
unicode = 650;
},
{
glyphname = Gamma;
lastChange = "2024-11-18 03:22:54 +0000";
layers = (
{
anchors = (
{
name = bottom;
pos = (864,0);
},
{
name = top;
pos = (864,1536);
}
);
layerId = m01;
shapes = (
{
closed = 1;
nodes = (
(192,80,ls),
(192,28,o),
(220,0,o),
(272,0,cs),
(304,0,ls),
(356,0,o),
(384,28,o),
(384,80,cs),
(384,1376,l),
(1560,1376,ls),
(1612,1376,o),
(1640,1404,o),
(1640,1456,cs),
(1640,1456,ls),
(1640,1508,o),
(1612,1536,o),
(1560,1536,cs),
(272,1536,ls),
(220,1536,o),
(192,1508,o),
(192,1456,cs)
);
}
);
width = 1736;
},
{
anchors = (
{
name = bottom;
pos = (864,0);
},
{
name = top;
pos = (864,1536);
}
);
layerId = m002;
shapes = (
{
closed = 1;
nodes = (
(192,80,ls),
(192,28,o),
(220,0,o),
(272,0,cs),
(544,0,ls),
(596,0,o),
(624,28,o),
(624,80,cs),
(624,1248,l),
(1560,1248,ls),
(1612,1248,o),
(1640,1276,o),
(1640,1328,cs),
(1640,1492,ls),
(1640,1544,o),
(1612,1572,o),
(1560,1572,cs),
(272,1572,ls),
(220,1572,o),
(192,1544,o),
(192,1492,cs)
);
}
);
width = 1736;
}
);
unicode = 915;
},
{
glyphname = Delta;
lastChange = "2024-11-20 22:43:09 +0000";
layers = (
{
layerId = m01;
shapes = (
{
closed = 1;
nodes = (
(1959,0,ls),
(2023,0,o),
(2046,40,o),
(2014,96,cs),
(1206,1481,ls),
(1184,1519,o),
(1155,1536,o),
(1111,1536,cs),
(981,1536,ls),
(937,1536,o),
(908,1519,o),
(886,1481,cs),
(78,96,ls),
(46,40,o),
(69,0,o),
(133,0,cs)
);
},
{
closed = 1;
nodes = (
(1046,1408,l),
(1761,160,l),
(331,160,l)
);
}
);
width = 2092;
},
{
layerId = m002;
shapes = (
{
closed = 1;
nodes = (
(2017,0,ls),
(2081,0,o),
(2099,40,o),
(2072,96,cs),
(1406,1481,ls),
(1388,1519,o),
(1355,1536,o),
(1311,1536,cs),
(835,1536,ls),
(791,1536,o),
(758,1519,o),
(740,1481,cs),
(76,96,ls),
(49,40,o),
(67,0,o),
(131,0,cs)
);
},
{
closed = 1;
nodes = (
(1073,1212,l),
(1499,324,l),
(647,324,l)
);
}
);
width = 2148;
}
);
unicode = 916;
},
{
glyphname = Sigma;
lastChange = "2024-11-18 02:45:28 +0000";
layers = (
{
anchors = (
{
name = bottom;
pos = (1664,1208);
},
{
name = top;
pos = (128,1208);
}
);
layerId = m01;
shapes = (
{
closed = 1;
nodes = (
(1456,0,ls),
(1508,0,o),
(1536,28,o),
(1536,80,cs),
(1536,80,ls),
(1536,132,o),
(1508,160,o),
(1456,160,cs),
(288,160,l),
(873,661,ls),
(906,690,o),
(922,716,o),
(922,758,cs),
(922,778,ls),
(922,820,o),
(906,846,o),
(873,875,cs),
(288,1376,l),
(1456,1376,ls),
(1508,1376,o),
(1536,1404,o),
(1536,1456,cs),
(1536,1456,ls),
(1536,1508,o),
(1508,1536,o),
(1456,1536,cs),
(208,1536,ls),
(156,1536,o),
(128,1508,o),
(128,1456,cs),
(128,1343,ls),
(128,1301,o),
(144,1273,o),
(177,1246,cs),
(752,763,l),
(177,290,ls),
(145,264,o),
(128,235,o),
(128,193,cs),
(128,80,ls),
(128,28,o),
(156,0,o),
(208,0,cs)
);
}
);
width = 1664;
},
{
anchors = (
{
name = bottom;
pos = (1540,1208);
},
{
name = top;
pos = (4,1208);
}
);
layerId = m002;
shapes = (
{
closed = 1;
nodes = (
(1456,0,ls),
(1508,0,o),
(1536,28,o),
(1536,80,cs),
(1536,280,ls),
(1536,332,o),
(1508,360,o),
(1456,360,cs),
(488,361,l),
(961,581,ls),
(995,597,o),
(1010,636,o),
(1010,678,cs),
(1010,858,ls),
(1010,900,o),
(995,939,o),
(961,955,cs),
(488,1176,l),
(1456,1176,ls),
(1508,1176,o),
(1536,1204,o),
(1536,1256,cs),
(1536,1456,ls),
(1536,1508,o),
(1508,1536,o),
(1456,1536,cs),
(208,1536,ls),
(156,1536,o),
(128,1508,o),
(128,1456,cs),
(128,1057,ls),
(128,1015,o),
(143,974,o),
(177,960,cs),
(650,768,l),
(177,576,ls),
(143,562,o),
(128,521,o),
(128,479,cs),
(128,80,ls),
(128,28,o),
(156,0,o),
(208,0,cs)
);
}
);
width = 1664;
}
);
unicode = 931;
},
{
glyphname = Omega;
lastChange = "2024-11-18 03:23:08 +0000";
layers = (
{
layerId = m01;
shapes = (
{
closed = 1;
nodes = (
(1273,80,ls),
(1273,28,o),
(1301,0,o),
(1353,0,cs),
(1818,0,ls),
(1870,0,o),
(1898,28,o),
(1898,80,cs),
(1898,132,o),
(1870,160,o),
(1818,160,cs),
(1465,160,l),
(1465,320,l),
(1921,325,o),
(2018,504,o),
(2018,748,cs),
(2018,788,ls),
(2018,1467,o),
(1875,1568,o),
(1275,1568,cs),
(871,1568,ls),
(271,1568,o),
(128,1467,o),
(128,788,cs),
(128,748,ls),
(128,504,o),
(225,320,o),
(681,320,c),
(681,160,l),
(328,160,ls),
(276,160,o),
(248,132,o),
(248,80,cs),
(248,28,o),
(276,0,o),
(328,0,cs),
(793,0,ls),
(845,0,o),
(873,28,o),
(873,80,cs),
(873,396,ls),
(873,448,o),
(845,474,o),
(793,476,cs),
(681,480,ls),
(390,490,o),
(320,534,o),
(320,748,cs),
(320,788,ls),
(320,1374,o),
(394,1408,o),
(871,1408,cs),
(1275,1408,ls),
(1752,1408,o),
(1826,1374,o),
(1826,788,cs),
(1826,748,ls),
(1826,539,o),
(1740,490,o),
(1465,480,cs),
(1353,476,ls),
(1301,474,o),
(1273,448,o),
(1273,396,cs)
);
}
);
width = 2146;
},
{
layerId = m002;
shapes = (
{
closed = 1;
nodes = (
(1253,80,ls),
(1253,28,o),
(1281,0,o),
(1333,0,cs),
(1918,0,ls),
(1990,0,o),
(1998,28,o),
(1998,162,cs),
(1998,296,o),
(1990,324,o),
(1918,324,cs),
(1685,324,l),
(1685,414,l),
(1941,459,o),
(2058,648,o),
(2058,908,cs),
(2058,948,ls),
(2058,1367,o),
(1905,1568,o),
(1295,1568,cs),
(891,1568,ls),
(281,1568,o),
(128,1367,o),
(128,948,cs),
(128,908,ls),
(128,648,o),
(245,454,o),
(501,414,c),
(501,324,l),
(268,324,ls),
(196,324,o),
(188,296,o),
(188,162,cs),
(188,28,o),
(196,0,o),
(268,0,cs),
(853,0,ls),
(905,0,o),
(933,28,o),
(933,80,cs),
(933,585,ls),
(933,637,o),
(905,658,o),
(853,665,cs),
(721,684,ls),
(631,697,o),
(560,778,o),
(560,908,cs),
(560,948,ls),
(560,1130,o),
(634,1244,o),
(891,1244,cs),
(1295,1244,ls),
(1552,1244,o),
(1626,1130,o),
(1626,948,cs),
(1626,908,ls),
(1626,783,o),
(1539,695,o),
(1465,684,cs),
(1333,665,ls),
(1281,658,o),
(1253,637,o),
(1253,585,cs)
);
}
);
width = 2186;
}
);
unicode = 937;
},
{
glyphname = mu;
lastChange = "2024-10-20 19:34:29 +0000";
layers = (
{
background = {
shapes = (
{
closed = 1;
nodes = (
(324,-384,l),
(132,-384,l),
(132,-104,l),
(131,294,l),
(131,580,l),
(132,886,l),
(132,1088,l),
(324,1088,l),
(324,512,ls),
(324,377,o),
(336,277,o),
(404,213,cs),
(464,156,o),
(587,128,o),
(772,128,cs),
(1053,128,o),
(1217,191,o),
(1263,317,cs),
(1277,356,o),
(1284,400,o),
(1284,448,cs),
(1284,1088,l),
(1476,1088,l),
(1476,0,l),
(1284,0,l),
(1284,191,l),
(1244,111,o),
(1174,60,o),
(1079,24,cs),
(980,-13,o),
(851,-32,o),
(693,-32,cs),
(535,-32,o),
(412,-10,o),
(324,33,c)
);
}
);
};
layerId = m01;
shapes = (
{
angle = 180;
pos = (1433,1152);
ref = n;
},
{
pos = (-25,0);
ref = "stem-low";
}
);
width = 1433;
},
{
background = {
shapes = (
{
closed = 1;
nodes = (
(563,-384,l),
(371,-384,l),
(371,-104,l),
(370,294,l),
(370,580,l),
(371,886,l),
(371,1088,l),
(563,1088,l),
(563,512,ls),
(563,377,o),
(575,277,o),
(643,213,cs),
(703,156,o),
(826,128,o),
(1011,128,cs),
(1292,128,o),
(1456,191,o),
(1502,317,cs),
(1516,356,o),
(1523,400,o),
(1523,448,cs),
(1523,1088,l),
(1715,1088,l),
(1715,0,l),
(1523,0,l),
(1523,191,l),
(1483,111,o),
(1413,60,o),
(1318,24,cs),
(1219,-13,o),
(1090,-32,o),
(932,-32,cs),
(774,-32,o),
(651,-10,o),
(563,33,c)
);
}
);
};
layerId = m002;
shapes = (
{
angle = 180;
pos = (1687,1152);
ref = n;
},
{
pos = (-12,0);
ref = "stem-low";
}
);
width = 1687;
}
);
unicode = 956;
},
{
glyphname = onesuperior;
lastChange = "2024-10-26 16:32:47 +0000";
layers = (
{
layerId = m01;
shapes = (
{
closed = 1;
nodes = (
(522,444,ls),
(522,405,o),
(543,384,o),
(582,384,cs),
(606,384,ls),
(645,384,o),
(666,405,o),
(666,444,cs),
(666,1476,l),
(666,1515,o),
(645,1536,o),
(606,1536,cs),
(549,1536,ls),
(522,1536,o),
(501,1533,o),
(475,1524,cs),
(105,1402,ls),
(68,1390,o),
(55,1361,o),
(70,1325,cs),
(70,1325,ls),
(84,1289,o),
(111,1277,o),
(147,1289,cs),
(522,1415,l)
);
}
);
width = 834;
},
{
layerId = m002;
shapes = (
{
closed = 1;
nodes = (
(433,444,ls),
(433,405,o),
(454,384,o),
(493,384,cs),
(697,384,ls),
(736,384,o),
(757,405,o),
(757,444,cs),
(757,1476,l),
(757,1515,o),
(736,1536,o),
(697,1536,cs),
(550,1536,ls),
(523,1536,o),
(502,1533,o),
(476,1524,cs),
(106,1402,ls),
(69,1389,o),
(55,1364,o),
(71,1325,cs),
(127,1186,ls),
(142,1149,o),
(157,1138,o),
(196,1151,cs),
(433,1229,l)
);
}
);
width = 925;
}
);
note = uni00B9;
unicode = 185;
},
{
glyphname = euro;
lastChange = "2024-11-18 02:53:02 +0000";
layers = (
{
anchors = (
{
name = bottom;
pos = (942,-20);
},
{
name = top;
pos = (957,1174);
}
);
layerId = m01;
shapes = (
{
closed = 1;
nodes = (
);
},
{
closed = 1;
nodes = (
);
},
{
closed = 1;
nodes = (
(318,748,ls),
(318,89,o),
(461,-32,o),
(941,-32,cs),
(1104,-32,ls),
(1509,-32,o),
(1709,22,o),
(1731,436,cs),
(1734,490,o),
(1704,519,o),
(1652,519,cs),
(1620,519,ls),
(1569,519,o),
(1542,491,o),
(1539,438,cs),
(1521,134,o),
(1389,134,o),
(1104,134,cs),
(941,134,ls),
(584,134,o),
(510,182,o),
(510,748,cs),
(510,788,ls),
(510,1374,o),
(584,1402,o),
(941,1402,cs),
(1104,1402,ls),
(1389,1402,o),
(1521,1394,o),
(1539,1088,cs),
(1542,1035,o),
(1569,1007,o),
(1620,1007,cs),
(1652,1007,ls),
(1704,1007,o),
(1734,1036,o),
(1731,1090,cs),
(1709,1505,o),
(1509,1568,o),
(1104,1568,cs),
(941,1568,ls),
(461,1568,o),
(318,1467,o),
(318,788,cs)
);
},
{
ref = "en-equals";
}
);
width = 1923;
},
{
anchors = (
{
name = bottom;
pos = (942,-20);
},
{
name = top;
pos = (957,1174);
}
);
layerId = m002;
shapes = (
{
closed = 1;
nodes = (
);
},
{
closed = 1;
nodes = (
);
},
{
closed = 1;
nodes = (
(318,748,ls),
(318,89,o),
(661,-32,o),
(981,-32,cs),
(1064,-32,ls),
(1379,-32,o),
(1699,22,o),
(1721,436,cs),
(1724,490,o),
(1694,519,o),
(1642,519,cs),
(1370,519,ls),
(1319,519,o),
(1298,491,o),
(1289,438,cs),
(1271,328,o),
(1140,318,o),
(1064,318,cs),
(981,318,ls),
(824,318,o),
(750,436,o),
(750,748,cs),
(750,788,ls),
(750,1090,o),
(824,1218,o),
(981,1218,cs),
(1064,1218,ls),
(1140,1218,o),
(1271,1200,o),
(1289,1088,cs),
(1298,1035,o),
(1319,1007,o),
(1370,1007,cs),
(1642,1007,ls),
(1694,1007,o),
(1724,1036,o),
(1721,1090,cs),
(1699,1505,o),
(1379,1568,o),
(1064,1568,cs),
(981,1568,ls),
(661,1568,o),
(318,1467,o),
(318,788,cs)
);
},
{
ref = "en-equals";
}
);
width = 1913;
}
);
note = Euro;
unicode = 8364;
},
{
glyphname = horncomb;
lastChange = "2024-10-14 05:00:11 +0000";
layers = (
{
anchors = (
{
name = _topright;
pos = (190,1152);
},
{
name = topright;
pos = (574,1598);
}
);
layerId = m01;
shapes = (
{
closed = 1;
nodes = (
(458,1593,o),
(424,1564,o),
(424,1512,cs),
(424,1394,o),
(327,1309,o),
(209,1309,cs),
(157,1309,o),
(128,1275,o),
(128,1221,cs),
(128,1167,o),
(157,1153,o),
(211,1153,cs),
(417,1153,o),
(580,1304,o),
(580,1510,cs),
(580,1564,o),
(566,1593,o),
(512,1593,cs)
);
}
);
width = 697;
},
{
anchors = (
{
name = _topright;
pos = (190,1152);
},
{
name = topright;
pos = (574,1598);
}
);
layerId = m002;
shapes = (
{
closed = 1;
nodes = (
(313,1596,o),
(274,1567,o),
(274,1515,cs),
(274,1397,o),
(177,1312,o),
(59,1312,cs),
(7,1312,o),
(-22,1276,o),
(-22,1162,cs),
(-22,1048,o),
(7,1012,o),
(61,1012,cs),
(367,1012,o),
(580,1207,o),
(580,1513,cs),
(580,1567,o),
(541,1596,o),
(427,1596,cs)
);
}
);
width = 697;
}
);
unicode = 795;
},
{
glyphname = strokeshortcomb;
lastChange = "2024-10-28 20:13:52 +0000";
layers = (
{
anchors = (
{
name = _center;
pos = (384,576);
}
);
layerId = m01;
shapes = (
{
closed = 1;
nodes = (
(768,627,o),
(740,654,o),
(688,654,cs),
(80,654,ls),
(28,654,o),
(0,627,o),
(0,576,cs),
(0,576,ls),
(0,524,o),
(28,498,o),
(80,498,cs),
(688,498,ls),
(740,498,o),
(768,524,o),
(768,576,cs),
(768,576,ls)
);
}
);
width = 768;
},
{
anchors = (
{
name = _center;
pos = (384,576);
}
);
layerId = m002;
shapes = (
{
closed = 1;
nodes = (
(768,677,o),
(740,706,o),
(688,706,cs),
(80,706,ls),
(28,706,o),
(0,677,o),
(0,626,cs),
(0,526,ls),
(0,474,o),
(28,446,o),
(80,446,cs),
(688,446,ls),
(740,446,o),
(768,474,o),
(768,526,cs),
(768,626,ls)
);
}
);
width = 768;
}
);
unicode = 821;
},
{
glyphname = strokelongcomb;
lastChange = "2024-10-20 20:45:15 +0000";
layers = (
{
anchors = (
{
name = _center;
pos = (976,576);
}
);
layerId = m01;
shapes = (
{
closed = 1;
nodes = (
(1952,627,o),
(1924,656,o),
(1872,656,cs),
(80,656,ls),
(28,656,o),
(0,627,o),
(0,576,cs),
(0,576,ls),
(0,524,o),
(28,496,o),
(80,496,cs),
(1872,496,ls),
(1924,496,o),
(1952,524,o),
(1952,576,cs),
(1952,576,ls)
);
}
);
width = 1952;
},
{
anchors = (
{
name = _center;
pos = (976,576);
}
);
layerId = m002;
shapes = (
{
closed = 1;
nodes = (
(1952,695,o),
(1924,724,o),
(1872,724,cs),
(80,724,ls),
(28,724,o),
(0,695,o),
(0,644,cs),
(0,508,ls),
(0,456,o),
(28,428,o),
(80,428,cs),
(1872,428,ls),
(1924,428,o),
(1952,456,o),
(1952,508,cs),
(1952,644,ls)
);
}
);
width = 1952;
}
);
unicode = 822;
},
{
glyphname = slashshortcomb;
lastChange = "2024-10-28 23:30:19 +0000";
layers = (
{
anchors = (
{
name = _center;
pos = (346,576);
}
);
layerId = m01;
shapes = (
{
closed = 1;
nodes = (
(566,557,ls),
(611,570,o),
(634,599,o),
(634,646,cs),
(634,656,ls),
(634,705,o),
(599,726,o),
(544,711,cs),
(126,595,ls),
(81,582,o),
(58,553,o),
(58,506,cs),
(58,496,ls),
(58,447,o),
(93,426,o),
(148,441,cs)
);
}
);
width = 690;
},
{
anchors = (
{
name = _center;
pos = (436,571);
}
);
layerId = m002;
shapes = (
{
closed = 1;
nodes = (
(782,535,ls),
(827,548,o),
(850,577,o),
(850,624,cs),
(850,738,ls),
(850,787,o),
(815,808,o),
(760,793,cs),
(126,617,ls),
(81,604,o),
(58,575,o),
(58,528,cs),
(58,414,ls),
(58,365,o),
(93,344,o),
(148,359,cs)
);
}
);
width = 906;
}
);
unicode = 823;
},
{
glyphname = ringhalfright;
lastChange = "2024-10-28 19:01:06 +0000";
layers = (
{
layerId = m01;
shapes = (
{
closed = 1;
nodes = (
(514,1919,o),
(377,1974,o),
(144,1974,cs),
(112,1974,o),
(96,1952,o),
(96,1910,cs),
(96,1859,o),
(112,1846,o),
(144,1846,cs),
(345,1846,o),
(374,1805,o),
(374,1659,cs),
(374,1513,o),
(345,1472,o),
(144,1472,cs),
(112,1472,o),
(96,1450,o),
(96,1408,cs),
(96,1366,o),
(112,1344,o),
(144,1344,cs),
(377,1344,o),
(514,1399,o),
(514,1659,cs)
);
}
);
width = 642;
},
{
layerId = m002;
shapes = (
{
closed = 1;
nodes = (
(668,1961,o),
(474,2071,o),
(174,2071,cs),
(122,2071,o),
(96,2046,o),
(96,1954,cs),
(96,1843,o),
(122,1831,o),
(174,1831,cs),
(354,1831,o),
(388,1749,o),
(388,1661,cs),
(388,1573,o),
(354,1491,o),
(174,1491,cs),
(122,1491,o),
(96,1470,o),
(96,1368,cs),
(96,1266,o),
(122,1251,o),
(174,1251,cs),
(494,1251,o),
(668,1361,o),
(668,1661,cs)
);
}
);
width = 796;
}
);
unicode = 702;
},
{
export = 0;
glyphname = "accent-vertical";
lastChange = "2024-11-20 23:36:27 +0000";
layers = (
{
layerId = m01;
shapes = (
{
closed = 1;
nodes = (
(137,1229,ls),
(138,1178,o),
(165,1152,o),
(207,1152,cs),
(227,1152,ls),
(269,1152,o),
(296,1178,o),
(297,1229,cs),
(313,1805,ls),
(315,1859,o),
(289,1888,o),
(236,1888,cs),
(198,1888,ls),
(145,1888,o),
(119,1859,o),
(121,1805,cs)
);
}
);
width = 434;
},
{
layerId = m002;
shapes = (
{
closed = 1;
nodes = (
(180,1229,ls),
(185,1178,o),
(208,1152,o),
(250,1152,cs),
(434,1152,ls),
(476,1152,o),
(499,1178,o),
(504,1229,cs),
(558,1805,ls),
(563,1859,o),
(534,1888,o),
(481,1888,cs),
(203,1888,ls),
(150,1888,o),
(121,1859,o),
(126,1805,cs)
);
}
);
width = 684;
}
);
},
{
export = 0;
glyphname = "body-k";
lastChange = "2024-11-20 23:36:27 +0000";
layers = (
{
layerId = m01;
shapes = (
{
closed = 1;
nodes = (
(-160,591,l),
(753,33,ls),
(786,13,o),
(813,0,o),
(852,0,cs),
(940,0,ls),
(1005,0,o),
(1012,60,o),
(948,98,cs),
(83,611,l),
(845,1055,ls),
(911,1094,o),
(893,1152,o),
(815,1152,cs),
(754,1152,ls),
(715,1152,o),
(688,1141,o),
(655,1122,cs),
(-160,649,l)
);
}
);
width = 993;
},
{
layerId = m002;
shapes = (
{
closed = 1;
nodes = (
(-160,556,l),
(402,31,ls),
(433,2,o),
(462,0,o),
(501,0,cs),
(811,0,ls),
(876,0,o),
(872,45,o),
(819,98,cs),
(307,610,l),
(751,1054,ls),
(807,1110,o),
(799,1152,o),
(721,1152,cs),
(436,1152,ls),
(397,1152,o),
(366,1150,o),
(337,1122,cs),
(-160,649,l)
);
}
);
width = 859;
}
);
},
{
export = 0;
glyphname = "bowl-Alpha";
lastChange = "2024-11-20 23:36:27 +0000";
layers = (
{
layerId = m01;
shapes = (
{
closed = 1;
nodes = (
(1048,0,o),
(1217,58,o),
(1314,189,c),
(1314,1348,l),
(1217,1477,o),
(1048,1536,o),
(801,1536,cs),
(285,1536,o),
(96,1297,o),
(96,774,cs),
(96,235,o),
(285,0,o),
(801,0,cs)
);
},
{
closed = 1;
nodes = (
(1314,378,o),
(1235,160,o),
(801,160,cs),
(325,160,o),
(288,378,o),
(288,774,cs),
(288,1154,o),
(325,1376,o),
(801,1376,cs),
(1235,1376,o),
(1314,1154,o),
(1314,774,cs)
);
}
);
width = 1314;
},
{
layerId = m002;
shapes = (
{
closed = 1;
nodes = (
(1168,0,o),
(1337,58,o),
(1434,189,c),
(1434,1348,l),
(1337,1477,o),
(1168,1536,o),
(921,1536,cs),
(285,1536,o),
(96,1297,o),
(96,774,cs),
(96,235,o),
(285,0,o),
(921,0,cs)
);
},
{
closed = 1;
nodes = (
(1434,378,o),
(1355,324,o),
(921,324,cs),
(565,324,o),
(528,542,o),
(528,774,cs),
(528,990,o),
(565,1212,o),
(921,1212,cs),
(1355,1212,o),
(1434,1154,o),
(1434,774,cs)
);
}
);
width = 1434;
}
);
},
{
export = 0;
glyphname = "bowl-P";
lastChange = "2024-11-20 23:36:27 +0000";
layers = (
{
layerId = m01;
shapes = (
{
closed = 1;
nodes = (
(196,672,ls),
(196,620,o),
(224,592,o),
(276,592,c),
(1218,592,l),
(1818,592,o),
(1916,713,o),
(1916,1044,cs),
(1916,1084,ls),
(1916,1431,o),
(1824,1536,o),
(1224,1536,cs),
(276,1536,ls),
(224,1536,o),
(196,1508,o),
(196,1456,cs)
);
},
{
closed = 1;
nodes = (
(1724,1044,ls),
(1724,806,o),
(1664,758,o),
(1187,758,cs),
(388,758,l),
(388,1370,l),
(1187,1370,ls),
(1664,1370,o),
(1724,1338,o),
(1724,1084,cs)
);
}
);
width = 1991;
},
{
layerId = m002;
shapes = (
{
closed = 1;
nodes = (
(196,606,ls),
(196,554,o),
(224,526,o),
(276,526,c),
(1218,526,l),
(1818,526,o),
(1916,601,o),
(1916,997,cs),
(1916,1037,ls),
(1916,1384,o),
(1824,1536,o),
(1224,1536,cs),
(276,1536,ls),
(224,1536,o),
(196,1508,o),
(196,1456,cs)
);
},
{
closed = 1;
nodes = (
(1484,997,ls),
(1484,870,o),
(1424,822,o),
(1147,822,cs),
(628,822,l),
(628,1212,l),
(1147,1212,ls),
(1424,1212,o),
(1484,1180,o),
(1484,1037,cs)
);
}
);
width = 1991;
}
);
},
{
export = 0;
glyphname = "bowl-a";
lastChange = "2024-11-20 23:36:27 +0000";
layers = (
{
layerId = m01;
shapes = (
{
closed = 1;
nodes = (
(1274,-22,o),
(1435,46,o),
(1435,554,cs),
(1435,1062,o),
(1351,1174,o),
(812,1174,cs),
(363,1174,o),
(208,1139,o),
(181,924,cs),
(174,871,o),
(205,842,o),
(258,842,cs),
(291,842,ls),
(341,842,o),
(362,868,o),
(373,916,cs),
(392,996,o),
(472,1014,o),
(812,1014,cs),
(1184,1014,o),
(1237,986,o),
(1243,633,c),
(1118,659,o),
(969,669,o),
(735,669,cs),
(301,669,o),
(128,634,o),
(128,321,cs),
(128,13,o),
(320,-22,o),
(735,-22,cs)
);
},
{
closed = 1;
nodes = (
(374,138,o),
(321,151,o),
(320,321,cs),
(319,496,o),
(373,513,o),
(734,509,cs),
(1242,503,l),
(1243,330,ls),
(1244,183,o),
(1192,138,o),
(735,138,cs)
);
}
);
width = 1563;
},
{
layerId = m002;
shapes = (
{
closed = 1;
nodes = (
(1254,-22,o),
(1435,46,o),
(1435,554,cs),
(1435,982,o),
(1417,1174,o),
(810,1174,cs),
(331,1174,o),
(176,1139,o),
(149,874,cs),
(144,821,o),
(173,792,o),
(226,792,cs),
(481,792,ls),
(531,792,o),
(556,808,o),
(561,858,cs),
(567,918,o),
(650,934,o),
(810,934,cs),
(966,934,o),
(997,896,o),
(1003,633,c),
(878,659,o),
(777,689,o),
(645,689,cs),
(291,689,o),
(128,634,o),
(128,321,cs),
(128,73,o),
(230,-22,o),
(735,-22,cs)
);
},
{
closed = 1;
nodes = (
(614,218,o),
(560,271,o),
(560,321,cs),
(560,406,o),
(604,452,o),
(735,449,cs),
(1003,443,l),
(1003,330,ls),
(1003,233,o),
(984,218,o),
(735,218,cs)
);
}
);
width = 1563;
}
);
},
{
export = 0;
glyphname = "bowl-d";
lastChange = "2024-11-20 23:36:27 +0000";
layers = (
{
layerId = m01;
shapes = (
{
closed = 1;
nodes = (
(1048,-22,o),
(1217,1,o),
(1314,132,c),
(1314,1021,l),
(1217,1150,o),
(1048,1174,o),
(801,1174,cs),
(285,1174,o),
(96,1105,o),
(96,582,cs),
(96,43,o),
(285,-22,o),
(801,-22,cs)
);
},
{
closed = 1;
nodes = (
(1314,186,o),
(1235,138,o),
(801,138,cs),
(325,138,o),
(288,186,o),
(288,582,cs),
(288,962,o),
(325,1014,o),
(801,1014,cs),
(1235,1014,o),
(1314,962,o),
(1314,582,cs)
);
}
);
width = 1638;
},
{
layerId = m002;
shapes = (
{
closed = 1;
nodes = (
(918,-22,o),
(1257,8,o),
(1314,139,c),
(1314,971,l),
(1257,1102,o),
(1058,1174,o),
(761,1174,cs),
(325,1174,o),
(96,1105,o),
(96,582,cs),
(96,43,o),
(325,-22,o),
(811,-22,cs)
);
},
{
closed = 1;
nodes = (
(1314,324,o),
(1235,278,o),
(881,278,cs),
(605,278,o),
(558,324,o),
(558,582,cs),
(558,822,o),
(605,874,o),
(881,874,cs),
(1235,874,o),
(1314,822,o),
(1314,582,cs)
);
}
);
width = 1638;
}
);
},
{
export = 0;
glyphname = "bowl-germandbis";
lastChange = "2024-11-20 23:36:27 +0000";
layers = (
{
layerId = m01;
shapes = (
{
closed = 1;
nodes = (
(154,889,ls),
(104,837,o),
(131,791,o),
(200,791,cs),
(267,791,ls),
(309,791,o),
(334,805,o),
(365,836,cs),
(816,1301,ls),
(845,1331,o),
(853,1360,o),
(853,1400,cs),
(853,1456,ls),
(853,1508,o),
(825,1536,o),
(773,1536,cs),
(80,1536,ls),
(28,1536,o),
(0,1508,o),
(0,1456,cs),
(0,1456,ls),
(0,1404,o),
(28,1376,o),
(80,1376,cs),
(629,1376,l)
);
},
{
closed = 1;
nodes = (
(779,0,o),
(960,25,o),
(960,476,cs),
(960,893,o),
(885,954,o),
(260,954,cs),
(208,954,o),
(180,926,o),
(180,874,cs),
(180,822,o),
(208,791,o),
(260,791,cs),
(741,791,o),
(768,775,o),
(768,476,cs),
(768,188,o),
(762,160,o),
(260,160,cs),
(208,160,o),
(180,132,o),
(180,80,cs),
(180,28,o),
(208,0,o),
(260,0,cs)
);
}
);
width = 960;
},
{
layerId = m002;
shapes = (
{
closed = 1;
nodes = (
(54,889,ls),
(5,836,o),
(31,672,o),
(100,672,cs),
(287,672,ls),
(329,672,o),
(436,802,o),
(465,836,cs),
(791,1217,ls),
(818,1249,o),
(828,1276,o),
(828,1316,cs),
(828,1492,ls),
(828,1544,o),
(800,1572,o),
(748,1572,cs),
(60,1572,ls),
(8,1572,o),
(-20,1544,o),
(-20,1492,cs),
(-20,1308,ls),
(-20,1256,o),
(8,1248,o),
(60,1248,cs),
(384,1248,l)
);
},
{
closed = 1;
nodes = (
(724,0,o),
(935,25,o),
(935,476,cs),
(935,893,o),
(860,954,o),
(180,954,cs),
(128,954,o),
(100,936,o),
(100,824,cs),
(100,712,o),
(128,672,o),
(180,672,cs),
(426,672,o),
(503,645,o),
(503,466,cs),
(503,298,o),
(407,260,o),
(100,260,cs),
(48,260,o),
(20,252,o),
(20,140,cs),
(20,28,o),
(48,0,o),
(100,0,cs)
);
}
);
width = 915;
}
);
},
{
export = 0;
glyphname = "bowl-n";
lastChange = "2024-11-20 23:36:27 +0000";
layers = (
{
layerId = m01;
shapes = (
{
closed = 1;
nodes = (
(1145,0,ls),
(1197,0,o),
(1225,28,o),
(1225,80,cs),
(1225,640,ls),
(1225,1054,o),
(1071,1184,o),
(708,1184,cs),
(367,1184,o),
(224,1103,o),
(128,909,c),
(212,704,l),
(212,930,o),
(344,1024,o),
(684,1024,cs),
(944,1024,o),
(1033,955,o),
(1033,640,cs),
(1033,80,ls),
(1033,28,o),
(1061,0,o),
(1113,0,cs)
);
}
);
width = 1353;
},
{
layerId = m002;
shapes = (
{
closed = 1;
nodes = (
(1165,0,ls),
(1212,0,o),
(1240,28,o),
(1240,80,cs),
(1240,640,ls),
(1240,1064,o),
(1066,1184,o),
(588,1184,cs),
(377,1184,o),
(224,1103,o),
(128,909,c),
(212,569,l),
(212,795,o),
(274,884,o),
(564,884,cs),
(739,884,o),
(808,838,o),
(808,523,cs),
(808,80,ls),
(808,28,o),
(836,0,o),
(888,0,cs)
);
}
);
width = 1368;
}
);
},
{
export = 0;
glyphname = "bowl-r";
lastChange = "2024-11-20 23:42:07 +0000";
layers = (
{
layerId = m01;
shapes = (
{
closed = 1;
nodes = (
(808,1114,ls),
(808,1166,o),
(780,1184,o),
(728,1184,cs),
(562,1184,o),
(343,1170,o),
(232,1029,c),
(232,704,l),
(243,932,o),
(372,1024,o),
(728,1024,c),
(780,1024,o),
(808,1043,o),
(808,1094,cs)
);
}
);
width = 924;
},
{
layerId = m002;
shapes = (
{
closed = 1;
nodes = (
(808,1114,ls),
(808,1166,o),
(780,1184,o),
(728,1184,cs),
(562,1184,o),
(343,1170,o),
(232,1029,c),
(232,564,l),
(242,790,o),
(364,884,o),
(704,884,c),
(782,884,o),
(808,898,o),
(808,954,cs)
);
}
);
width = 924;
}
);
},
{
export = 0;
glyphname = "esh-mini";
lastChange = "2024-11-20 23:36:27 +0000";
layers = (
{
layerId = m01;
shapes = (
{
closed = 1;
nodes = (
(855,1508,o),
(827,1536,o),
(775,1536,cs),
(710,1536,ls),
(436,1536,o),
(336,1418,o),
(337,1176,cs),
(338,856,ls),
(339,687,o),
(308,656,o),
(273,656,cs),
(208,656,ls),
(156,656,o),
(128,628,o),
(128,576,cs),
(128,524,o),
(156,496,o),
(208,496,cs),
(273,496,ls),
(452,496,o),
(531,614,o),
(530,856,cs),
(529,1176,ls),
(528,1345,o),
(581,1376,o),
(710,1376,cs),
(775,1376,ls),
(827,1376,o),
(855,1404,o),
(855,1456,cs)
);
}
);
width = 983;
},
{
layerId = m002;
shapes = (
{
closed = 1;
nodes = (
(1211,1508,o),
(1183,1536,o),
(1131,1536,cs),
(967,1536,ls),
(552,1536,o),
(448,1419,o),
(453,1017,cs),
(454,938,ls),
(456,771,o),
(424,740,o),
(374,740,cs),
(208,740,ls),
(156,740,o),
(128,712,o),
(128,582,cs),
(128,444,o),
(156,416,o),
(208,416,cs),
(374,416,ls),
(673,416,o),
(891,538,o),
(886,938,cs),
(885,1017,ls),
(883,1182,o),
(914,1212,o),
(965,1212,cs),
(1131,1212,ls),
(1183,1212,o),
(1211,1240,o),
(1211,1374,cs)
);
}
);
width = 1339;
}
);
},
{
export = 0;
glyphname = "mini-R";
lastChange = "2024-11-20 23:36:27 +0000";
layers = (
{
anchors = (
{
name = bottom;
pos = (809,556);
},
{
name = top;
pos = (789,1324);
}
);
layerId = m01;
shapes = (
{
closed = 1;
nodes = (
(1205,556,ls),
(1231,556,o),
(1261,565,o),
(1241,586,cs),
(980,853,l),
(1214,864,o),
(1245,928,o),
(1245,1078,cs),
(1245,1098,ls),
(1245,1272,o),
(1199,1324,o),
(899,1324,cs),
(425,1324,ls),
(399,1324,o),
(385,1310,o),
(385,1284,cs),
(385,596,ls),
(385,570,o),
(399,556,o),
(425,556,cs),
(485,556,ls),
(511,556,o),
(525,570,o),
(525,596,cs),
(525,852,l),
(795,852,l),
(1054,586,ls),
(1074,565,o),
(1084,556,o),
(1110,556,cs)
);
},
{
closed = 1;
nodes = (
(1105,1078,ls),
(1105,1016,o),
(1075,992,o),
(881,992,cs),
(525,992,l),
(525,1184,l),
(881,1184,ls),
(1075,1184,o),
(1105,1168,o),
(1105,1098,cs)
);
},
{
closed = 1;
nodes = (
);
},
{
closed = 1;
nodes = (
);
}
);
width = 1609;
},
{
anchors = (
{
name = bottom;
pos = (829.12,578);
},
{
name = top;
pos = (809.92,1315.28);
}
);
layerId = m002;
shapes = (
{
closed = 1;
nodes = (
(1225,576,ls),
(1251,576,o),
(1281,585,o),
(1261,606,cs),
(1060,823,l),
(1244,834,o),
(1265,918,o),
(1265,1078,cs),
(1265,1098,ls),
(1265,1252,o),
(1219,1304,o),
(899,1304,cs),
(445,1304,ls),
(419,1304,o),
(405,1290,o),
(405,1264,cs),
(405,616,ls),
(405,590,o),
(419,576,o),
(445,576,cs),
(605,576,ls),
(631,576,o),
(645,590,o),
(645,616,cs),
(645,822,l),
(815,822,l),
(1014,606,ls),
(1034,585,o),
(1044,576,o),
(1070,576,cs)
);
},
{
closed = 1;
nodes = (
(1025,1048,ls),
(1025,1016,o),
(995,992,o),
(881,992,cs),
(645,992,l),
(645,1124,l),
(881,1124,ls),
(995,1124,o),
(1025,1108,o),
(1025,1068,cs)
);
}
);
width = 1669;
}
);
},
{
export = 0;
glyphname = "s-partial";
lastChange = "2024-11-20 23:36:27 +0000";
layers = (
{
layerId = m01;
shapes = (
{
closed = 1;
nodes = (
(1451,614,o),
(1376,674,o),
(1021,678,cs),
(626,682,ls),
(322,685,o),
(316,700,o),
(316,854,cs),
(316,1007,o),
(325,1014,o),
(810,1014,cs),
(1162,1014,o),
(1228,1006,o),
(1241,906,cs),
(1247,856,o),
(1271,829,o),
(1322,829,cs),
(1347,829,ls),
(1399,829,o),
(1429,858,o),
(1426,910,cs),
(1411,1133,o),
(1311,1174,o),
(800,1174,cs),
(317,1174,o),
(128,1176,o),
(128,854,cs),
(128,594,o),
(205,530,o),
(559,526,cs),
(1017,521,ls),
(1244,519,o),
(1263,491,o),
(1263,336,cs),
(1263,301,o),
(1267,240,o),
(1240,204,cs),
(1237,200,l),
(1367,76,l),
(1368,77,ls),
(1416,125,o),
(1451,188,o),
(1451,336,cs)
);
}
);
width = 1579;
},
{
layerId = m002;
shapes = (
{
closed = 1;
nodes = (
(1461,672,o),
(1386,693,o),
(911,705,cs),
(746,709,ls),
(602,712,o),
(556,764,o),
(556,823,cs),
(556,923,o),
(605,954,o),
(820,954,cs),
(932,954,o),
(998,896,o),
(1011,856,cs),
(1027,807,o),
(1041,779,o),
(1092,779,cs),
(1357,779,ls),
(1409,779,o),
(1439,808,o),
(1436,860,cs),
(1421,1083,o),
(1321,1174,o),
(810,1174,cs),
(347,1174,o),
(128,1112,o),
(128,830,cs),
(128,570,o),
(325,487,o),
(679,479,cs),
(907,474,ls),
(1095,470,o),
(1153,425,o),
(1153,366,cs),
(1153,327,o),
(1145,312,o),
(1140,304,cs),
(1138,301,l),
(1362,90,l),
(1368,95,ls),
(1395,117,o),
(1461,181,o),
(1461,336,cs)
);
}
);
width = 1589;
}
);
},
{
export = 0;
glyphname = "stem-g";
lastChange = "2024-11-20 23:36:27 +0000";
layers = (
{
anchors = (
{
name = bottom;
pos = (786,-544);
},
{
name = top;
pos = (806,1182);
}
);
layerId = m002;
shapes = (
{
closed = 1;
nodes = (
(1003,-589,o),
(1469,-534,o),
(1480,122,c),
(1480,572,ls),
(1480,624,o),
(1452,652,o),
(1400,652,cs),
(1128,652,ls),
(1076,652,o),
(1048,624,o),
(1048,572,cs),
(1048,81,ls),
(1048,-258,o),
(917,-279,o),
(745,-279,cs),
(668,-279,o),
(611,-277,o),
(562,-222,cs),
(530,-186,o),
(522,-157,o),
(475,-157,cs),
(248,-157,ls),
(194,-157,o),
(161,-188,o),
(172,-240,cs),
(224,-496,o),
(481,-589,o),
(745,-589,cs)
);
}
);
width = 1612;
},
{
anchors = (
{
name = bottom;
pos = (806,-410);
},
{
name = top;
pos = (806,1152);
}
);
layerId = m01;
shapes = (
{
closed = 1;
nodes = (
(1243,-439,o),
(1469,-384,o),
(1480,122,c),
(1480,572,ls),
(1480,624,o),
(1452,652,o),
(1400,652,cs),
(1368,652,ls),
(1316,652,o),
(1288,624,o),
(1288,572,cs),
(1288,130,ls),
(1288,-279,o),
(1157,-279,o),
(835,-279,cs),
(568,-279,o),
(411,-278,o),
(362,-202,cs),
(337,-161,o),
(322,-137,o),
(275,-137,cs),
(238,-137,ls),
(184,-137,o),
(149,-168,o),
(162,-220,cs),
(214,-426,o),
(471,-439,o),
(835,-439,cs)
);
}
);
width = 1612;
}
);
},
{
export = 0;
glyphname = "stem-low";
lastChange = "2024-11-20 23:36:27 +0000";
layers = (
{
anchors = (
{
name = _bottom;
pos = (727,0);
}
);
layerId = m01;
shapes = (
{
closed = 1;
nodes = (
(292,-380,o),
(320,-352,o),
(320,-300,cs),
(320,1076,ls),
(320,1128,o),
(292,1156,o),
(240,1156,cs),
(208,1156,ls),
(156,1156,o),
(128,1128,o),
(128,1076,cs),
(128,-300,ls),
(128,-352,o),
(156,-380,o),
(208,-380,cs),
(240,-380,ls)
);
}
);
width = 448;
},
{
anchors = (
{
name = _bottom;
pos = (848,0);
}
);
layerId = m002;
shapes = (
{
closed = 1;
nodes = (
(532,-380,o),
(560,-352,o),
(560,-300,cs),
(560,1076,ls),
(560,1128,o),
(532,1156,o),
(480,1156,cs),
(208,1156,ls),
(156,1156,o),
(128,1128,o),
(128,1076,cs),
(128,-300,ls),
(128,-352,o),
(156,-380,o),
(208,-380,cs),
(480,-380,ls)
);
}
);
width = 688;
}
);
},
{
export = 0;
glyphname = "stem-short";
lastChange = "2024-11-20 23:36:27 +0000";
layers = (
{
layerId = m01;
shapes = (
{
closed = 1;
nodes = (
(-93,0,ls),
(-41,0,o),
(-13,28,o),
(-13,80,cs),
(-13,496,ls),
(-13,548,o),
(-41,576,o),
(-93,576,cs),
(-125,576,ls),
(-177,576,o),
(-205,548,o),
(-205,496,cs),
(-205,80,ls),
(-205,28,o),
(-177,0,o),
(-125,0,cs)
);
}
);
width = 1560;
},
{
layerId = m002;
shapes = (
{
closed = 1;
nodes = (
(147,0,ls),
(199,0,o),
(227,28,o),
(227,80,cs),
(227,496,ls),
(227,548,o),
(199,576,o),
(147,576,cs),
(-125,576,ls),
(-177,576,o),
(-205,548,o),
(-205,496,cs),
(-205,80,ls),
(-205,28,o),
(-177,0,o),
(-125,0,cs)
);
}
);
width = 600;
}
);
},
{
export = 0;
glyphname = "stem-tall";
lastChange = "2024-11-20 23:36:27 +0000";
layers = (
{
anchors = (
{
name = bottom;
pos = (1066,0);
},
{
name = center;
pos = (679,1894);
},
{
name = ogonek;
pos = (199,20);
},
{
name = top;
pos = (1066,1152);
},
{
name = topleft;
pos = (290,2078);
},
{
name = topright;
pos = (556,1536);
}
);
layerId = m01;
shapes = (
{
closed = 1;
nodes = (
(356,-384,o),
(384,-356,o),
(384,-304,cs),
(384,1456,ls),
(384,1508,o),
(356,1536,o),
(304,1536,cs),
(272,1536,ls),
(220,1536,o),
(192,1508,o),
(192,1456,cs),
(192,-304,ls),
(192,-356,o),
(220,-384,o),
(272,-384,cs),
(304,-384,ls)
);
}
);
width = 576;
},
{
anchors = (
{
name = bottom;
pos = (1236,0);
},
{
name = center;
pos = (849,1894);
},
{
name = ogonek;
pos = (369,20);
},
{
name = top;
pos = (1236,1152);
},
{
name = topleft;
pos = (460,2078);
},
{
name = topright;
pos = (726,1536);
}
);
layerId = m002;
shapes = (
{
closed = 1;
nodes = (
(596,-384,o),
(624,-356,o),
(624,-304,cs),
(624,1456,ls),
(624,1508,o),
(596,1536,o),
(544,1536,cs),
(272,1536,ls),
(220,1536,o),
(192,1508,o),
(192,1456,cs),
(192,-304,ls),
(192,-356,o),
(220,-384,o),
(272,-384,cs),
(544,-384,ls)
);
}
);
width = 816;
}
);
},
{
export = 0;
glyphname = "stem-x-height";
lastChange = "2024-11-20 23:36:27 +0000";
layers = (
{
layerId = m01;
shapes = (
{
closed = 1;
nodes = (
(244,0,ls),
(296,0,o),
(324,28,o),
(324,80,cs),
(324,1072,ls),
(324,1124,o),
(296,1152,o),
(244,1152,cs),
(212,1152,ls),
(160,1152,o),
(132,1124,o),
(132,1072,cs),
(132,80,ls),
(132,28,o),
(160,0,o),
(212,0,cs)
);
}
